# MagicaVoxel @ Ephtracy

# group
o 

# material
mtllib cartello 1.mtl
usemtl palette

# normals
vn -1 0 0
vn 1 0 0
vn 0 0 1
vn 0 0 -1
vn 0 -1 0
vn 0 1 0

# texcoords
vt 0.146484 0.5
vt 0.771484 0.5
vt 0.958984 0.5
vt 0.994141 0.5

# verts
v 0.8 3.6 -2.8
v 0.8 3.6 -3.2
v 0.8 9.2 -2.8
v 0.8 9.2 -3.2
v 2.4 -10.8 -3.2
v 2.4 -10.8 -4
v 2.4 3.6 -3.2
v 2.4 9.2 -3.2
v 2.4 10 -3.2
v 2.4 10 -4
v 3.2 -10.8 -3.2
v 3.2 -10.8 -4
v 3.2 3.6 -3.2
v 3.2 9.2 -3.2
v 3.2 10 -3.2
v 3.2 10 -4
v 4.8 3.6 -2.8
v 4.8 3.6 -3.2
v 4.8 9.2 -2.8
v 4.8 9.2 -3.2
v 0.8 3.6 -2.8
v 0.8 9.2 -2.8
v 1.2 4.2 -2.8
v 1.2 5.8 -2.8
v 1.4 4.4 -2.8
v 1.4 5.6 -2.8
v 1.6 4.4 -2.8
v 1.6 4.8 -2.8
v 1.6 5 -2.8
v 1.6 5.4 -2.8
v 1.6 7.2 -2.8
v 1.6 8.2 -2.8
v 1.8 7 -2.8
v 1.8 7.2 -2.8
v 1.8 8.2 -2.8
v 1.8 8.4 -2.8
v 2 6.8 -2.8
v 2 7 -2.8
v 2 7.4 -2.8
v 2 8 -2.8
v 2 8.4 -2.8
v 2 8.6 -2.8
v 2.2 5 -2.8
v 2.2 5.4 -2.8
v 2.2 6.6 -2.8
v 2.2 6.8 -2.8
v 2.2 7.2 -2.8
v 2.2 7.4 -2.8
v 2.2 8 -2.8
v 2.2 8.2 -2.8
v 2.2 8.6 -2.8
v 2.2 8.8 -2.8
v 2.4 4.8 -2.8
v 2.4 5.6 -2.8
v 2.4 6.4 -2.8
v 2.4 6.6 -2.8
v 2.4 7 -2.8
v 2.4 7.2 -2.8
v 2.4 8 -2.8
v 2.4 8.2 -2.8
v 2.4 8.4 -2.8
v 2.4 8.8 -2.8
v 2.4 9 -2.8
v 2.6 4.2 -2.8
v 2.6 5.8 -2.8
v 2.6 6.8 -2.8
v 2.6 7 -2.8
v 2.6 7.8 -2.8
v 2.6 8 -2.8
v 2.6 8.2 -2.8
v 2.6 8.4 -2.8
v 2.6 8.6 -2.8
v 2.8 7.6 -2.8
v 2.8 7.8 -2.8
v 2.8 8 -2.8
v 3 7.4 -2.8
v 3 7.6 -2.8
v 3 7.8 -2.8
v 3.2 4.2 -2.8
v 3.2 5.8 -2.8
v 3.2 6.8 -2.8
v 3.2 7 -2.8
v 3.2 7.2 -2.8
v 3.2 7.4 -2.8
v 3.2 7.6 -2.8
v 3.2 8.4 -2.8
v 3.2 8.6 -2.8
v 3.4 4.4 -2.8
v 3.4 5 -2.8
v 3.4 6.4 -2.8
v 3.4 6.6 -2.8
v 3.4 7 -2.8
v 3.4 7.2 -2.8
v 3.4 7.4 -2.8
v 3.4 8.2 -2.8
v 3.4 8.4 -2.8
v 3.4 8.8 -2.8
v 3.4 9 -2.8
v 3.5 4.5 -2.8
v 3.5 4.8 -2.8
v 3.6 4.6 -2.8
v 3.6 4.8 -2.8
v 3.6 5 -2.8
v 3.6 5.5 -2.8
v 3.6 6.6 -2.8
v 3.6 6.8 -2.8
v 3.6 7.2 -2.8
v 3.6 7.4 -2.8
v 3.6 8 -2.8
v 3.6 8.2 -2.8
v 3.6 8.6 -2.8
v 3.6 8.8 -2.8
v 3.7 5.5 -2.8
v 3.7 5.6 -2.8
v 3.8 4.8 -2.8
v 3.8 5 -2.8
v 3.8 5.2 -2.8
v 3.8 5.4 -2.8
v 3.8 6.8 -2.8
v 3.8 7 -2.8
v 3.8 7.4 -2.8
v 3.8 8 -2.8
v 3.8 8.4 -2.8
v 3.8 8.6 -2.8
v 3.9 4.5 -2.8
v 3.9 4.6 -2.8
v 3.9 5.4 -2.8
v 3.9 5.6 -2.8
v 4 4.4 -2.8
v 4 4.7 -2.8
v 4 5.1 -2.8
v 4 5.2 -2.8
v 4 7 -2.8
v 4 7.2 -2.8
v 4 8.2 -2.8
v 4 8.4 -2.8
v 4.2 5 -2.8
v 4.2 5.1 -2.8
v 4.2 7.2 -2.8
v 4.2 8.2 -2.8
v 4.3 4.4 -2.8
v 4.3 4.7 -2.8
v 4.4 4.4 -2.8
v 4.4 4.8 -2.8
v 4.6 4.2 -2.8
v 4.6 5.8 -2.8
v 4.8 3.6 -2.8
v 4.8 9.2 -2.8
v 2.4 -10.8 -3.2
v 2.4 3.6 -3.2
v 2.4 9.2 -3.2
v 2.4 10 -3.2
v 3.2 -10.8 -3.2
v 3.2 3.6 -3.2
v 3.2 9.2 -3.2
v 3.2 10 -3.2
v 0.8 3.6 -3.2
v 0.8 9.2 -3.2
v 2.4 3.6 -3.2
v 2.4 9.2 -3.2
v 3.2 3.6 -3.2
v 3.2 9.2 -3.2
v 4.8 3.6 -3.2
v 4.8 9.2 -3.2
v 2.4 -10.8 -4
v 2.4 10 -4
v 3.2 -10.8 -4
v 3.2 10 -4
v 2.4 -10.8 -3.2
v 3.2 -10.8 -3.2
v 2.4 -10.8 -4
v 3.2 -10.8 -4
v 0.8 3.6 -2.8
v 4.8 3.6 -2.8
v 0.8 3.6 -3.2
v 2.4 3.6 -3.2
v 3.2 3.6 -3.2
v 4.8 3.6 -3.2
v 0.8 9.2 -2.8
v 4.8 9.2 -2.8
v 0.8 9.2 -3.2
v 2.4 9.2 -3.2
v 3.2 9.2 -3.2
v 4.8 9.2 -3.2
v 2.4 10 -3.2
v 3.2 10 -3.2
v 2.4 10 -4
v 3.2 10 -4

# faces
f 3/3/1 2/3/1 1/3/1
f 4/3/1 2/3/1 3/3/1
f 7/4/1 6/4/1 5/4/1
f 8/4/1 6/4/1 7/4/1
f 9/4/1 6/4/1 8/4/1
f 10/4/1 6/4/1 9/4/1
f 11/4/2 12/4/2 13/4/2
f 13/4/2 12/4/2 14/4/2
f 14/4/2 12/4/2 15/4/2
f 15/4/2 12/4/2 16/4/2
f 17/3/2 18/3/2 19/3/2
f 19/3/2 18/3/2 20/3/2
f 23/3/3 22/3/3 21/3/3
f 24/3/3 22/3/3 23/3/3
f 25/2/3 24/2/3 23/2/3
f 26/2/3 24/2/3 25/2/3
f 27/2/3 25/2/3 23/2/3
f 27/3/3 26/3/3 25/3/3
f 28/3/3 26/3/3 27/3/3
f 29/3/3 26/3/3 28/3/3
f 30/3/3 26/3/3 29/3/3
f 31/3/3 22/3/3 24/3/3
f 32/3/3 22/3/3 31/3/3
f 33/3/3 31/3/3 24/3/3
f 34/1/3 32/1/3 31/1/3
f 34/3/3 31/3/3 33/3/3
f 35/3/3 22/3/3 32/3/3
f 35/1/3 32/1/3 34/1/3
f 36/3/3 22/3/3 35/3/3
f 37/3/3 33/3/3 24/3/3
f 38/1/3 34/1/3 33/1/3
f 38/3/3 33/3/3 37/3/3
f 38/1/3 35/1/3 34/1/3
f 38/1/3 36/1/3 35/1/3
f 39/1/3 36/1/3 38/1/3
f 40/1/3 36/1/3 39/1/3
f 41/3/3 22/3/3 36/3/3
f 41/1/3 36/1/3 40/1/3
f 42/3/3 22/3/3 41/3/3
f 43/3/3 29/3/3 28/3/3
f 43/2/3 30/2/3 29/2/3
f 44/3/3 26/3/3 30/3/3
f 44/2/3 30/2/3 43/2/3
f 45/3/3 37/3/3 24/3/3
f 46/1/3 38/1/3 37/1/3
f 46/3/3 37/3/3 45/3/3
f 46/1/3 39/1/3 38/1/3
f 47/1/3 39/1/3 46/1/3
f 48/2/3 40/2/3 39/2/3
f 48/1/3 39/1/3 47/1/3
f 49/1/3 42/1/3 41/1/3
f 49/2/3 40/2/3 48/2/3
f 49/1/3 41/1/3 40/1/3
f 50/1/3 42/1/3 49/1/3
f 51/3/3 22/3/3 42/3/3
f 51/1/3 42/1/3 50/1/3
f 52/3/3 22/3/3 51/3/3
f 53/3/3 43/3/3 28/3/3
f 53/2/3 28/2/3 27/2/3
f 53/3/3 44/3/3 43/3/3
f 54/2/3 24/2/3 26/2/3
f 54/3/3 44/3/3 53/3/3
f 54/3/3 26/3/3 44/3/3
f 55/3/3 45/3/3 24/3/3
f 56/1/3 47/1/3 46/1/3
f 56/3/3 45/3/3 55/3/3
f 56/1/3 46/1/3 45/1/3
f 57/1/3 47/1/3 56/1/3
f 58/2/3 50/2/3 49/2/3
f 58/1/3 47/1/3 57/1/3
f 58/2/3 48/2/3 47/2/3
f 58/2/3 49/2/3 48/2/3
f 59/2/3 50/2/3 58/2/3
f 60/1/3 52/1/3 51/1/3
f 60/2/3 50/2/3 59/2/3
f 60/1/3 51/1/3 50/1/3
f 61/1/3 52/1/3 60/1/3
f 62/3/3 22/3/3 52/3/3
f 62/1/3 52/1/3 61/1/3
f 63/3/3 22/3/3 62/3/3
f 64/3/3 23/3/3 21/3/3
f 64/2/3 53/2/3 27/2/3
f 64/2/3 27/2/3 23/2/3
f 64/2/3 54/2/3 53/2/3
f 65/3/3 55/3/3 24/3/3
f 65/2/3 54/2/3 64/2/3
f 65/2/3 24/2/3 54/2/3
f 66/1/3 57/1/3 56/1/3
f 66/1/3 56/1/3 55/1/3
f 67/2/3 59/2/3 58/2/3
f 67/1/3 57/1/3 66/1/3
f 67/2/3 58/2/3 57/2/3
f 68/2/3 59/2/3 67/2/3
f 69/1/3 60/1/3 59/1/3
f 69/2/3 59/2/3 68/2/3
f 70/2/3 61/2/3 60/2/3
f 70/1/3 60/1/3 69/1/3
f 71/1/3 63/1/3 62/1/3
f 71/2/3 61/2/3 70/2/3
f 71/1/3 62/1/3 61/1/3
f 72/1/3 63/1/3 71/1/3
f 73/2/3 67/2/3 66/2/3
f 73/2/3 68/2/3 67/2/3
f 74/1/3 69/1/3 68/1/3
f 74/2/3 68/2/3 73/2/3
f 75/2/3 70/2/3 69/2/3
f 75/1/3 69/1/3 74/1/3
f 75/2/3 72/2/3 71/2/3
f 75/2/3 71/2/3 70/2/3
f 76/2/3 73/2/3 66/2/3
f 77/1/3 74/1/3 73/1/3
f 77/2/3 73/2/3 76/2/3
f 78/2/3 75/2/3 74/2/3
f 78/1/3 74/1/3 77/1/3
f 79/3/3 65/3/3 64/3/3
f 79/3/3 64/3/3 21/3/3
f 80/3/3 55/3/3 65/3/3
f 80/3/3 65/3/3 79/3/3
f 81/2/3 76/2/3 66/2/3
f 81/1/3 66/1/3 55/1/3
f 82/2/3 76/2/3 81/2/3
f 83/2/3 76/2/3 82/2/3
f 84/1/3 77/1/3 76/1/3
f 84/2/3 76/2/3 83/2/3
f 85/2/3 78/2/3 77/2/3
f 85/1/3 77/1/3 84/1/3
f 86/2/3 72/2/3 75/2/3
f 86/2/3 78/2/3 85/2/3
f 86/2/3 75/2/3 78/2/3
f 87/1/3 63/1/3 72/1/3
f 87/2/3 72/2/3 86/2/3
f 88/2/3 80/2/3 79/2/3
f 89/2/3 80/2/3 88/2/3
f 90/3/3 55/3/3 80/3/3
f 90/1/3 82/1/3 81/1/3
f 90/1/3 81/1/3 55/1/3
f 91/1/3 82/1/3 90/1/3
f 92/2/3 83/2/3 82/2/3
f 92/1/3 82/1/3 91/1/3
f 93/1/3 84/1/3 83/1/3
f 93/2/3 83/2/3 92/2/3
f 94/2/3 85/2/3 84/2/3
f 94/1/3 84/1/3 93/1/3
f 94/2/3 86/2/3 85/2/3
f 95/2/3 86/2/3 94/2/3
f 96/1/3 87/1/3 86/1/3
f 96/2/3 86/2/3 95/2/3
f 97/1/3 63/1/3 87/1/3
f 97/1/3 87/1/3 96/1/3
f 98/3/3 22/3/3 63/3/3
f 98/1/3 63/1/3 97/1/3
f 99/3/3 89/3/3 88/3/3
f 100/3/3 89/3/3 99/3/3
f 101/2/3 100/2/3 99/2/3
f 102/3/3 89/3/3 100/3/3
f 102/2/3 100/2/3 101/2/3
f 103/2/3 80/2/3 89/2/3
f 103/3/3 89/3/3 102/3/3
f 104/2/3 80/2/3 103/2/3
f 105/1/3 93/1/3 92/1/3
f 105/1/3 92/1/3 91/1/3
f 105/3/3 91/3/3 90/3/3
f 106/1/3 93/1/3 105/1/3
f 107/2/3 95/2/3 94/2/3
f 107/1/3 93/1/3 106/1/3
f 107/2/3 94/2/3 93/2/3
f 108/2/3 95/2/3 107/2/3
f 109/2/3 95/2/3 108/2/3
f 110/1/3 97/1/3 96/1/3
f 110/2/3 95/2/3 109/2/3
f 110/1/3 96/1/3 95/1/3
f 111/1/3 97/1/3 110/1/3
f 112/3/3 98/3/3 97/3/3
f 112/1/3 97/1/3 111/1/3
f 113/2/3 80/2/3 104/2/3
f 113/3/3 102/3/3 101/3/3
f 113/3/3 104/3/3 103/3/3
f 113/3/3 103/3/3 102/3/3
f 114/2/3 80/2/3 113/2/3
f 115/3/3 113/3/3 101/3/3
f 115/3/3 114/3/3 113/3/3
f 116/3/3 114/3/3 115/3/3
f 117/3/3 114/3/3 116/3/3
f 118/3/3 114/3/3 117/3/3
f 119/1/3 108/1/3 107/1/3
f 119/1/3 107/1/3 106/1/3
f 119/3/3 106/3/3 105/3/3
f 120/1/3 108/1/3 119/1/3
f 121/2/3 109/2/3 108/2/3
f 121/1/3 108/1/3 120/1/3
f 122/1/3 110/1/3 109/1/3
f 122/2/3 109/2/3 121/2/3
f 122/1/3 111/1/3 110/1/3
f 123/1/3 111/1/3 122/1/3
f 124/3/3 112/3/3 111/3/3
f 124/1/3 111/1/3 123/1/3
f 125/3/3 99/3/3 88/3/3
f 125/2/3 101/2/3 99/2/3
f 126/3/3 115/3/3 101/3/3
f 126/2/3 101/2/3 125/2/3
f 127/3/3 114/3/3 118/3/3
f 127/2/3 118/2/3 117/2/3
f 128/2/3 80/2/3 114/2/3
f 128/3/3 114/3/3 127/3/3
f 129/3/3 126/3/3 125/3/3
f 129/2/3 88/2/3 79/2/3
f 129/3/3 125/3/3 88/3/3
f 130/3/3 115/3/3 126/3/3
f 130/3/3 126/3/3 129/3/3
f 131/3/3 117/3/3 116/3/3
f 132/2/3 128/2/3 127/2/3
f 132/3/3 117/3/3 131/3/3
f 132/2/3 127/2/3 117/2/3
f 133/3/3 120/3/3 119/3/3
f 133/1/3 123/1/3 122/1/3
f 133/1/3 121/1/3 120/1/3
f 133/1/3 122/1/3 121/1/3
f 134/1/3 123/1/3 133/1/3
f 135/1/3 123/1/3 134/1/3
f 136/3/3 124/3/3 123/3/3
f 136/1/3 123/1/3 135/1/3
f 137/2/3 116/2/3 115/2/3
f 137/3/3 131/3/3 116/3/3
f 138/2/3 132/2/3 131/2/3
f 138/3/3 131/3/3 137/3/3
f 139/1/3 135/1/3 134/1/3
f 139/3/3 134/3/3 133/3/3
f 140/3/3 136/3/3 135/3/3
f 140/1/3 135/1/3 139/1/3
f 141/2/3 129/2/3 79/2/3
f 141/2/3 130/2/3 129/2/3
f 142/3/3 115/3/3 130/3/3
f 142/2/3 130/2/3 141/2/3
f 143/2/3 141/2/3 79/2/3
f 143/3/3 142/3/3 141/3/3
f 144/2/3 137/2/3 115/2/3
f 144/3/3 142/3/3 143/3/3
f 144/3/3 115/3/3 142/3/3
f 144/2/3 138/2/3 137/2/3
f 145/2/3 143/2/3 79/2/3
f 145/3/3 79/3/3 21/3/3
f 145/2/3 144/2/3 143/2/3
f 146/2/3 128/2/3 132/2/3
f 146/2/3 144/2/3 145/2/3
f 146/2/3 138/2/3 144/2/3
f 146/2/3 132/2/3 138/2/3
f 146/3/3 90/3/3 80/3/3
f 146/3/3 119/3/3 105/3/3
f 146/3/3 105/3/3 90/3/3
f 146/3/3 133/3/3 119/3/3
f 146/3/3 139/3/3 133/3/3
f 146/2/3 80/2/3 128/2/3
f 146/3/3 140/3/3 139/3/3
f 147/3/3 145/3/3 21/3/3
f 147/3/3 146/3/3 145/3/3
f 148/3/3 140/3/3 146/3/3
f 148/3/3 146/3/3 147/3/3
f 148/3/3 98/3/3 112/3/3
f 148/3/3 22/3/3 98/3/3
f 148/3/3 136/3/3 140/3/3
f 148/3/3 124/3/3 136/3/3
f 148/3/3 112/3/3 124/3/3
f 153/4/3 150/4/3 149/4/3
f 154/4/3 150/4/3 153/4/3
f 155/4/3 152/4/3 151/4/3
f 156/4/3 152/4/3 155/4/3
f 157/3/4 158/3/4 159/3/4
f 159/3/4 158/3/4 160/3/4
f 161/3/4 162/3/4 163/3/4
f 163/3/4 162/3/4 164/3/4
f 165/4/4 166/4/4 167/4/4
f 167/4/4 166/4/4 168/4/4
f 171/4/5 170/4/5 169/4/5
f 172/4/5 170/4/5 171/4/5
f 175/3/5 174/3/5 173/3/5
f 176/3/5 174/3/5 175/3/5
f 177/3/5 174/3/5 176/3/5
f 178/3/5 174/3/5 177/3/5
f 179/3/6 180/3/6 181/3/6
f 181/3/6 180/3/6 182/3/6
f 182/3/6 180/3/6 183/3/6
f 183/3/6 180/3/6 184/3/6
f 185/4/6 186/4/6 187/4/6
f 187/4/6 186/4/6 188/4/6
