# MagicaVoxel @ Ephtracy

# group
o 

# material
mtllib Vulgomme-1.mtl
usemtl palette

# normals
vn -1 0 0
vn 1 0 0
vn 0 0 1
vn 0 0 -1
vn 0 -1 0
vn 0 1 0

# texcoords
vt 0.369141 0.5
vt 0.880859 0.5
vt 0.884766 0.5
vt 0.888672 0.5
vt 0.923828 0.5

# verts
v -8 -2 3.8
v -8 -2 3.6
v -8 -2 -4.2
v -8 -1.8 3.8
v -8 -1.8 3.6
v -8 -1.8 -4
v -8 -1.8 -4.2
v -8 -1.4 3.8
v -8 -1.4 3.6
v -8 -1.4 -4
v -8 -1.4 -4.2
v -8 1.4 3.6
v -8 1.4 -4
v -8 1.6 3.6
v -8 1.6 -4
v -8 4.4 3.6
v -8 4.4 -4
v -8 4.8 4.4
v -8 4.8 3.8
v -8 5 4.6
v -8 5 4.4
v -8 5 -4.2
v -8 5.2 4.6
v -8 5.2 -4.2
v -6.3 2.3 3.9
v -6.3 2.3 3.8
v -6.3 2.4 3.9
v -6.3 2.4 3.8
v -5.2 2.4 3.8
v -5.2 2.4 3.6
v -5.2 4 3.8
v -5.2 4 3.6
v -3.8 -1.8 3.8
v -3.8 -1.8 3.6
v -3.8 -1.4 3.8
v -3.8 -1.4 3.6
v -3.8 1.2 3.8
v -3.8 1.2 3.6
v -3.8 2.4 3.8
v -3.8 2.4 3.6
v -3.8 4 3.8
v -3.8 4 3.6
v -3.4 -1.8 3.6
v -3.4 -1.8 -0.2
v -3.4 -1.8 -2
v -3.4 -1.8 -4
v -3.4 -1.4 3.6
v -3.4 -1.4 -0.2
v -3.4 -1.4 -2
v -3.4 -1.4 -4
v -3.4 0.6 -0.2
v -3.4 0.6 -2
v -3.4 1.4 3.6
v -3.4 1.4 -4
v -3.4 1.6 3.6
v -3.4 1.6 -4
v -3.4 4.4 3.6
v -3.4 4.4 -4
v -3.2 -2 3.4
v -3.2 -2 -0.2
v -3.2 -2 -2
v -3.2 -2 -2.2
v -3.2 -1.8 3.4
v -3.2 -1.8 -0.2
v -3.2 -1.8 -2
v -3.2 -1.8 -2.2
v -0.6 0.4 3.8
v -0.6 0.4 3.6
v -0.6 0.8 3.8
v -0.6 0.8 3.6
v -0.4 -1.8 3.8
v -0.4 -1.8 3.6
v -0.4 0.4 3.8
v -0.4 0.4 3.6
v -0.2 -1.8 3.6
v -0.2 -1.8 -2.2
v -0.2 -1.4 3.6
v -0.2 -1.4 -2.2
v -0.2 0.4 3.6
v -0.2 0.8 3.6
v -0.2 0.8 -2.2
v -0.2 1 3.6
v -0.2 1 -2.2
v -7.8 -1.8 3.8
v -7.8 -1.8 3.6
v -7.8 -1.4 3.8
v -7.8 -1.4 3.6
v -7.8 1.2 3.8
v -7.8 1.2 3.6
v -6.2 2.4 3.8
v -6.2 2.4 3.6
v -6.2 4 3.8
v -6.2 4 3.6
v -4.8 2.4 3.8
v -4.8 2.4 3.6
v -4.8 4 3.8
v -4.8 4 3.6
v -3.7 2.3 3.9
v -3.7 2.3 3.8
v -3.7 2.4 3.9
v -3.7 2.4 3.8
v -3.4 -2 3.4
v -3.4 -2 -0.2
v -3.4 -2 -2
v -3.4 -2 -4.2
v -3.4 -1.8 3.4
v -3.4 -1.8 -0.2
v -3.4 -1.8 -2
v -3.4 -1.8 -4.2
v -3.2 -1.8 3.6
v -3.2 -1.8 -0.2
v -3.2 -1.8 -2
v -3.2 -1.8 -2.2
v -3.2 -1.8 -2.4
v -3.2 -1.8 -4.2
v -3.2 -1.4 3.6
v -3.2 -1.4 -0.2
v -3.2 -1.4 -2
v -3.2 -1.4 -2.2
v -3.2 -1.4 -2.4
v -3.2 -1.4 -4.2
v -3.2 0.6 -0.2
v -3.2 0.6 -2
v -3.2 0.8 -2.2
v -3.2 0.8 -2.4
v -3.2 1 3.6
v -3.2 1 -2.2
v -3.2 1 -2.4
v -3.2 1.2 3.8
v -3.2 1.2 3.6
v -3.2 1.2 -2.2
v -3.2 4.8 4.4
v -3.2 4.8 3.8
v -3.2 5 4.6
v -3.2 5 4.4
v -3.2 5 -4.2
v -3.2 5.2 4.6
v -3.2 5.2 -4.2
v -2.6 -1.8 3.8
v -2.6 -1.8 3.6
v -2.6 0.4 3.8
v -2.6 0.4 3.6
v -2.4 0.4 3.8
v -2.4 0.4 3.6
v -2.4 0.8 3.8
v -2.4 0.8 3.6
v -0.2 -2 3.4
v -0.2 -2 -2.2
v -0.2 -1.8 3.4
v -0.2 -1.8 -2.2
v -0.2 1 3.6
v -0.2 1 -2.2
v -0.2 1.2 3.6
v -0.2 1.2 -2.2
v 0 -2 3.8
v 0 -2 3.4
v 0 -1.8 3.8
v 0 -1.8 3.4
v 0 -1.8 -2.4
v 0 -1.4 3.8
v 0 -1.4 -2.4
v 0 0.8 3.6
v 0 0.8 -2.4
v 0 1 3.6
v 0 1 -2.4
v 0 1.2 3.8
v 0 1.2 3.6
v -8 5 4.6
v -8 5.2 4.6
v -3.2 5 4.6
v -3.2 5.2 4.6
v -8 4.8 4.4
v -8 5 4.4
v -3.2 4.8 4.4
v -3.2 5 4.4
v -6.3 2.3 3.9
v -6.3 2.4 3.9
v -3.7 2.3 3.9
v -3.7 2.4 3.9
v -8 -2 3.8
v -8 -1.8 3.8
v -8 -1.4 3.8
v -8 4.8 3.8
v -7.8 -2 3.8
v -7.8 -1.8 3.8
v -7.8 -1.4 3.8
v -7.8 1.2 3.8
v -6.3 2.3 3.8
v -6.3 2.4 3.8
v -6.2 2.4 3.8
v -6.2 4 3.8
v -5.2 2.4 3.8
v -5.2 4 3.8
v -4.8 2.4 3.8
v -4.8 4 3.8
v -3.8 -2 3.8
v -3.8 -1.8 3.8
v -3.8 -1.4 3.8
v -3.8 1.2 3.8
v -3.8 2.4 3.8
v -3.8 4 3.8
v -3.7 2.3 3.8
v -3.7 2.4 3.8
v -3.2 1.2 3.8
v -3.2 4.8 3.8
v -2.8 -1.4 3.8
v -2.8 0.4 3.8
v -2.6 -2 3.8
v -2.6 -1.8 3.8
v -2.6 0.4 3.8
v -2.6 0.8 3.8
v -2.4 0.4 3.8
v -2.4 0.8 3.8
v -2.4 1 3.8
v -0.6 0.4 3.8
v -0.6 0.8 3.8
v -0.6 1 3.8
v -0.4 -2 3.8
v -0.4 -1.8 3.8
v -0.4 0.4 3.8
v -0.4 0.8 3.8
v -0.2 -1.4 3.8
v -0.2 0.4 3.8
v 0 -2 3.8
v 0 -1.8 3.8
v 0 -1.4 3.8
v 0 1.2 3.8
v -3.4 -2 -0.2
v -3.4 -1.8 -0.2
v -3.2 -2 -0.2
v -3.2 -1.8 -0.2
v -3.4 -1.8 -2
v -3.4 -1.4 -2
v -3.4 0.6 -2
v -3.2 -1.8 -2
v -3.2 -1.4 -2
v -3.2 0.6 -2
v -3.2 -1.8 -2.2
v -3.2 -1.4 -2.2
v -3.2 0.8 -2.2
v -3.2 1 -2.2
v -0.2 -1.8 -2.2
v -0.2 -1.4 -2.2
v -0.2 0.8 -2.2
v -0.2 1 -2.2
v -8 -1.8 -4
v -8 -1.4 -4
v -8 1.4 -4
v -8 1.6 -4
v -8 4.4 -4
v -3.4 -1.8 -4
v -3.4 -1.4 -4
v -3.4 1.4 -4
v -3.4 1.6 -4
v -3.4 4.4 -4
v -8 -1.8 3.6
v -8 -1.4 3.6
v -8 1.4 3.6
v -8 1.6 3.6
v -8 4.4 3.6
v -7.8 -1.8 3.6
v -7.8 -1.4 3.6
v -7.8 1.2 3.6
v -6.2 2.4 3.6
v -6.2 4 3.6
v -5.2 2.4 3.6
v -5.2 4 3.6
v -4.8 2.4 3.6
v -4.8 4 3.6
v -3.8 -1.8 3.6
v -3.8 -1.4 3.6
v -3.8 1.2 3.6
v -3.8 2.4 3.6
v -3.8 4 3.6
v -3.4 -1.8 3.6
v -3.4 -1.4 3.6
v -3.4 1.4 3.6
v -3.4 1.6 3.6
v -3.4 4.4 3.6
v -3.2 -1.8 3.6
v -3.2 -1.4 3.6
v -3.2 1 3.6
v -2.8 -1.4 3.6
v -2.8 0.4 3.6
v -2.6 -1.8 3.6
v -2.6 0.4 3.6
v -2.6 0.8 3.6
v -2.4 0.4 3.6
v -2.4 0.8 3.6
v -2.4 1 3.6
v -0.6 0.4 3.6
v -0.6 0.8 3.6
v -0.6 1 3.6
v -0.4 -1.8 3.6
v -0.4 0.4 3.6
v -0.4 0.8 3.6
v -0.2 -1.8 3.6
v -0.2 -1.4 3.6
v -0.2 0.4 3.6
v -0.2 0.8 3.6
v -0.2 1 3.6
v -0.2 1.2 3.6
v 0 1 3.6
v 0 1.2 3.6
v -3.4 -2 3.4
v -3.4 -1.8 3.4
v -3.2 -2 3.4
v -3.2 -1.8 3.4
v -0.2 -2 3.4
v -0.2 -1.8 3.4
v 0 -2 3.4
v 0 -1.8 3.4
v -3.4 -1.8 -0.2
v -3.4 -1.4 -0.2
v -3.4 0.6 -0.2
v -3.2 -1.8 -0.2
v -3.2 -1.4 -0.2
v -3.2 0.6 -0.2
v -3.4 -2 -2
v -3.4 -1.8 -2
v -3.2 -2 -2
v -3.2 -1.8 -2
v -3.2 -2 -2.2
v -3.2 -1.8 -2.2
v -3.2 1 -2.2
v -3.2 1.2 -2.2
v -0.2 -2 -2.2
v -0.2 -1.8 -2.2
v -0.2 1 -2.2
v -0.2 1.2 -2.2
v -3.2 -1.8 -2.4
v -3.2 -1.4 -2.4
v -3.2 0.8 -2.4
v -3.2 1 -2.4
v 0 -1.8 -2.4
v 0 -1.4 -2.4
v 0 0.8 -2.4
v 0 1 -2.4
v -8 -2 -4.2
v -8 -1.8 -4.2
v -8 -1.4 -4.2
v -8 5 -4.2
v -8 5.2 -4.2
v -3.4 -2 -4.2
v -3.4 -1.8 -4.2
v -3.2 -1.8 -4.2
v -3.2 -1.4 -4.2
v -3.2 5 -4.2
v -3.2 5.2 -4.2
v -8 -2 3.8
v -7.8 -2 3.8
v -3.8 -2 3.8
v -2.6 -2 3.8
v -0.4 -2 3.8
v 0 -2 3.8
v -8 -2 3.6
v -7.8 -2 3.6
v -3.8 -2 3.6
v -3.4 -2 3.6
v -3.2 -2 3.6
v -2.6 -2 3.6
v -0.4 -2 3.6
v -0.2 -2 3.6
v -3.4 -2 3.4
v -3.2 -2 3.4
v -0.2 -2 3.4
v 0 -2 3.4
v -3.4 -2 -0.2
v -3.2 -2 -0.2
v -3.4 -2 -2
v -3.2 -2 -2
v -3.2 -2 -2.2
v -0.2 -2 -2.2
v -8 -2 -4.2
v -3.4 -2 -4.2
v -3.4 -1.8 3.4
v -3.2 -1.8 3.4
v -0.2 -1.8 3.4
v 0 -1.8 3.4
v -3.4 -1.8 -0.2
v -3.2 -1.8 -0.2
v -3.4 -1.8 -2
v -3.2 -1.8 -2
v -3.2 -1.8 -2.2
v -0.2 -1.8 -2.2
v -3.2 -1.8 -2.4
v 0 -1.8 -2.4
v -3.4 -1.8 -4.2
v -3.2 -1.8 -4.2
v -2.6 0.4 3.8
v -2.4 0.4 3.8
v -0.6 0.4 3.8
v -0.4 0.4 3.8
v -2.6 0.4 3.6
v -2.4 0.4 3.6
v -0.6 0.4 3.6
v -0.4 0.4 3.6
v -3.4 0.6 -0.2
v -3.2 0.6 -0.2
v -3.4 0.6 -2
v -3.2 0.6 -2
v -2.4 0.8 3.8
v -0.6 0.8 3.8
v -2.4 0.8 3.6
v -0.6 0.8 3.6
v -3.2 1 3.6
v -2.4 1 3.6
v -0.6 1 3.6
v -0.2 1 3.6
v -3.2 1 -2.2
v -0.2 1 -2.2
v -7.8 1.2 3.8
v -3.8 1.2 3.8
v -7.8 1.2 3.6
v -3.8 1.2 3.6
v -8 1.4 3.6
v -3.4 1.4 3.6
v -8 1.4 -4
v -3.4 1.4 -4
v -6.3 2.3 3.9
v -3.7 2.3 3.9
v -6.3 2.3 3.8
v -3.7 2.3 3.8
v -6.2 4 3.8
v -5.2 4 3.8
v -4.8 4 3.8
v -3.8 4 3.8
v -6.2 4 3.6
v -5.2 4 3.6
v -4.8 4 3.6
v -3.8 4 3.6
v -8 4.4 3.6
v -3.4 4.4 3.6
v -8 4.4 -4
v -3.4 4.4 -4
v -8 4.8 4.4
v -3.2 4.8 4.4
v -8 4.8 3.8
v -3.2 4.8 3.8
v -8 5 4.6
v -3.2 5 4.6
v -8 5 4.4
v -3.2 5 4.4
v -7.8 -1.8 3.8
v -3.8 -1.8 3.8
v -2.6 -1.8 3.8
v -0.4 -1.8 3.8
v -8 -1.8 3.6
v -7.8 -1.8 3.6
v -3.8 -1.8 3.6
v -3.4 -1.8 3.6
v -3.2 -1.8 3.6
v -2.6 -1.8 3.6
v -0.4 -1.8 3.6
v -0.2 -1.8 3.6
v -3.4 -1.8 -0.2
v -3.2 -1.8 -0.2
v -3.4 -1.8 -2
v -3.2 -1.8 -2
v -3.2 -1.8 -2.2
v -0.2 -1.8 -2.2
v -8 -1.8 -4
v -3.4 -1.8 -4
v -0.2 1 3.6
v 0 1 3.6
v -3.2 1 -2.2
v -0.2 1 -2.2
v -3.2 1 -2.4
v 0 1 -2.4
v -3.2 1.2 3.8
v 0 1.2 3.8
v -3.2 1.2 3.6
v -0.2 1.2 3.6
v 0 1.2 3.6
v -3.2 1.2 -2.2
v -0.2 1.2 -2.2
v -8 1.6 3.6
v -3.4 1.6 3.6
v -8 1.6 -4
v -3.4 1.6 -4
v -6.3 2.4 3.9
v -3.7 2.4 3.9
v -6.3 2.4 3.8
v -6.2 2.4 3.8
v -5.2 2.4 3.8
v -4.8 2.4 3.8
v -3.8 2.4 3.8
v -3.7 2.4 3.8
v -6.2 2.4 3.6
v -5.2 2.4 3.6
v -4.8 2.4 3.6
v -3.8 2.4 3.6
v -8 5.2 4.6
v -3.2 5.2 4.6
v -8 5.2 -4.2
v -3.2 5.2 -4.2

# faces
f 4/2/1 2/2/1 1/2/1
f 5/1/1 3/1/1 2/1/1
f 5/2/1 2/2/1 4/2/1
f 6/1/1 3/1/1 5/1/1
f 7/1/1 3/1/1 6/1/1
f 8/3/1 5/3/1 4/3/1
f 9/3/1 5/3/1 8/3/1
f 10/3/1 7/3/1 6/3/1
f 11/3/1 7/3/1 10/3/1
f 12/4/1 9/4/1 8/4/1
f 13/4/1 11/4/1 10/4/1
f 14/4/1 12/4/1 8/4/1
f 14/1/1 13/1/1 12/1/1
f 15/4/1 11/4/1 13/4/1
f 15/1/1 13/1/1 14/1/1
f 16/4/1 14/4/1 8/4/1
f 17/4/1 11/4/1 15/4/1
f 19/4/1 16/4/1 8/4/1
f 19/4/1 17/4/1 16/4/1
f 21/4/1 19/4/1 18/4/1
f 22/4/1 11/4/1 17/4/1
f 22/4/1 17/4/1 19/4/1
f 22/4/1 19/4/1 21/4/1
f 23/5/1 21/5/1 20/5/1
f 23/5/1 22/5/1 21/5/1
f 24/5/1 22/5/1 23/5/1
f 27/3/1 26/3/1 25/3/1
f 28/3/1 26/3/1 27/3/1
f 31/4/1 30/4/1 29/4/1
f 32/4/1 30/4/1 31/4/1
f 35/3/1 34/3/1 33/3/1
f 36/3/1 34/3/1 35/3/1
f 37/4/1 36/4/1 35/4/1
f 38/4/1 36/4/1 37/4/1
f 41/4/1 40/4/1 39/4/1
f 42/4/1 40/4/1 41/4/1
f 47/3/1 44/3/1 43/3/1
f 48/3/1 44/3/1 47/3/1
f 49/3/1 46/3/1 45/3/1
f 50/3/1 46/3/1 49/3/1
f 51/4/1 48/4/1 47/4/1
f 52/4/1 50/4/1 49/4/1
f 53/4/1 51/4/1 47/4/1
f 53/4/1 52/4/1 51/4/1
f 54/4/1 50/4/1 52/4/1
f 54/4/1 52/4/1 53/4/1
f 57/4/1 56/4/1 55/4/1
f 58/4/1 56/4/1 57/4/1
f 63/1/1 60/1/1 59/1/1
f 64/1/1 60/1/1 63/1/1
f 65/1/1 62/1/1 61/1/1
f 66/1/1 62/1/1 65/1/1
f 69/3/1 68/3/1 67/3/1
f 70/3/1 68/3/1 69/3/1
f 73/3/1 72/3/1 71/3/1
f 74/3/1 72/3/1 73/3/1
f 77/3/1 76/3/1 75/3/1
f 78/3/1 76/3/1 77/3/1
f 79/4/1 78/4/1 77/4/1
f 80/4/1 78/4/1 79/4/1
f 81/4/1 78/4/1 80/4/1
f 82/5/1 81/5/1 80/5/1
f 83/5/1 81/5/1 82/5/1
f 84/3/2 85/3/2 86/3/2
f 86/3/2 85/3/2 87/3/2
f 86/4/2 87/4/2 88/4/2
f 88/4/2 87/4/2 89/4/2
f 90/4/2 91/4/2 92/4/2
f 92/4/2 91/4/2 93/4/2
f 94/4/2 95/4/2 96/4/2
f 96/4/2 95/4/2 97/4/2
f 98/3/2 99/3/2 100/3/2
f 100/3/2 99/3/2 101/3/2
f 102/1/2 103/1/2 106/1/2
f 106/1/2 103/1/2 107/1/2
f 104/1/2 105/1/2 108/1/2
f 108/1/2 105/1/2 109/1/2
f 110/3/2 111/3/2 116/3/2
f 116/3/2 111/3/2 117/3/2
f 112/3/2 113/3/2 118/3/2
f 118/3/2 113/3/2 119/3/2
f 114/3/2 115/3/2 120/3/2
f 120/3/2 115/3/2 121/3/2
f 116/4/2 117/4/2 122/4/2
f 118/4/2 119/4/2 123/4/2
f 123/4/2 119/4/2 124/4/2
f 122/4/2 123/4/2 124/4/2
f 120/4/2 121/4/2 125/4/2
f 116/4/2 122/4/2 126/4/2
f 122/4/2 124/4/2 126/4/2
f 126/4/2 124/4/2 127/4/2
f 125/4/2 121/4/2 128/4/2
f 127/4/2 128/4/2 131/4/2
f 129/4/2 130/4/2 133/4/2
f 130/4/2 131/4/2 133/4/2
f 132/4/2 133/4/2 135/4/2
f 131/4/2 128/4/2 136/4/2
f 128/4/2 121/4/2 136/4/2
f 135/4/2 133/4/2 136/4/2
f 133/4/2 131/4/2 136/4/2
f 134/5/2 135/5/2 137/5/2
f 135/5/2 136/5/2 137/5/2
f 137/5/2 136/5/2 138/5/2
f 139/3/2 140/3/2 141/3/2
f 141/3/2 140/3/2 142/3/2
f 143/3/2 144/3/2 145/3/2
f 145/3/2 144/3/2 146/3/2
f 147/1/2 148/1/2 149/1/2
f 149/1/2 148/1/2 150/1/2
f 151/5/2 152/5/2 153/5/2
f 153/5/2 152/5/2 154/5/2
f 155/2/2 156/2/2 157/2/2
f 157/2/2 156/2/2 158/2/2
f 157/3/2 158/3/2 160/3/2
f 158/3/2 159/3/2 160/3/2
f 160/3/2 159/3/2 161/3/2
f 160/4/2 161/4/2 162/4/2
f 162/4/2 161/4/2 163/4/2
f 160/4/2 162/4/2 164/4/2
f 162/5/2 163/5/2 164/5/2
f 164/5/2 163/5/2 165/5/2
f 160/4/2 164/4/2 166/4/2
f 166/4/2 164/4/2 167/4/2
f 170/5/3 169/5/3 168/5/3
f 171/5/3 169/5/3 170/5/3
f 174/4/3 173/4/3 172/4/3
f 175/4/3 173/4/3 174/4/3
f 178/3/3 177/3/3 176/3/3
f 179/3/3 177/3/3 178/3/3
f 184/2/3 181/2/3 180/2/3
f 185/3/3 182/3/3 181/3/3
f 185/2/3 181/2/3 184/2/3
f 186/4/3 183/4/3 182/4/3
f 186/3/3 182/3/3 185/3/3
f 187/4/3 183/4/3 186/4/3
f 188/4/3 183/4/3 187/4/3
f 189/4/3 183/4/3 188/4/3
f 190/4/3 183/4/3 189/4/3
f 191/4/3 183/4/3 190/4/3
f 193/4/3 183/4/3 191/4/3
f 194/4/3 193/4/3 192/4/3
f 195/4/3 183/4/3 193/4/3
f 195/4/3 193/4/3 194/4/3
f 196/1/3 185/1/3 184/1/3
f 197/1/3 185/1/3 196/1/3
f 199/4/3 188/4/3 187/4/3
f 201/4/3 183/4/3 195/4/3
f 202/4/3 199/4/3 198/4/3
f 202/4/3 188/4/3 199/4/3
f 203/4/3 201/4/3 200/4/3
f 204/4/3 202/4/3 198/4/3
f 204/4/3 203/4/3 202/4/3
f 205/4/3 201/4/3 203/4/3
f 205/4/3 203/4/3 204/4/3
f 205/4/3 183/4/3 201/4/3
f 206/4/3 204/4/3 198/4/3
f 206/3/3 198/3/3 197/3/3
f 207/4/3 204/4/3 206/4/3
f 208/2/3 197/2/3 196/2/3
f 209/3/3 206/3/3 197/3/3
f 209/2/3 197/2/3 208/2/3
f 209/3/3 207/3/3 206/3/3
f 210/4/3 204/4/3 207/4/3
f 210/3/3 207/3/3 209/3/3
f 211/4/3 204/4/3 210/4/3
f 212/3/3 211/3/3 210/3/3
f 213/4/3 204/4/3 211/4/3
f 213/3/3 211/3/3 212/3/3
f 214/4/3 204/4/3 213/4/3
f 216/3/3 214/3/3 213/3/3
f 217/4/3 204/4/3 214/4/3
f 217/3/3 214/3/3 216/3/3
f 218/1/3 209/1/3 208/1/3
f 219/1/3 209/1/3 218/1/3
f 220/3/3 216/3/3 215/3/3
f 221/4/3 217/4/3 216/4/3
f 221/3/3 216/3/3 220/3/3
f 222/3/3 220/3/3 219/3/3
f 223/4/3 221/4/3 220/4/3
f 223/3/3 220/3/3 222/3/3
f 224/2/3 219/2/3 218/2/3
f 225/3/3 222/3/3 219/3/3
f 225/2/3 219/2/3 224/2/3
f 226/4/3 223/4/3 222/4/3
f 226/3/3 222/3/3 225/3/3
f 227/4/3 204/4/3 217/4/3
f 227/4/3 223/4/3 226/4/3
f 227/4/3 221/4/3 223/4/3
f 227/4/3 217/4/3 221/4/3
f 230/1/3 229/1/3 228/1/3
f 231/1/3 229/1/3 230/1/3
f 235/3/3 233/3/3 232/3/3
f 236/4/3 234/4/3 233/4/3
f 236/3/3 233/3/3 235/3/3
f 237/4/3 234/4/3 236/4/3
f 242/3/3 239/3/3 238/3/3
f 243/4/3 240/4/3 239/4/3
f 243/3/3 239/3/3 242/3/3
f 244/5/3 241/5/3 240/5/3
f 244/4/3 240/4/3 243/4/3
f 245/5/3 241/5/3 244/5/3
f 251/3/3 247/3/3 246/3/3
f 252/4/3 248/4/3 247/4/3
f 252/3/3 247/3/3 251/3/3
f 253/4/3 248/4/3 252/4/3
f 254/4/3 250/4/3 249/4/3
f 255/4/3 250/4/3 254/4/3
f 256/3/4 257/3/4 261/3/4
f 257/4/4 258/4/4 262/4/4
f 261/3/4 257/3/4 262/3/4
f 262/4/4 258/4/4 263/4/4
f 259/4/4 260/4/4 264/4/4
f 264/4/4 260/4/4 265/4/4
f 259/4/4 264/4/4 266/4/4
f 265/4/4 260/4/4 267/4/4
f 259/4/4 266/4/4 268/4/4
f 266/4/4 267/4/4 268/4/4
f 267/4/4 260/4/4 269/4/4
f 268/4/4 267/4/4 269/4/4
f 263/4/4 258/4/4 272/4/4
f 259/4/4 268/4/4 273/4/4
f 269/4/4 260/4/4 274/4/4
f 270/3/4 271/3/4 275/3/4
f 271/4/4 272/4/4 276/4/4
f 275/3/4 271/3/4 276/3/4
f 272/4/4 258/4/4 277/4/4
f 276/4/4 272/4/4 277/4/4
f 273/4/4 274/4/4 278/4/4
f 259/4/4 273/4/4 278/4/4
f 274/4/4 260/4/4 279/4/4
f 278/4/4 274/4/4 279/4/4
f 280/3/4 281/3/4 283/3/4
f 281/4/4 282/4/4 283/4/4
f 283/4/4 282/4/4 284/4/4
f 280/3/4 283/3/4 285/3/4
f 283/3/4 284/3/4 285/3/4
f 284/4/4 282/4/4 286/4/4
f 285/3/4 284/3/4 286/3/4
f 286/4/4 282/4/4 287/4/4
f 286/3/4 287/3/4 288/3/4
f 287/4/4 282/4/4 289/4/4
f 288/3/4 287/3/4 289/3/4
f 289/4/4 282/4/4 290/4/4
f 289/3/4 290/3/4 292/3/4
f 292/3/4 290/3/4 293/3/4
f 291/3/4 292/3/4 295/3/4
f 292/4/4 293/4/4 296/4/4
f 295/3/4 292/3/4 296/3/4
f 294/3/4 295/3/4 297/3/4
f 297/3/4 295/3/4 298/3/4
f 295/4/4 296/4/4 299/4/4
f 298/3/4 295/3/4 299/3/4
f 296/4/4 293/4/4 300/4/4
f 299/4/4 296/4/4 300/4/4
f 300/4/4 293/4/4 301/4/4
f 301/4/4 302/4/4 303/4/4
f 303/4/4 302/4/4 304/4/4
f 305/2/4 306/2/4 307/2/4
f 307/2/4 306/2/4 308/2/4
f 309/2/4 310/2/4 311/2/4
f 311/2/4 310/2/4 312/2/4
f 313/3/4 314/3/4 316/3/4
f 314/4/4 315/4/4 317/4/4
f 316/3/4 314/3/4 317/3/4
f 317/4/4 315/4/4 318/4/4
f 319/1/4 320/1/4 321/1/4
f 321/1/4 320/1/4 322/1/4
f 323/1/4 324/1/4 327/1/4
f 327/1/4 324/1/4 328/1/4
f 325/5/4 326/5/4 329/5/4
f 329/5/4 326/5/4 330/5/4
f 331/3/4 332/3/4 335/3/4
f 332/4/4 333/4/4 336/4/4
f 335/3/4 332/3/4 336/3/4
f 333/5/4 334/5/4 337/5/4
f 336/4/4 333/4/4 337/4/4
f 337/5/4 334/5/4 338/5/4
f 339/1/4 340/1/4 344/1/4
f 340/3/4 341/3/4 345/3/4
f 344/1/4 340/1/4 345/1/4
f 345/3/4 341/3/4 346/3/4
f 341/4/4 342/4/4 347/4/4
f 346/3/4 341/3/4 347/3/4
f 342/5/4 343/5/4 348/5/4
f 347/4/4 342/4/4 348/4/4
f 348/5/4 343/5/4 349/5/4
f 356/2/5 351/2/5 350/2/5
f 357/1/5 352/1/5 351/1/5
f 357/2/5 351/2/5 356/2/5
f 358/2/5 353/2/5 352/2/5
f 358/1/5 352/1/5 357/1/5
f 359/2/5 353/2/5 358/2/5
f 360/2/5 353/2/5 359/2/5
f 361/1/5 354/1/5 353/1/5
f 361/2/5 353/2/5 360/2/5
f 362/2/5 355/2/5 354/2/5
f 362/1/5 354/1/5 361/1/5
f 363/2/5 355/2/5 362/2/5
f 364/1/5 357/1/5 356/1/5
f 364/2/5 360/2/5 359/2/5
f 364/1/5 358/1/5 357/1/5
f 364/1/5 359/1/5 358/1/5
f 365/1/5 361/1/5 360/1/5
f 365/2/5 360/2/5 364/2/5
f 365/1/5 363/1/5 362/1/5
f 365/1/5 362/1/5 361/1/5
f 366/2/5 355/2/5 363/2/5
f 366/1/5 363/1/5 365/1/5
f 367/2/5 355/2/5 366/2/5
f 368/1/5 364/1/5 356/1/5
f 369/1/5 366/1/5 365/1/5
f 370/1/5 368/1/5 356/1/5
f 370/1/5 369/1/5 368/1/5
f 371/1/5 366/1/5 369/1/5
f 371/1/5 369/1/5 370/1/5
f 372/1/5 366/1/5 371/1/5
f 373/1/5 366/1/5 372/1/5
f 374/1/5 370/1/5 356/1/5
f 375/1/5 370/1/5 374/1/5
f 380/3/5 377/3/5 376/3/5
f 381/3/5 377/3/5 380/3/5
f 384/3/5 383/3/5 382/3/5
f 385/3/5 379/3/5 378/3/5
f 386/3/5 384/3/5 382/3/5
f 386/3/5 385/3/5 384/3/5
f 387/3/5 379/3/5 385/3/5
f 387/3/5 385/3/5 386/3/5
f 388/3/5 386/3/5 382/3/5
f 389/3/5 386/3/5 388/3/5
f 394/3/5 391/3/5 390/3/5
f 395/3/5 391/3/5 394/3/5
f 396/3/5 393/3/5 392/3/5
f 397/3/5 393/3/5 396/3/5
f 400/4/5 399/4/5 398/4/5
f 401/4/5 399/4/5 400/4/5
f 404/3/5 403/3/5 402/3/5
f 405/3/5 403/3/5 404/3/5
f 410/5/5 407/5/5 406/5/5
f 410/5/5 409/5/5 408/5/5
f 410/5/5 408/5/5 407/5/5
f 411/5/5 409/5/5 410/5/5
f 414/4/5 413/4/5 412/4/5
f 415/4/5 413/4/5 414/4/5
f 418/1/5 417/1/5 416/1/5
f 419/1/5 417/1/5 418/1/5
f 422/3/5 421/3/5 420/3/5
f 423/3/5 421/3/5 422/3/5
f 428/4/5 425/4/5 424/4/5
f 429/4/5 425/4/5 428/4/5
f 430/4/5 427/4/5 426/4/5
f 431/4/5 427/4/5 430/4/5
f 434/4/5 433/4/5 432/4/5
f 435/4/5 433/4/5 434/4/5
f 438/4/5 437/4/5 436/4/5
f 439/4/5 437/4/5 438/4/5
f 442/5/5 441/5/5 440/5/5
f 443/5/5 441/5/5 442/5/5
f 444/1/6 445/1/6 449/1/6
f 449/1/6 445/1/6 450/1/6
f 446/1/6 447/1/6 453/1/6
f 453/1/6 447/1/6 454/1/6
f 450/1/6 451/1/6 456/1/6
f 448/1/6 449/1/6 456/1/6
f 449/1/6 450/1/6 456/1/6
f 454/1/6 455/1/6 457/1/6
f 453/1/6 454/1/6 457/1/6
f 452/1/6 453/1/6 457/1/6
f 448/1/6 456/1/6 458/1/6
f 456/1/6 457/1/6 458/1/6
f 457/1/6 455/1/6 459/1/6
f 458/1/6 457/1/6 459/1/6
f 459/1/6 455/1/6 460/1/6
f 460/1/6 455/1/6 461/1/6
f 448/1/6 458/1/6 462/1/6
f 462/1/6 458/1/6 463/1/6
f 464/5/6 465/5/6 467/5/6
f 466/5/6 467/5/6 468/5/6
f 467/5/6 465/5/6 469/5/6
f 468/5/6 467/5/6 469/5/6
f 470/4/6 471/4/6 472/4/6
f 472/4/6 471/4/6 473/4/6
f 473/4/6 471/4/6 474/4/6
f 472/5/6 473/5/6 475/5/6
f 475/5/6 473/5/6 476/5/6
f 477/1/6 478/1/6 479/1/6
f 479/1/6 478/1/6 480/1/6
f 481/3/6 482/3/6 483/3/6
f 483/3/6 482/3/6 484/3/6
f 484/3/6 482/3/6 485/3/6
f 485/3/6 482/3/6 486/3/6
f 486/3/6 482/3/6 487/3/6
f 487/3/6 482/3/6 488/3/6
f 484/4/6 485/4/6 489/4/6
f 489/4/6 485/4/6 490/4/6
f 486/4/6 487/4/6 491/4/6
f 491/4/6 487/4/6 492/4/6
f 493/5/6 494/5/6 495/5/6
f 495/5/6 494/5/6 496/5/6
