# MagicaVoxel @ Ephtracy

# group
o 

# material
mtllib Atletics tende.mtl
usemtl palette

# normals
vn -1 0 0
vn 1 0 0
vn 0 0 1
vn 0 0 -1
vn 0 -1 0
vn 0 1 0

# texcoords
vt 0.908203 0.5
vt 0.912109 0.5

# verts
v -3.4 -0.4 3.9
v -3.4 -0.4 3.7
v -3.4 -0.3 3.9
v -3.4 -0.3 3.8
v -3.4 -0.2 3.8
v -3.4 -0.2 3.7
v -3.4 4.6 3.9
v -3.4 4.6 3.8
v -3.4 4.7 3.8
v -3.4 4.7 3.7
v -3.4 4.8 3.9
v -3.4 4.8 3.8
v -3.4 4.9 3.8
v -3.4 4.9 3.7
v -1 -0.2 3.9
v -1 -0.2 3.7
v -1 -0.1 3.9
v -1 -0.1 3.8
v -1 0 3.8
v -1 0 3.7
v 1.2 -0.4 3.9
v 1.2 -0.4 3.7
v 1.2 -0.3 3.9
v 1.2 -0.3 3.8
v 1.2 -0.2 3.8
v 1.2 -0.2 3.7
v -1.2 -0.4 3.9
v -1.2 -0.4 3.7
v -1.2 -0.3 3.9
v -1.2 -0.3 3.8
v -1.2 -0.2 3.8
v -1.2 -0.2 3.7
v -0.2 4.6 3.9
v -0.2 4.6 3.8
v -0.2 4.7 3.8
v -0.2 4.7 3.7
v -0.2 4.8 3.9
v -0.2 4.8 3.8
v -0.2 4.9 3.8
v -0.2 4.9 3.7
v 1 -0.2 3.9
v 1 -0.2 3.7
v 1 -0.1 3.9
v 1 -0.1 3.8
v 1 0 3.8
v 1 0 3.7
v 3.4 -0.4 3.9
v 3.4 -0.4 3.7
v 3.4 -0.3 3.9
v 3.4 -0.3 3.8
v 3.4 -0.2 3.8
v 3.4 -0.2 3.7
v -3.4 -0.4 3.9
v -3.4 -0.3 3.9
v -3.4 4.6 3.9
v -3.4 4.8 3.9
v -1.2 -0.4 3.9
v -1.2 -0.3 3.9
v -1 -0.2 3.9
v -1 -0.1 3.9
v -0.2 4.6 3.9
v -0.2 4.8 3.9
v 1 -0.2 3.9
v 1 -0.1 3.9
v 1.2 -0.4 3.9
v 1.2 -0.3 3.9
v 3.4 -0.4 3.9
v 3.4 -0.3 3.9
v -3.4 -0.3 3.8
v -3.4 -0.2 3.8
v -3.4 4.8 3.8
v -3.4 4.9 3.8
v -1.2 -0.3 3.8
v -1.2 -0.2 3.8
v -1 -0.1 3.8
v -1 0 3.8
v -0.2 4.8 3.8
v -0.2 4.9 3.8
v 1 -0.1 3.8
v 1 0 3.8
v 1.2 -0.3 3.8
v 1.2 -0.2 3.8
v 3.4 -0.3 3.8
v 3.4 -0.2 3.8
v -3.4 4.6 3.8
v -3.4 4.7 3.8
v -0.2 4.6 3.8
v -0.2 4.7 3.8
v -3.4 -0.4 3.7
v -3.4 -0.2 3.7
v -3.4 4.7 3.7
v -3.4 4.9 3.7
v -1.2 -0.4 3.7
v -1.2 -0.2 3.7
v -1 -0.2 3.7
v -1 0 3.7
v -0.2 4.7 3.7
v -0.2 4.9 3.7
v 1 -0.2 3.7
v 1 0 3.7
v 1.2 -0.4 3.7
v 1.2 -0.2 3.7
v 3.4 -0.4 3.7
v 3.4 -0.2 3.7
v -3.4 -0.4 3.9
v -1.2 -0.4 3.9
v 1.2 -0.4 3.9
v 3.4 -0.4 3.9
v -3.4 -0.4 3.7
v -1.2 -0.4 3.7
v 1.2 -0.4 3.7
v 3.4 -0.4 3.7
v -1 -0.2 3.9
v 1 -0.2 3.9
v -1 -0.2 3.7
v 1 -0.2 3.7
v -3.4 4.6 3.9
v -0.2 4.6 3.9
v -3.4 4.6 3.8
v -0.2 4.6 3.8
v -3.4 4.7 3.8
v -0.2 4.7 3.8
v -3.4 4.7 3.7
v -0.2 4.7 3.7
v -3.4 -0.3 3.9
v -1.2 -0.3 3.9
v 1.2 -0.3 3.9
v 3.4 -0.3 3.9
v -3.4 -0.3 3.8
v -1.2 -0.3 3.8
v 1.2 -0.3 3.8
v 3.4 -0.3 3.8
v -3.4 -0.2 3.8
v -1.2 -0.2 3.8
v 1.2 -0.2 3.8
v 3.4 -0.2 3.8
v -3.4 -0.2 3.7
v -1.2 -0.2 3.7
v 1.2 -0.2 3.7
v 3.4 -0.2 3.7
v -1 -0.1 3.9
v 1 -0.1 3.9
v -1 -0.1 3.8
v 1 -0.1 3.8
v -1 0 3.8
v 1 0 3.8
v -1 0 3.7
v 1 0 3.7
v -3.4 4.8 3.9
v -0.2 4.8 3.9
v -3.4 4.8 3.8
v -0.2 4.8 3.8
v -3.4 4.9 3.8
v -0.2 4.9 3.8
v -3.4 4.9 3.7
v -0.2 4.9 3.7

# faces
f 3/2/1 2/2/1 1/2/1
f 4/2/1 2/2/1 3/2/1
f 5/2/1 2/2/1 4/2/1
f 6/2/1 2/2/1 5/2/1
f 9/1/1 8/1/1 7/1/1
f 11/1/1 9/1/1 7/1/1
f 11/1/1 10/1/1 9/1/1
f 12/1/1 10/1/1 11/1/1
f 13/1/1 10/1/1 12/1/1
f 14/1/1 10/1/1 13/1/1
f 17/2/1 16/2/1 15/2/1
f 18/2/1 16/2/1 17/2/1
f 19/2/1 16/2/1 18/2/1
f 20/2/1 16/2/1 19/2/1
f 23/2/1 22/2/1 21/2/1
f 24/2/1 22/2/1 23/2/1
f 25/2/1 22/2/1 24/2/1
f 26/2/1 22/2/1 25/2/1
f 27/2/2 28/2/2 29/2/2
f 29/2/2 28/2/2 30/2/2
f 30/2/2 28/2/2 31/2/2
f 31/2/2 28/2/2 32/2/2
f 33/1/2 34/1/2 35/1/2
f 33/1/2 35/1/2 37/1/2
f 35/1/2 36/1/2 37/1/2
f 37/1/2 36/1/2 38/1/2
f 38/1/2 36/1/2 39/1/2
f 39/1/2 36/1/2 40/1/2
f 41/2/2 42/2/2 43/2/2
f 43/2/2 42/2/2 44/2/2
f 44/2/2 42/2/2 45/2/2
f 45/2/2 42/2/2 46/2/2
f 47/2/2 48/2/2 49/2/2
f 49/2/2 48/2/2 50/2/2
f 50/2/2 48/2/2 51/2/2
f 51/2/2 48/2/2 52/2/2
f 57/2/3 54/2/3 53/2/3
f 58/2/3 54/2/3 57/2/3
f 61/1/3 56/1/3 55/1/3
f 62/1/3 56/1/3 61/1/3
f 63/2/3 60/2/3 59/2/3
f 64/2/3 60/2/3 63/2/3
f 67/2/3 66/2/3 65/2/3
f 68/2/3 66/2/3 67/2/3
f 73/2/3 70/2/3 69/2/3
f 74/2/3 70/2/3 73/2/3
f 77/1/3 72/1/3 71/1/3
f 78/1/3 72/1/3 77/1/3
f 79/2/3 76/2/3 75/2/3
f 80/2/3 76/2/3 79/2/3
f 83/2/3 82/2/3 81/2/3
f 84/2/3 82/2/3 83/2/3
f 85/1/4 86/1/4 87/1/4
f 87/1/4 86/1/4 88/1/4
f 89/2/4 90/2/4 93/2/4
f 93/2/4 90/2/4 94/2/4
f 91/1/4 92/1/4 97/1/4
f 97/1/4 92/1/4 98/1/4
f 95/2/4 96/2/4 99/2/4
f 99/2/4 96/2/4 100/2/4
f 101/2/4 102/2/4 103/2/4
f 103/2/4 102/2/4 104/2/4
f 109/2/5 106/2/5 105/2/5
f 110/2/5 106/2/5 109/2/5
f 111/2/5 108/2/5 107/2/5
f 112/2/5 108/2/5 111/2/5
f 115/2/5 114/2/5 113/2/5
f 116/2/5 114/2/5 115/2/5
f 119/1/5 118/1/5 117/1/5
f 120/1/5 118/1/5 119/1/5
f 123/1/5 122/1/5 121/1/5
f 124/1/5 122/1/5 123/1/5
f 125/2/6 126/2/6 129/2/6
f 129/2/6 126/2/6 130/2/6
f 127/2/6 128/2/6 131/2/6
f 131/2/6 128/2/6 132/2/6
f 133/2/6 134/2/6 137/2/6
f 137/2/6 134/2/6 138/2/6
f 135/2/6 136/2/6 139/2/6
f 139/2/6 136/2/6 140/2/6
f 141/2/6 142/2/6 143/2/6
f 143/2/6 142/2/6 144/2/6
f 145/2/6 146/2/6 147/2/6
f 147/2/6 146/2/6 148/2/6
f 149/1/6 150/1/6 151/1/6
f 151/1/6 150/1/6 152/1/6
f 153/1/6 154/1/6 155/1/6
f 155/1/6 154/1/6 156/1/6
