# MagicaVoxel @ Ephtracy

# group
o 

# material
mtllib baeto 2.0 metallo1.mtl
usemtl palette

# normals
vn -1 0 0
vn 1 0 0
vn 0 0 1
vn 0 0 -1
vn 0 -1 0
vn 0 1 0

# texcoords
vt 0.939453 0.5
vt 0.947266 0.5
vt 0.978516 0.5

# verts
v -8 9.5 7.7
v -8 9.5 7.3
v -8 9.9 7.7
v -8 9.9 7.3
v -3.2 -0.5 7.3
v -3.2 -0.5 6.9
v -3.2 1.1 7.3
v -3.2 1.1 6.9
v -3.2 4.7 7.3
v -3.2 4.7 6.9
v -3.2 6.3 7.3
v -3.2 6.3 6.9
v -1.9 -0.5 7.3
v -1.9 -0.5 6.9
v -1.9 0.7 7.3
v -1.9 0.7 6.9
v -1.9 4.7 7.3
v -1.9 4.7 6.9
v -1.9 5.9 7.3
v -1.9 5.9 6.9
v -0.7 -0.5 7.3
v -0.7 -0.5 6.9
v -0.7 0.7 7.3
v -0.7 0.7 6.9
v -0.7 4.7 7.3
v -0.7 4.7 6.9
v -0.7 5.9 7.3
v -0.7 5.9 6.9
v 0.5 -0.5 7.3
v 0.5 -0.5 6.9
v 0.5 0.7 7.3
v 0.5 0.7 6.9
v 0.5 4.7 7.3
v 0.5 4.7 6.9
v 0.5 5.9 7.3
v 0.5 5.9 6.9
v 1.7 -0.5 7.3
v 1.7 -0.5 6.9
v 1.7 0.7 7.3
v 1.7 0.7 6.9
v 1.7 4.7 7.3
v 1.7 4.7 6.9
v 1.7 5.9 7.3
v 1.7 5.9 6.9
v 1.8 -6.5 6.9
v 1.8 -6.5 5.9
v 1.8 -6.4 6.9
v 1.8 -6.4 5.9
v 2 5.9 7.3
v 2 5.9 7.1
v 2 6.1 7.3
v 2 6.1 7.1
v 2.4 -5.1 5.7
v 2.4 -5.1 5.5
v 2.4 -4.7 5.7
v 2.4 -4.7 5.5
v 2.4 -4.7 5.3
v 2.4 -4.3 5.5
v 2.4 -4.3 5.3
v 2.4 -4.3 5.1
v 2.4 -3.9 5.3
v 2.4 -3.9 5.1
v 2.4 -3.9 4.9
v 2.4 -3.7 5.1
v 2.4 -3.7 4.9
v 2.9 -0.5 7.3
v 2.9 -0.5 6.9
v 2.9 0.7 7.3
v 2.9 0.7 6.9
v 2.9 4.7 7.3
v 2.9 4.7 6.9
v 2.9 5.9 7.3
v 2.9 5.9 6.9
v 4.1 -0.5 7.3
v 4.1 -0.5 6.9
v 4.1 0.7 7.3
v 4.1 0.7 6.9
v 4.1 4.7 7.3
v 4.1 4.7 6.9
v 4.1 5.9 7.3
v 4.1 5.9 6.9
v 4.4 -4.9 5.7
v 4.4 -4.9 5.5
v 4.4 -4.7 5.7
v 4.4 -4.7 5.5
v 4.4 -4.7 5.3
v 4.4 -4.3 5.5
v 4.4 -4.3 5.3
v 4.4 -4.3 5.1
v 4.4 -3.9 5.3
v 4.4 -3.9 5.1
v 5.4 -0.5 7.3
v 5.4 -0.5 6.9
v 5.4 0.7 7.3
v 5.4 0.7 6.9
v 5.4 4.7 7.3
v 5.4 4.7 6.9
v 5.4 5.9 7.3
v 5.4 5.9 6.9
v -3 4.7 7.3
v -3 4.7 6.9
v -3 5.9 7.3
v -3 5.9 6.9
v -2.9 -0.5 7.3
v -2.9 -0.5 6.9
v -2.9 0.7 7.3
v -2.9 0.7 6.9
v -1.7 -0.5 7.3
v -1.7 -0.5 6.9
v -1.7 0.7 7.3
v -1.7 0.7 6.9
v -1.7 4.7 7.3
v -1.7 4.7 6.9
v -1.7 5.9 7.3
v -1.7 5.9 6.9
v -0.5 -0.5 7.3
v -0.5 -0.5 6.9
v -0.5 0.7 7.3
v -0.5 0.7 6.9
v -0.5 4.7 7.3
v -0.5 4.7 6.9
v -0.5 5.9 7.3
v -0.5 5.9 6.9
v 0.7 -0.5 7.3
v 0.7 -0.5 6.9
v 0.7 0.7 7.3
v 0.7 0.7 6.9
v 0.7 4.7 7.3
v 0.7 4.7 6.9
v 0.7 5.9 7.3
v 0.7 5.9 6.9
v 1.8 5.3 7.3
v 1.8 5.3 7.1
v 1.8 6.1 7.3
v 1.8 6.1 7.1
v 1.9 -0.5 7.3
v 1.9 -0.5 6.9
v 1.9 0.7 7.3
v 1.9 0.7 6.9
v 1.9 4.7 7.3
v 1.9 4.7 6.9
v 1.9 5.3 7.3
v 1.9 5.3 7.1
v 1.9 5.9 7.1
v 1.9 5.9 6.9
v 2.6 -4.9 5.7
v 2.6 -4.9 5.5
v 2.6 -4.7 5.7
v 2.6 -4.7 5.5
v 2.6 -4.7 5.3
v 2.6 -4.3 5.5
v 2.6 -4.3 5.3
v 2.6 -4.3 5.1
v 2.6 -3.9 5.3
v 2.6 -3.9 5.1
v 3.1 -0.5 7.3
v 3.1 -0.5 6.9
v 3.1 0.7 7.3
v 3.1 0.7 6.9
v 3.1 4.7 7.3
v 3.1 4.7 6.9
v 3.1 5.9 7.3
v 3.1 5.9 6.9
v 4.3 -0.5 7.3
v 4.3 -0.5 6.9
v 4.3 0.7 7.3
v 4.3 0.7 6.9
v 4.3 4.7 7.3
v 4.3 4.7 6.9
v 4.3 5.9 7.3
v 4.3 5.9 6.9
v 4.6 -5.1 5.7
v 4.6 -5.1 5.5
v 4.6 -4.7 5.7
v 4.6 -4.7 5.5
v 4.6 -4.7 5.3
v 4.6 -4.3 5.5
v 4.6 -4.3 5.3
v 4.6 -4.3 5.1
v 4.6 -3.9 5.3
v 4.6 -3.9 5.1
v 4.6 -3.9 4.9
v 4.6 -3.7 5.1
v 4.6 -3.7 4.9
v 5.1 -6.5 6.9
v 5.1 -6.5 5.9
v 5.1 -6.4 6.9
v 5.1 -6.4 5.9
v 5.6 -0.5 7.3
v 5.6 -0.5 6.9
v 5.6 1.1 7.3
v 5.6 1.1 6.9
v 5.6 4.7 7.3
v 5.6 4.7 6.9
v 5.6 6.3 7.3
v 5.6 6.3 6.9
v 8 9.5 7.7
v 8 9.5 7.3
v 8 9.9 7.7
v 8 9.9 7.3
v -8 9.5 7.7
v -8 9.9 7.7
v 8 9.5 7.7
v 8 9.9 7.7
v -3.2 -0.5 7.3
v -3.2 1.1 7.3
v -3.2 4.7 7.3
v -3.2 6.3 7.3
v -3 4.7 7.3
v -3 5.9 7.3
v -2.9 -0.5 7.3
v -2.9 0.7 7.3
v -1.9 -0.5 7.3
v -1.9 0.7 7.3
v -1.9 4.7 7.3
v -1.9 5.9 7.3
v -1.7 -0.5 7.3
v -1.7 0.7 7.3
v -1.7 4.7 7.3
v -1.7 5.9 7.3
v -0.7 -0.5 7.3
v -0.7 0.7 7.3
v -0.7 4.7 7.3
v -0.7 5.9 7.3
v -0.5 -0.5 7.3
v -0.5 0.7 7.3
v -0.5 4.7 7.3
v -0.5 5.9 7.3
v 0.5 -0.5 7.3
v 0.5 0.7 7.3
v 0.5 4.7 7.3
v 0.5 5.9 7.3
v 0.7 -0.5 7.3
v 0.7 0.7 7.3
v 0.7 4.7 7.3
v 0.7 5.9 7.3
v 1.7 -0.5 7.3
v 1.7 0.7 7.3
v 1.7 4.7 7.3
v 1.7 5.9 7.3
v 1.8 5.3 7.3
v 1.8 6.1 7.3
v 1.9 -0.5 7.3
v 1.9 0.7 7.3
v 1.9 4.7 7.3
v 1.9 5.3 7.3
v 2 5.9 7.3
v 2 6.1 7.3
v 2.9 -0.5 7.3
v 2.9 0.7 7.3
v 2.9 4.7 7.3
v 2.9 5.9 7.3
v 3.1 -0.5 7.3
v 3.1 0.7 7.3
v 3.1 4.7 7.3
v 3.1 5.9 7.3
v 4.1 -0.5 7.3
v 4.1 0.7 7.3
v 4.1 4.7 7.3
v 4.1 5.9 7.3
v 4.3 -0.5 7.3
v 4.3 0.7 7.3
v 4.3 4.7 7.3
v 4.3 5.9 7.3
v 5.4 -0.5 7.3
v 5.4 0.7 7.3
v 5.4 4.7 7.3
v 5.4 5.9 7.3
v 5.6 -0.5 7.3
v 5.6 1.1 7.3
v 5.6 4.7 7.3
v 5.6 6.3 7.3
v 1.8 5.3 7.1
v 1.8 6.1 7.1
v 1.9 5.3 7.1
v 1.9 5.9 7.1
v 2 5.9 7.1
v 2 6.1 7.1
v 1.8 -6.5 6.9
v 1.8 -6.4 6.9
v 5.1 -6.5 6.9
v 5.1 -6.4 6.9
v 2.4 -5.1 5.7
v 2.4 -4.7 5.7
v 2.6 -4.9 5.7
v 2.6 -4.7 5.7
v 4.4 -4.9 5.7
v 4.4 -4.7 5.7
v 4.6 -5.1 5.7
v 4.6 -4.7 5.7
v 2.4 -4.7 5.5
v 2.4 -4.3 5.5
v 2.6 -4.7 5.5
v 2.6 -4.3 5.5
v 4.4 -4.7 5.5
v 4.4 -4.3 5.5
v 4.6 -4.7 5.5
v 4.6 -4.3 5.5
v 2.4 -4.3 5.3
v 2.4 -3.9 5.3
v 2.6 -4.3 5.3
v 2.6 -3.9 5.3
v 4.4 -4.3 5.3
v 4.4 -3.9 5.3
v 4.6 -4.3 5.3
v 4.6 -3.9 5.3
v 2.4 -3.9 5.1
v 2.4 -3.7 5.1
v 2.6 -3.9 5.1
v 4.4 -3.9 5.1
v 4.6 -3.9 5.1
v 4.6 -3.7 5.1
v -8 9.5 7.3
v -8 9.9 7.3
v 8 9.5 7.3
v 8 9.9 7.3
v -3.2 -0.5 6.9
v -3.2 1.1 6.9
v -3.2 4.7 6.9
v -3.2 6.3 6.9
v -3 4.7 6.9
v -3 5.9 6.9
v -2.9 -0.5 6.9
v -2.9 0.7 6.9
v -1.9 -0.5 6.9
v -1.9 0.7 6.9
v -1.9 4.7 6.9
v -1.9 5.9 6.9
v -1.7 -0.5 6.9
v -1.7 0.7 6.9
v -1.7 4.7 6.9
v -1.7 5.9 6.9
v -0.7 -0.5 6.9
v -0.7 0.7 6.9
v -0.7 4.7 6.9
v -0.7 5.9 6.9
v -0.5 -0.5 6.9
v -0.5 0.7 6.9
v -0.5 4.7 6.9
v -0.5 5.9 6.9
v 0.5 -0.5 6.9
v 0.5 0.7 6.9
v 0.5 4.7 6.9
v 0.5 5.9 6.9
v 0.7 -0.5 6.9
v 0.7 0.7 6.9
v 0.7 4.7 6.9
v 0.7 5.9 6.9
v 1.7 -0.5 6.9
v 1.7 0.7 6.9
v 1.7 4.7 6.9
v 1.7 5.9 6.9
v 1.9 -0.5 6.9
v 1.9 0.7 6.9
v 1.9 4.7 6.9
v 1.9 5.9 6.9
v 2.9 -0.5 6.9
v 2.9 0.7 6.9
v 2.9 4.7 6.9
v 2.9 5.9 6.9
v 3.1 -0.5 6.9
v 3.1 0.7 6.9
v 3.1 4.7 6.9
v 3.1 5.9 6.9
v 4.1 -0.5 6.9
v 4.1 0.7 6.9
v 4.1 4.7 6.9
v 4.1 5.9 6.9
v 4.3 -0.5 6.9
v 4.3 0.7 6.9
v 4.3 4.7 6.9
v 4.3 5.9 6.9
v 5.4 -0.5 6.9
v 5.4 0.7 6.9
v 5.4 4.7 6.9
v 5.4 5.9 6.9
v 5.6 -0.5 6.9
v 5.6 1.1 6.9
v 5.6 4.7 6.9
v 5.6 6.3 6.9
v 1.8 -6.5 5.9
v 1.8 -6.4 5.9
v 5.1 -6.5 5.9
v 5.1 -6.4 5.9
v 2.4 -5.1 5.5
v 2.4 -4.7 5.5
v 2.6 -4.9 5.5
v 2.6 -4.7 5.5
v 4.4 -4.9 5.5
v 4.4 -4.7 5.5
v 4.6 -5.1 5.5
v 4.6 -4.7 5.5
v 2.4 -4.7 5.3
v 2.4 -4.3 5.3
v 2.6 -4.7 5.3
v 2.6 -4.3 5.3
v 4.4 -4.7 5.3
v 4.4 -4.3 5.3
v 4.6 -4.7 5.3
v 4.6 -4.3 5.3
v 2.4 -4.3 5.1
v 2.4 -3.9 5.1
v 2.6 -4.3 5.1
v 2.6 -3.9 5.1
v 4.4 -4.3 5.1
v 4.4 -3.9 5.1
v 4.6 -4.3 5.1
v 4.6 -3.9 5.1
v 2.4 -3.9 4.9
v 2.4 -3.7 4.9
v 4.6 -3.9 4.9
v 4.6 -3.7 4.9
v 1.8 -6.5 6.9
v 5.1 -6.5 6.9
v 1.8 -6.5 5.9
v 5.1 -6.5 5.9
v 2.4 -5.1 5.7
v 4.6 -5.1 5.7
v 2.4 -5.1 5.5
v 4.6 -5.1 5.5
v 2.4 -4.7 5.5
v 2.6 -4.7 5.5
v 4.4 -4.7 5.5
v 4.6 -4.7 5.5
v 2.4 -4.7 5.3
v 2.6 -4.7 5.3
v 4.4 -4.7 5.3
v 4.6 -4.7 5.3
v 2.4 -4.3 5.3
v 2.6 -4.3 5.3
v 4.4 -4.3 5.3
v 4.6 -4.3 5.3
v 2.4 -4.3 5.1
v 2.6 -4.3 5.1
v 4.4 -4.3 5.1
v 4.6 -4.3 5.1
v 2.4 -3.9 5.1
v 2.6 -3.9 5.1
v 4.4 -3.9 5.1
v 4.6 -3.9 5.1
v 2.4 -3.9 4.9
v 4.6 -3.9 4.9
v -3.2 -0.5 7.3
v -2.9 -0.5 7.3
v -1.9 -0.5 7.3
v -1.7 -0.5 7.3
v -0.7 -0.5 7.3
v -0.5 -0.5 7.3
v 0.5 -0.5 7.3
v 0.7 -0.5 7.3
v 1.7 -0.5 7.3
v 1.9 -0.5 7.3
v 2.9 -0.5 7.3
v 3.1 -0.5 7.3
v 4.1 -0.5 7.3
v 4.3 -0.5 7.3
v 5.4 -0.5 7.3
v 5.6 -0.5 7.3
v -3.2 -0.5 6.9
v -2.9 -0.5 6.9
v -1.9 -0.5 6.9
v -1.7 -0.5 6.9
v -0.7 -0.5 6.9
v -0.5 -0.5 6.9
v 0.5 -0.5 6.9
v 0.7 -0.5 6.9
v 1.7 -0.5 6.9
v 1.9 -0.5 6.9
v 2.9 -0.5 6.9
v 3.1 -0.5 6.9
v 4.1 -0.5 6.9
v 4.3 -0.5 6.9
v 5.4 -0.5 6.9
v 5.6 -0.5 6.9
v -2.9 0.7 7.3
v -1.9 0.7 7.3
v -1.7 0.7 7.3
v -0.7 0.7 7.3
v -0.5 0.7 7.3
v 0.5 0.7 7.3
v 0.7 0.7 7.3
v 1.7 0.7 7.3
v 1.9 0.7 7.3
v 2.9 0.7 7.3
v 3.1 0.7 7.3
v 4.1 0.7 7.3
v 4.3 0.7 7.3
v 5.4 0.7 7.3
v -2.9 0.7 6.9
v -1.9 0.7 6.9
v -1.7 0.7 6.9
v -0.7 0.7 6.9
v -0.5 0.7 6.9
v 0.5 0.7 6.9
v 0.7 0.7 6.9
v 1.7 0.7 6.9
v 1.9 0.7 6.9
v 2.9 0.7 6.9
v 3.1 0.7 6.9
v 4.1 0.7 6.9
v 4.3 0.7 6.9
v 5.4 0.7 6.9
v -3.2 4.7 7.3
v -3 4.7 7.3
v -1.9 4.7 7.3
v -1.7 4.7 7.3
v -0.7 4.7 7.3
v -0.5 4.7 7.3
v 0.5 4.7 7.3
v 0.7 4.7 7.3
v 1.7 4.7 7.3
v 1.9 4.7 7.3
v 2.9 4.7 7.3
v 3.1 4.7 7.3
v 4.1 4.7 7.3
v 4.3 4.7 7.3
v 5.4 4.7 7.3
v 5.6 4.7 7.3
v -3.2 4.7 6.9
v -3 4.7 6.9
v -1.9 4.7 6.9
v -1.7 4.7 6.9
v -0.7 4.7 6.9
v -0.5 4.7 6.9
v 0.5 4.7 6.9
v 0.7 4.7 6.9
v 1.7 4.7 6.9
v 1.9 4.7 6.9
v 2.9 4.7 6.9
v 3.1 4.7 6.9
v 4.1 4.7 6.9
v 4.3 4.7 6.9
v 5.4 4.7 6.9
v 5.6 4.7 6.9
v -3 5.9 7.3
v -1.9 5.9 7.3
v -1.7 5.9 7.3
v -0.7 5.9 7.3
v -0.5 5.9 7.3
v 0.5 5.9 7.3
v 0.7 5.9 7.3
v 1.7 5.9 7.3
v 2 5.9 7.3
v 2.9 5.9 7.3
v 3.1 5.9 7.3
v 4.1 5.9 7.3
v 4.3 5.9 7.3
v 5.4 5.9 7.3
v 1.9 5.9 7.1
v 2 5.9 7.1
v -3 5.9 6.9
v -1.9 5.9 6.9
v -1.7 5.9 6.9
v -0.7 5.9 6.9
v -0.5 5.9 6.9
v 0.5 5.9 6.9
v 0.7 5.9 6.9
v 1.7 5.9 6.9
v 1.9 5.9 6.9
v 2.9 5.9 6.9
v 3.1 5.9 6.9
v 4.1 5.9 6.9
v 4.3 5.9 6.9
v 5.4 5.9 6.9
v 1.8 6.1 7.3
v 2 6.1 7.3
v 1.8 6.1 7.1
v 2 6.1 7.1
v -8 9.5 7.7
v 8 9.5 7.7
v -8 9.5 7.3
v 8 9.5 7.3
v 1.8 -6.4 6.9
v 5.1 -6.4 6.9
v 1.8 -6.4 5.9
v 5.1 -6.4 5.9
v 2.6 -4.9 5.7
v 4.4 -4.9 5.7
v 2.6 -4.9 5.5
v 4.4 -4.9 5.5
v 2.4 -4.7 5.7
v 2.6 -4.7 5.7
v 4.4 -4.7 5.7
v 4.6 -4.7 5.7
v 2.4 -4.7 5.5
v 2.6 -4.7 5.5
v 4.4 -4.7 5.5
v 4.6 -4.7 5.5
v 2.4 -4.3 5.5
v 2.6 -4.3 5.5
v 4.4 -4.3 5.5
v 4.6 -4.3 5.5
v 2.4 -4.3 5.3
v 2.6 -4.3 5.3
v 4.4 -4.3 5.3
v 4.6 -4.3 5.3
v 2.4 -3.9 5.3
v 2.6 -3.9 5.3
v 4.4 -3.9 5.3
v 4.6 -3.9 5.3
v 2.4 -3.9 5.1
v 2.6 -3.9 5.1
v 4.4 -3.9 5.1
v 4.6 -3.9 5.1
v 2.4 -3.7 5.1
v 4.6 -3.7 5.1
v 2.4 -3.7 4.9
v 4.6 -3.7 4.9
v -3.2 1.1 7.3
v 5.6 1.1 7.3
v -3.2 1.1 6.9
v 5.6 1.1 6.9
v 1.8 5.3 7.3
v 1.9 5.3 7.3
v 1.8 5.3 7.1
v 1.9 5.3 7.1
v -3.2 6.3 7.3
v 5.6 6.3 7.3
v -3.2 6.3 6.9
v 5.6 6.3 6.9
v -8 9.9 7.7
v 8 9.9 7.7
v -8 9.9 7.3
v 8 9.9 7.3

# faces
f 3/2/1 2/2/1 1/2/1
f 4/2/1 2/2/1 3/2/1
f 7/1/1 6/1/1 5/1/1
f 8/1/1 6/1/1 7/1/1
f 11/1/1 10/1/1 9/1/1
f 12/1/1 10/1/1 11/1/1
f 15/1/1 14/1/1 13/1/1
f 16/1/1 14/1/1 15/1/1
f 19/1/1 18/1/1 17/1/1
f 20/1/1 18/1/1 19/1/1
f 23/1/1 22/1/1 21/1/1
f 24/1/1 22/1/1 23/1/1
f 27/1/1 26/1/1 25/1/1
f 28/1/1 26/1/1 27/1/1
f 31/1/1 30/1/1 29/1/1
f 32/1/1 30/1/1 31/1/1
f 35/1/1 34/1/1 33/1/1
f 36/1/1 34/1/1 35/1/1
f 39/1/1 38/1/1 37/1/1
f 40/1/1 38/1/1 39/1/1
f 43/1/1 42/1/1 41/1/1
f 44/1/1 42/1/1 43/1/1
f 47/3/1 46/3/1 45/3/1
f 48/3/1 46/3/1 47/3/1
f 51/1/1 50/1/1 49/1/1
f 52/1/1 50/1/1 51/1/1
f 55/3/1 54/3/1 53/3/1
f 56/3/1 54/3/1 55/3/1
f 58/3/1 57/3/1 56/3/1
f 59/3/1 57/3/1 58/3/1
f 61/3/1 60/3/1 59/3/1
f 62/3/1 60/3/1 61/3/1
f 64/3/1 63/3/1 62/3/1
f 65/3/1 63/3/1 64/3/1
f 68/1/1 67/1/1 66/1/1
f 69/1/1 67/1/1 68/1/1
f 72/1/1 71/1/1 70/1/1
f 73/1/1 71/1/1 72/1/1
f 76/1/1 75/1/1 74/1/1
f 77/1/1 75/1/1 76/1/1
f 80/1/1 79/1/1 78/1/1
f 81/1/1 79/1/1 80/1/1
f 84/3/1 83/3/1 82/3/1
f 85/3/1 83/3/1 84/3/1
f 87/3/1 86/3/1 85/3/1
f 88/3/1 86/3/1 87/3/1
f 90/3/1 89/3/1 88/3/1
f 91/3/1 89/3/1 90/3/1
f 94/1/1 93/1/1 92/1/1
f 95/1/1 93/1/1 94/1/1
f 98/1/1 97/1/1 96/1/1
f 99/1/1 97/1/1 98/1/1
f 100/1/2 101/1/2 102/1/2
f 102/1/2 101/1/2 103/1/2
f 104/1/2 105/1/2 106/1/2
f 106/1/2 105/1/2 107/1/2
f 108/1/2 109/1/2 110/1/2
f 110/1/2 109/1/2 111/1/2
f 112/1/2 113/1/2 114/1/2
f 114/1/2 113/1/2 115/1/2
f 116/1/2 117/1/2 118/1/2
f 118/1/2 117/1/2 119/1/2
f 120/1/2 121/1/2 122/1/2
f 122/1/2 121/1/2 123/1/2
f 124/1/2 125/1/2 126/1/2
f 126/1/2 125/1/2 127/1/2
f 128/1/2 129/1/2 130/1/2
f 130/1/2 129/1/2 131/1/2
f 132/1/2 133/1/2 134/1/2
f 134/1/2 133/1/2 135/1/2
f 136/1/2 137/1/2 138/1/2
f 138/1/2 137/1/2 139/1/2
f 140/1/2 141/1/2 142/1/2
f 142/1/2 141/1/2 143/1/2
f 143/1/2 141/1/2 144/1/2
f 144/1/2 141/1/2 145/1/2
f 146/3/2 147/3/2 148/3/2
f 148/3/2 147/3/2 149/3/2
f 149/3/2 150/3/2 151/3/2
f 151/3/2 150/3/2 152/3/2
f 152/3/2 153/3/2 154/3/2
f 154/3/2 153/3/2 155/3/2
f 156/1/2 157/1/2 158/1/2
f 158/1/2 157/1/2 159/1/2
f 160/1/2 161/1/2 162/1/2
f 162/1/2 161/1/2 163/1/2
f 164/1/2 165/1/2 166/1/2
f 166/1/2 165/1/2 167/1/2
f 168/1/2 169/1/2 170/1/2
f 170/1/2 169/1/2 171/1/2
f 172/3/2 173/3/2 174/3/2
f 174/3/2 173/3/2 175/3/2
f 175/3/2 176/3/2 177/3/2
f 177/3/2 176/3/2 178/3/2
f 178/3/2 179/3/2 180/3/2
f 180/3/2 179/3/2 181/3/2
f 181/3/2 182/3/2 183/3/2
f 183/3/2 182/3/2 184/3/2
f 185/3/2 186/3/2 187/3/2
f 187/3/2 186/3/2 188/3/2
f 189/1/2 190/1/2 191/1/2
f 191/1/2 190/1/2 192/1/2
f 193/1/2 194/1/2 195/1/2
f 195/1/2 194/1/2 196/1/2
f 197/2/2 198/2/2 199/2/2
f 199/2/2 198/2/2 200/2/2
f 203/2/3 202/2/3 201/2/3
f 204/2/3 202/2/3 203/2/3
f 209/1/3 208/1/3 207/1/3
f 210/1/3 208/1/3 209/1/3
f 211/1/3 206/1/3 205/1/3
f 212/1/3 206/1/3 211/1/3
f 214/1/3 206/1/3 212/1/3
f 216/1/3 208/1/3 210/1/3
f 217/1/3 214/1/3 213/1/3
f 218/1/3 206/1/3 214/1/3
f 218/1/3 214/1/3 217/1/3
f 219/1/3 216/1/3 215/1/3
f 220/1/3 208/1/3 216/1/3
f 220/1/3 216/1/3 219/1/3
f 222/1/3 206/1/3 218/1/3
f 224/1/3 208/1/3 220/1/3
f 225/1/3 222/1/3 221/1/3
f 226/1/3 206/1/3 222/1/3
f 226/1/3 222/1/3 225/1/3
f 227/1/3 224/1/3 223/1/3
f 228/1/3 208/1/3 224/1/3
f 228/1/3 224/1/3 227/1/3
f 230/1/3 206/1/3 226/1/3
f 232/1/3 208/1/3 228/1/3
f 233/1/3 230/1/3 229/1/3
f 234/1/3 206/1/3 230/1/3
f 234/1/3 230/1/3 233/1/3
f 235/1/3 232/1/3 231/1/3
f 236/1/3 208/1/3 232/1/3
f 236/1/3 232/1/3 235/1/3
f 238/1/3 206/1/3 234/1/3
f 240/1/3 208/1/3 236/1/3
f 241/1/3 240/1/3 239/1/3
f 242/1/3 208/1/3 240/1/3
f 242/1/3 240/1/3 241/1/3
f 243/1/3 238/1/3 237/1/3
f 244/1/3 206/1/3 238/1/3
f 244/1/3 238/1/3 243/1/3
f 245/1/3 241/1/3 239/1/3
f 246/1/3 241/1/3 245/1/3
f 248/1/3 208/1/3 242/1/3
f 250/1/3 206/1/3 244/1/3
f 252/1/3 248/1/3 247/1/3
f 253/1/3 250/1/3 249/1/3
f 254/1/3 206/1/3 250/1/3
f 254/1/3 250/1/3 253/1/3
f 255/1/3 252/1/3 251/1/3
f 256/1/3 248/1/3 252/1/3
f 256/1/3 252/1/3 255/1/3
f 258/1/3 206/1/3 254/1/3
f 260/1/3 248/1/3 256/1/3
f 261/1/3 258/1/3 257/1/3
f 262/1/3 206/1/3 258/1/3
f 262/1/3 258/1/3 261/1/3
f 263/1/3 260/1/3 259/1/3
f 264/1/3 248/1/3 260/1/3
f 264/1/3 260/1/3 263/1/3
f 266/1/3 206/1/3 262/1/3
f 268/1/3 248/1/3 264/1/3
f 269/1/3 266/1/3 265/1/3
f 270/1/3 206/1/3 266/1/3
f 270/1/3 266/1/3 269/1/3
f 271/1/3 268/1/3 267/1/3
f 272/1/3 208/1/3 248/1/3
f 272/1/3 268/1/3 271/1/3
f 272/1/3 248/1/3 268/1/3
f 275/1/3 274/1/3 273/1/3
f 276/1/3 274/1/3 275/1/3
f 277/1/3 274/1/3 276/1/3
f 278/1/3 274/1/3 277/1/3
f 281/3/3 280/3/3 279/3/3
f 282/3/3 280/3/3 281/3/3
f 285/3/3 284/3/3 283/3/3
f 286/3/3 284/3/3 285/3/3
f 287/3/3 285/3/3 283/3/3
f 289/3/3 287/3/3 283/3/3
f 289/3/3 288/3/3 287/3/3
f 290/3/3 288/3/3 289/3/3
f 293/3/3 292/3/3 291/3/3
f 294/3/3 292/3/3 293/3/3
f 297/3/3 296/3/3 295/3/3
f 298/3/3 296/3/3 297/3/3
f 301/3/3 300/3/3 299/3/3
f 302/3/3 300/3/3 301/3/3
f 305/3/3 304/3/3 303/3/3
f 306/3/3 304/3/3 305/3/3
f 309/3/3 308/3/3 307/3/3
f 310/3/3 308/3/3 309/3/3
f 311/3/3 308/3/3 310/3/3
f 312/3/3 308/3/3 311/3/3
f 313/2/4 314/2/4 315/2/4
f 315/2/4 314/2/4 316/2/4
f 319/1/4 320/1/4 321/1/4
f 321/1/4 320/1/4 322/1/4
f 317/1/4 318/1/4 323/1/4
f 323/1/4 318/1/4 324/1/4
f 324/1/4 318/1/4 326/1/4
f 322/1/4 320/1/4 328/1/4
f 325/1/4 326/1/4 329/1/4
f 326/1/4 318/1/4 330/1/4
f 329/1/4 326/1/4 330/1/4
f 327/1/4 328/1/4 331/1/4
f 328/1/4 320/1/4 332/1/4
f 331/1/4 328/1/4 332/1/4
f 330/1/4 318/1/4 334/1/4
f 332/1/4 320/1/4 336/1/4
f 333/1/4 334/1/4 337/1/4
f 334/1/4 318/1/4 338/1/4
f 337/1/4 334/1/4 338/1/4
f 335/1/4 336/1/4 339/1/4
f 336/1/4 320/1/4 340/1/4
f 339/1/4 336/1/4 340/1/4
f 338/1/4 318/1/4 342/1/4
f 340/1/4 320/1/4 344/1/4
f 341/1/4 342/1/4 345/1/4
f 342/1/4 318/1/4 346/1/4
f 345/1/4 342/1/4 346/1/4
f 343/1/4 344/1/4 347/1/4
f 344/1/4 320/1/4 348/1/4
f 347/1/4 344/1/4 348/1/4
f 346/1/4 318/1/4 350/1/4
f 348/1/4 320/1/4 352/1/4
f 349/1/4 350/1/4 353/1/4
f 350/1/4 318/1/4 354/1/4
f 353/1/4 350/1/4 354/1/4
f 351/1/4 352/1/4 355/1/4
f 352/1/4 320/1/4 356/1/4
f 355/1/4 352/1/4 356/1/4
f 354/1/4 318/1/4 358/1/4
f 356/1/4 320/1/4 360/1/4
f 357/1/4 358/1/4 361/1/4
f 358/1/4 318/1/4 362/1/4
f 361/1/4 358/1/4 362/1/4
f 359/1/4 360/1/4 363/1/4
f 360/1/4 320/1/4 364/1/4
f 363/1/4 360/1/4 364/1/4
f 362/1/4 318/1/4 366/1/4
f 364/1/4 320/1/4 368/1/4
f 365/1/4 366/1/4 369/1/4
f 366/1/4 318/1/4 370/1/4
f 369/1/4 366/1/4 370/1/4
f 367/1/4 368/1/4 371/1/4
f 368/1/4 320/1/4 372/1/4
f 371/1/4 368/1/4 372/1/4
f 370/1/4 318/1/4 374/1/4
f 372/1/4 320/1/4 376/1/4
f 373/1/4 374/1/4 377/1/4
f 374/1/4 318/1/4 378/1/4
f 377/1/4 374/1/4 378/1/4
f 375/1/4 376/1/4 379/1/4
f 376/1/4 320/1/4 380/1/4
f 379/1/4 376/1/4 380/1/4
f 381/3/4 382/3/4 383/3/4
f 383/3/4 382/3/4 384/3/4
f 385/3/4 386/3/4 387/3/4
f 387/3/4 386/3/4 388/3/4
f 385/3/4 387/3/4 389/3/4
f 385/3/4 389/3/4 391/3/4
f 389/3/4 390/3/4 391/3/4
f 391/3/4 390/3/4 392/3/4
f 393/3/4 394/3/4 395/3/4
f 395/3/4 394/3/4 396/3/4
f 397/3/4 398/3/4 399/3/4
f 399/3/4 398/3/4 400/3/4
f 401/3/4 402/3/4 403/3/4
f 403/3/4 402/3/4 404/3/4
f 405/3/4 406/3/4 407/3/4
f 407/3/4 406/3/4 408/3/4
f 409/3/4 410/3/4 411/3/4
f 411/3/4 410/3/4 412/3/4
f 415/3/5 414/3/5 413/3/5
f 416/3/5 414/3/5 415/3/5
f 419/3/5 418/3/5 417/3/5
f 420/3/5 418/3/5 419/3/5
f 425/3/5 422/3/5 421/3/5
f 426/3/5 422/3/5 425/3/5
f 427/3/5 424/3/5 423/3/5
f 428/3/5 424/3/5 427/3/5
f 433/3/5 430/3/5 429/3/5
f 434/3/5 430/3/5 433/3/5
f 435/3/5 432/3/5 431/3/5
f 436/3/5 432/3/5 435/3/5
f 441/3/5 438/3/5 437/3/5
f 441/3/5 440/3/5 439/3/5
f 441/3/5 439/3/5 438/3/5
f 442/3/5 440/3/5 441/3/5
f 459/1/5 444/1/5 443/1/5
f 460/1/5 444/1/5 459/1/5
f 461/1/5 446/1/5 445/1/5
f 462/1/5 446/1/5 461/1/5
f 463/1/5 448/1/5 447/1/5
f 464/1/5 448/1/5 463/1/5
f 465/1/5 450/1/5 449/1/5
f 466/1/5 450/1/5 465/1/5
f 467/1/5 452/1/5 451/1/5
f 468/1/5 452/1/5 467/1/5
f 469/1/5 454/1/5 453/1/5
f 470/1/5 454/1/5 469/1/5
f 471/1/5 456/1/5 455/1/5
f 472/1/5 456/1/5 471/1/5
f 473/1/5 458/1/5 457/1/5
f 474/1/5 458/1/5 473/1/5
f 489/1/5 476/1/5 475/1/5
f 490/1/5 476/1/5 489/1/5
f 491/1/5 478/1/5 477/1/5
f 492/1/5 478/1/5 491/1/5
f 493/1/5 480/1/5 479/1/5
f 494/1/5 480/1/5 493/1/5
f 495/1/5 482/1/5 481/1/5
f 496/1/5 482/1/5 495/1/5
f 497/1/5 484/1/5 483/1/5
f 498/1/5 484/1/5 497/1/5
f 499/1/5 486/1/5 485/1/5
f 500/1/5 486/1/5 499/1/5
f 501/1/5 488/1/5 487/1/5
f 502/1/5 488/1/5 501/1/5
f 519/1/5 504/1/5 503/1/5
f 520/1/5 504/1/5 519/1/5
f 521/1/5 506/1/5 505/1/5
f 522/1/5 506/1/5 521/1/5
f 523/1/5 508/1/5 507/1/5
f 524/1/5 508/1/5 523/1/5
f 525/1/5 510/1/5 509/1/5
f 526/1/5 510/1/5 525/1/5
f 527/1/5 512/1/5 511/1/5
f 528/1/5 512/1/5 527/1/5
f 529/1/5 514/1/5 513/1/5
f 530/1/5 514/1/5 529/1/5
f 531/1/5 516/1/5 515/1/5
f 532/1/5 516/1/5 531/1/5
f 533/1/5 518/1/5 517/1/5
f 534/1/5 518/1/5 533/1/5
f 550/1/5 544/1/5 543/1/5
f 551/1/5 536/1/5 535/1/5
f 552/1/5 536/1/5 551/1/5
f 553/1/5 538/1/5 537/1/5
f 554/1/5 538/1/5 553/1/5
f 555/1/5 540/1/5 539/1/5
f 556/1/5 540/1/5 555/1/5
f 557/1/5 542/1/5 541/1/5
f 558/1/5 542/1/5 557/1/5
f 559/1/5 550/1/5 549/1/5
f 560/1/5 544/1/5 550/1/5
f 560/1/5 550/1/5 559/1/5
f 561/1/5 546/1/5 545/1/5
f 562/1/5 546/1/5 561/1/5
f 563/1/5 548/1/5 547/1/5
f 564/1/5 548/1/5 563/1/5
f 567/1/5 566/1/5 565/1/5
f 568/1/5 566/1/5 567/1/5
f 571/2/5 570/2/5 569/2/5
f 572/2/5 570/2/5 571/2/5
f 573/3/6 574/3/6 575/3/6
f 575/3/6 574/3/6 576/3/6
f 577/3/6 578/3/6 579/3/6
f 579/3/6 578/3/6 580/3/6
f 581/3/6 582/3/6 585/3/6
f 585/3/6 582/3/6 586/3/6
f 583/3/6 584/3/6 587/3/6
f 587/3/6 584/3/6 588/3/6
f 589/3/6 590/3/6 593/3/6
f 593/3/6 590/3/6 594/3/6
f 591/3/6 592/3/6 595/3/6
f 595/3/6 592/3/6 596/3/6
f 597/3/6 598/3/6 601/3/6
f 601/3/6 598/3/6 602/3/6
f 599/3/6 600/3/6 603/3/6
f 603/3/6 600/3/6 604/3/6
f 605/3/6 606/3/6 607/3/6
f 607/3/6 606/3/6 608/3/6
f 609/1/6 610/1/6 611/1/6
f 611/1/6 610/1/6 612/1/6
f 613/1/6 614/1/6 615/1/6
f 615/1/6 614/1/6 616/1/6
f 617/1/6 618/1/6 619/1/6
f 619/1/6 618/1/6 620/1/6
f 621/2/6 622/2/6 623/2/6
f 623/2/6 622/2/6 624/2/6
