# MagicaVoxel @ Ephtracy

# group
o 

# material
mtllib immobiliare san marco1-0.mtl
usemtl palette

# normals
vn -1 0 0
vn 1 0 0
vn 0 0 -1
vn 0 0 1
vn 0 -1 0
vn 0 1 0

# texcoords
vt 0.970703 0.5
vt 0.974609 0.5
vt 0.978516 0.5
vt 0.982422 0.5

# verts
v -4.4 0 -15.2
v -4.4 0 -12.3
v -4.4 0.2 -15.2
v -4.4 0.2 -12.3
v -4.4 2.8 -15.2
v -4.4 2.8 -12.3
v -4.4 8 -15.4
v -4.4 8 -15.2
v -4.4 8 -15.1
v -4.4 8.2 -15.6
v -4.4 8.2 -15.4
v -4.4 8.2 -15.2
v -4.4 8.2 -15.1
v -4.4 8.2 -12.3
v -4.4 8.4 -15.6
v -4.4 8.4 -12.3
v -4.4 8.6 -15.6
v -4.4 8.6 -15.4
v -4.4 8.8 -15.4
v -4.4 8.8 -15.3
v -4.4 9.2 -15.3
v -4.4 9.2 -12.3
v -2.8 3 -15
v -2.8 3 -13.3
v -2.8 3.2 -15
v -2.8 3.2 -13.3
v -1.6 5.6 -15
v -1.6 5.6 -14.7
v -1.6 5.6 -13.3
v -1.6 5.6 -12.3
v -1.6 7.6 -14.7
v -1.6 7.6 -13.3
v -1.6 8 -15
v -1.6 8 -12.5
v -1.6 8 -12.3
v -0.6 3.2 -15
v -0.6 3.2 -14.7
v -0.6 3.2 -13.5
v -0.6 3.2 -12.3
v -0.6 5 -14.7
v -0.6 5 -13.5
v -0.6 5.4 -15
v -0.6 5.4 -12.3
v 0.4 0.2 -15
v 0.4 0.2 -12.9
v 0.4 1.9 -12.9
v 0.4 1.9 -12.3
v 0.4 2.7 -15
v 0.4 3 -15
v 0.4 3 -12.5
v 0.4 3 -12.3
v 2.8 0.2 -15.2
v 2.8 0.2 -15
v 2.8 2.1 -15.2
v 2.8 2.1 -15
v 3 3.5 -15.2
v 3 3.5 -15
v 3 5.1 -15.2
v 3 5.1 -15
v 3 6.1 -15.2
v 3 6.1 -15
v 3 7.7 -15.2
v 3 7.7 -15
v 3.3 0.2 -20.3
v 3.3 0.2 -15.2
v 3.3 0.6 -20.3
v 3.3 0.6 -15.2
v 3.4 0.2 -15
v 3.4 0.2 -14.8
v 3.4 0.2 -13.4
v 3.4 0.2 -12.3
v 3.4 2.1 -14.8
v 3.4 2.1 -13.4
v 3.4 2.7 -15
v 3.4 2.8 -15
v 3.4 2.8 -12.3
v 3.4 3 -15
v 3.4 3 -12.5
v 3.4 3 -12.3
v 3.4 3.2 -15
v 3.4 3.2 -12.3
v 3.4 3.5 -14.8
v 3.4 3.5 -13.4
v 3.4 5.1 -14.8
v 3.4 5.1 -13.4
v 3.4 5.4 -15
v 3.4 5.4 -12.3
v 3.4 5.6 -15
v 3.4 5.6 -12.3
v 3.4 6.1 -14.8
v 3.4 6.1 -13.4
v 3.4 7.7 -14.8
v 3.4 7.7 -13.4
v 3.4 8 -15
v 3.4 8 -12.3
v 3.5 0.1 -15.1
v 3.5 0.1 -14.8
v 3.5 0.2 -15.1
v 3.5 0.2 -14.8
v 3.7 8 -12.5
v 3.7 8 -12.4
v 3.7 8.4 -12.5
v 3.7 8.4 -12.4
v 3.7 8.6 -12.5
v 3.7 8.6 -12.4
v -4.2 0.2 -15
v -4.2 0.2 -12.3
v -4.2 2.7 -15
v -4.2 2.8 -15
v -4.2 2.8 -12.3
v -4.2 3 -13.3
v -4.2 3 -12.5
v -4.2 3 -12.3
v -4.2 3.2 -13.3
v -4.2 3.2 -12.3
v -4.2 5.4 -15
v -4.2 5.4 -12.3
v -4.2 5.6 -15
v -4.2 5.6 -12.3
v -4.2 8 -15
v -4.2 8 -12.5
v -4.2 8 -12.3
v -1.4 5.6 -15
v -1.4 5.6 -14.7
v -1.4 5.6 -13.3
v -1.4 5.6 -12.3
v -1.4 7.6 -14.7
v -1.4 7.6 -13.3
v -1.4 8 -15
v -1.4 8 -12.3
v -0.4 3.2 -15
v -0.4 3.2 -14.7
v -0.4 3.2 -13.5
v -0.4 3.2 -12.3
v -0.4 5 -14.7
v -0.4 5 -13.5
v -0.4 5.4 -15
v -0.4 5.4 -12.3
v 0.6 0.2 -15
v 0.6 0.2 -12.9
v 0.6 1.9 -12.9
v 0.6 1.9 -12.3
v 0.6 2.7 -15
v 0.6 3 -15
v 0.6 3 -12.5
v 0.6 3 -12.3
v 1 9 -15.3
v 1 9 -12.3
v 1 9.2 -15.3
v 1 9.2 -12.3
v 1.2 0.2 -15.2
v 1.2 0.2 -15
v 1.2 2.1 -15.2
v 1.2 2.1 -15
v 1.6 3.5 -15.2
v 1.6 3.5 -15
v 1.6 5.1 -15.2
v 1.6 5.1 -15
v 1.6 6.1 -15.2
v 1.6 6.1 -15
v 1.6 7.7 -15.2
v 1.6 7.7 -15
v 2.2 8.8 -15.3
v 2.2 8.8 -12.3
v 2.2 9 -15.3
v 2.2 9 -12.3
v 3.4 0.1 -15.1
v 3.4 0.1 -14.8
v 3.4 0.1 -14.7
v 3.4 0.1 -13.5
v 3.4 0.2 -15.1
v 3.4 0.2 -14.8
v 3.4 0.2 -14.7
v 3.4 0.2 -13.5
v 3.4 8.6 -15.4
v 3.4 8.6 -12.3
v 3.4 8.8 -15.4
v 3.4 8.8 -12.3
v 3.5 0.1 -14.8
v 3.5 0.1 -14.7
v 3.5 0.1 -13.5
v 3.5 0.1 -13.4
v 3.5 0.2 -20.3
v 3.5 0.2 -15.2
v 3.5 0.2 -14.8
v 3.5 0.2 -14.7
v 3.5 0.2 -13.5
v 3.5 0.2 -13.4
v 3.5 0.6 -20.3
v 3.5 0.6 -15.2
v 3.6 0 -15.2
v 3.6 0 -12.3
v 3.6 0.1 -15.2
v 3.6 0.1 -14.8
v 3.6 0.1 -13.4
v 3.6 0.2 -13.4
v 3.6 0.2 -12.3
v 3.6 2.1 -14.8
v 3.6 2.1 -13.4
v 3.6 2.8 -15.2
v 3.6 2.8 -12.3
v 3.6 3.5 -14.8
v 3.6 3.5 -13.4
v 3.6 5.1 -14.8
v 3.6 5.1 -13.4
v 3.6 6.1 -14.8
v 3.6 6.1 -13.4
v 3.6 7.7 -14.8
v 3.6 7.7 -13.4
v 3.6 7.7 -12.4
v 3.6 7.7 -12.3
v 3.6 7.8 -12.5
v 3.6 7.8 -12.4
v 3.6 7.9 -12.6
v 3.6 7.9 -12.5
v 3.6 8 -15.2
v 3.6 8 -12.6
v 3.6 8 -12.5
v 3.6 8 -12.4
v 3.6 8 -12.3
v 3.6 8.4 -12.5
v 3.6 8.4 -12.4
v 3.6 8.6 -12.5
v 3.6 8.6 -12.4
v 3.8 8 -15.4
v 3.8 8 -12.3
v 3.8 8.2 -15.4
v 3.8 8.2 -12.3
v 4.2 8.2 -15.6
v 4.2 8.2 -12.3
v 4.2 8.4 -15.6
v 4.2 8.4 -12.3
v 4.4 8.4 -15.6
v 4.4 8.4 -12.3
v 4.4 8.6 -15.6
v 4.4 8.6 -12.3
v 3.3 0.2 -20.3
v 3.3 0.6 -20.3
v 3.5 0.2 -20.3
v 3.5 0.6 -20.3
v -4.4 8.2 -15.6
v -4.4 8.4 -15.6
v -4.4 8.6 -15.6
v 4.2 8.2 -15.6
v 4.2 8.4 -15.6
v 4.4 8.4 -15.6
v 4.4 8.6 -15.6
v -4.4 8 -15.4
v -4.4 8.2 -15.4
v -4.4 8.6 -15.4
v -4.4 8.8 -15.4
v 3.4 8.6 -15.4
v 3.4 8.8 -15.4
v 3.8 8 -15.4
v 3.8 8.2 -15.4
v -4.4 8.8 -15.3
v -4.4 9.2 -15.3
v 1 9 -15.3
v 1 9.2 -15.3
v 2.2 8.8 -15.3
v 2.2 9 -15.3
v -4.4 0 -15.2
v -4.4 0.2 -15.2
v -4.4 2.8 -15.2
v -4.4 8 -15.2
v -4.2 2.7 -15.2
v -4.2 2.8 -15.2
v 1.2 0.2 -15.2
v 1.2 2.1 -15.2
v 1.6 3.5 -15.2
v 1.6 5.1 -15.2
v 1.6 6.1 -15.2
v 1.6 7.7 -15.2
v 2.8 0.2 -15.2
v 2.8 2.1 -15.2
v 3 3.5 -15.2
v 3 5.1 -15.2
v 3 6.1 -15.2
v 3 7.7 -15.2
v 3.3 0.2 -15.2
v 3.3 0.6 -15.2
v 3.4 2.7 -15.2
v 3.4 2.8 -15.2
v 3.5 0.1 -15.2
v 3.5 0.2 -15.2
v 3.5 0.6 -15.2
v 3.6 0 -15.2
v 3.6 0.1 -15.2
v 3.6 2.8 -15.2
v 3.6 8 -15.2
v 3.4 0.1 -14.8
v 3.4 0.2 -14.8
v 3.5 0.1 -14.8
v 3.5 0.2 -14.8
v -0.6 3.2 -13.5
v -0.6 5 -13.5
v -0.4 3.2 -13.5
v -0.4 5 -13.5
v 3.4 0.1 -13.5
v 3.4 0.2 -13.5
v 3.5 0.1 -13.5
v 3.5 0.2 -13.5
v 3.4 0.2 -13.4
v 3.4 2.1 -13.4
v 3.4 3.5 -13.4
v 3.4 5.1 -13.4
v 3.4 6.1 -13.4
v 3.4 7.7 -13.4
v 3.5 0.1 -13.4
v 3.5 0.2 -13.4
v 3.6 0.1 -13.4
v 3.6 0.2 -13.4
v 3.6 2.1 -13.4
v 3.6 3.5 -13.4
v 3.6 5.1 -13.4
v 3.6 6.1 -13.4
v 3.6 7.7 -13.4
v -4.2 3 -13.3
v -4.2 3.2 -13.3
v -2.8 3 -13.3
v -2.8 3.2 -13.3
v -1.6 5.6 -13.3
v -1.6 7.6 -13.3
v -1.4 5.6 -13.3
v -1.4 7.6 -13.3
v 3.6 8 -12.4
v 3.6 8.4 -12.4
v 3.6 8.6 -12.4
v 3.7 8 -12.4
v 3.7 8.4 -12.4
v 3.7 8.6 -12.4
v 3.4 0.1 -15.1
v 3.4 0.2 -15.1
v 3.5 0.1 -15.1
v 3.5 0.2 -15.1
v -4.2 0.2 -15
v -4.2 2.7 -15
v -4.2 2.8 -15
v -4.2 5.4 -15
v -4.2 5.6 -15
v -4.2 8 -15
v -2.8 3 -15
v -2.8 3.2 -15
v -1.6 5.6 -15
v -1.6 8 -15
v -1.4 5.6 -15
v -1.4 8 -15
v -0.6 3.2 -15
v -0.6 5.4 -15
v -0.4 3.2 -15
v -0.4 5.4 -15
v 0.4 0.2 -15
v 0.4 2.7 -15
v 0.4 3 -15
v 0.6 0.2 -15
v 0.6 2.7 -15
v 0.6 3 -15
v 1.2 0.2 -15
v 1.2 2.1 -15
v 1.6 3.5 -15
v 1.6 5.1 -15
v 1.6 6.1 -15
v 1.6 7.7 -15
v 2.8 0.2 -15
v 2.8 2.1 -15
v 3 3.5 -15
v 3 5.1 -15
v 3 6.1 -15
v 3 7.7 -15
v 3.4 0.2 -15
v 3.4 2.7 -15
v 3.4 2.8 -15
v 3.4 3 -15
v 3.4 3.2 -15
v 3.4 5.4 -15
v 3.4 5.6 -15
v 3.4 8 -15
v 3.4 0.2 -14.8
v 3.4 2.1 -14.8
v 3.4 3.5 -14.8
v 3.4 5.1 -14.8
v 3.4 6.1 -14.8
v 3.4 7.7 -14.8
v 3.5 0.1 -14.8
v 3.5 0.2 -14.8
v 3.6 0.1 -14.8
v 3.6 2.1 -14.8
v 3.6 3.5 -14.8
v 3.6 5.1 -14.8
v 3.6 6.1 -14.8
v 3.6 7.7 -14.8
v -1.6 5.6 -14.7
v -1.6 7.6 -14.7
v -1.4 5.6 -14.7
v -1.4 7.6 -14.7
v -0.6 3.2 -14.7
v -0.6 5 -14.7
v -0.4 3.2 -14.7
v -0.4 5 -14.7
v 3.4 0.1 -14.7
v 3.4 0.2 -14.7
v 3.5 0.1 -14.7
v 3.5 0.2 -14.7
v 0.4 0.2 -12.9
v 0.4 1.9 -12.9
v 0.6 0.2 -12.9
v 0.6 1.9 -12.9
v 3.6 8 -12.5
v 3.6 8.4 -12.5
v 3.6 8.6 -12.5
v 3.7 8 -12.5
v 3.7 8.4 -12.5
v 3.7 8.6 -12.5
v -4.4 0 -12.3
v -4.4 0.2 -12.3
v -4.4 2.8 -12.3
v -4.4 8.2 -12.3
v -4.4 8.4 -12.3
v -4.4 9.2 -12.3
v -4.2 0.2 -12.3
v -4.2 2.8 -12.3
v -4.2 3 -12.3
v -4.2 3.1 -12.3
v -4.2 3.2 -12.3
v -4.2 5.4 -12.3
v -4.2 5.6 -12.3
v -4.2 8 -12.3
v -1.6 5.6 -12.3
v -1.6 8 -12.3
v -1.4 5.6 -12.3
v -1.4 8 -12.3
v -1.4 8.2 -12.3
v -0.6 3.1 -12.3
v -0.6 3.2 -12.3
v -0.6 5.4 -12.3
v -0.4 3.1 -12.3
v -0.4 3.2 -12.3
v -0.4 5.4 -12.3
v 0.4 1.9 -12.3
v 0.4 3 -12.3
v 0.6 1.9 -12.3
v 0.6 3 -12.3
v 1 9 -12.3
v 1 9.2 -12.3
v 2.2 8.8 -12.3
v 2.2 9 -12.3
v 3.4 0.2 -12.3
v 3.4 2.8 -12.3
v 3.4 3 -12.3
v 3.4 3.1 -12.3
v 3.4 3.2 -12.3
v 3.4 5.4 -12.3
v 3.4 5.6 -12.3
v 3.4 8 -12.3
v 3.4 8.2 -12.3
v 3.4 8.6 -12.3
v 3.4 8.8 -12.3
v 3.5 7.7 -12.3
v 3.5 8.2 -12.3
v 3.6 0 -12.3
v 3.6 0.2 -12.3
v 3.6 2.8 -12.3
v 3.6 7.7 -12.3
v 3.6 8 -12.3
v 3.8 8 -12.3
v 3.8 8.2 -12.3
v 4.2 8.2 -12.3
v 4.2 8.4 -12.3
v 4.4 8.4 -12.3
v 4.4 8.6 -12.3
v -4.4 0 -15.2
v 3.6 0 -15.2
v -4.4 0 -12.3
v 3.6 0 -12.3
v 3.3 0.2 -20.3
v 3.5 0.2 -20.3
v 3.3 0.2 -15.2
v 3.5 0.2 -15.2
v 3.4 0.2 -15.1
v 3.5 0.2 -15.1
v 3.4 0.2 -14.8
v 3.5 0.2 -14.8
v 0.4 1.9 -12.9
v 0.6 1.9 -12.9
v 0.4 1.9 -12.3
v 0.6 1.9 -12.3
v 1.2 2.1 -15.2
v 2.8 2.1 -15.2
v 1.2 2.1 -15
v 2.8 2.1 -15
v 3.4 2.1 -14.8
v 3.6 2.1 -14.8
v 3.4 2.1 -13.4
v 3.6 2.1 -13.4
v -2.8 3 -15
v 0.4 3 -15
v 0.6 3 -15
v 3.4 3 -15
v -4.2 3 -13.3
v -2.8 3 -13.3
v -4.2 3 -12.5
v 0.4 3 -12.5
v 0.6 3 -12.5
v 3.4 3 -12.5
v -4.2 3 -12.3
v 0.4 3 -12.3
v 0.6 3 -12.3
v 3.4 3 -12.3
v -0.6 5 -14.7
v -0.4 5 -14.7
v -0.6 5 -13.5
v -0.4 5 -13.5
v 1.6 5.1 -15.2
v 3 5.1 -15.2
v 1.6 5.1 -15
v 3 5.1 -15
v 3.4 5.1 -14.8
v 3.6 5.1 -14.8
v 3.4 5.1 -13.4
v 3.6 5.1 -13.4
v -4.2 5.4 -15
v -0.6 5.4 -15
v -0.4 5.4 -15
v 3.4 5.4 -15
v -4.2 5.4 -12.3
v -0.6 5.4 -12.3
v -0.4 5.4 -12.3
v 3.4 5.4 -12.3
v -1.6 7.6 -14.7
v -1.4 7.6 -14.7
v -1.6 7.6 -13.3
v -1.4 7.6 -13.3
v 1.6 7.7 -15.2
v 3 7.7 -15.2
v 1.6 7.7 -15
v 3 7.7 -15
v 3.4 7.7 -14.8
v 3.6 7.7 -14.8
v 3.4 7.7 -13.4
v 3.6 7.7 -13.4
v -4.4 8 -15.4
v 3.8 8 -15.4
v -4.4 8 -15.2
v 3.6 8 -15.2
v -4.2 8 -15
v -1.6 8 -15
v -1.4 8 -15
v 3.4 8 -15
v 3.6 8 -12.6
v -4.2 8 -12.5
v -1.6 8 -12.5
v 3.6 8 -12.5
v 3.7 8 -12.5
v 3.6 8 -12.4
v 3.7 8 -12.4
v -4.2 8 -12.3
v -1.6 8 -12.3
v -1.4 8 -12.3
v 3.4 8 -12.3
v 3.6 8 -12.3
v 3.8 8 -12.3
v -4.4 8.2 -15.6
v 4.2 8.2 -15.6
v -4.4 8.2 -15.4
v 3.8 8.2 -15.4
v 3.8 8.2 -12.3
v 4.2 8.2 -12.3
v 4.2 8.4 -15.6
v 4.4 8.4 -15.6
v 4.2 8.4 -12.3
v 4.4 8.4 -12.3
v 3.4 0.1 -15.1
v 3.5 0.1 -15.1
v 3.4 0.1 -14.8
v 3.5 0.1 -14.8
v 3.6 0.1 -14.8
v 3.4 0.1 -14.7
v 3.5 0.1 -14.7
v 3.4 0.1 -13.5
v 3.5 0.1 -13.5
v 3.5 0.1 -13.4
v 3.6 0.1 -13.4
v 1.2 0.2 -15.2
v 2.8 0.2 -15.2
v -4.2 0.2 -15
v 0.4 0.2 -15
v 0.6 0.2 -15
v 1.2 0.2 -15
v 2.8 0.2 -15
v 3.4 0.2 -15
v 3.4 0.2 -14.8
v 3.5 0.2 -14.8
v 3.4 0.2 -14.7
v 3.5 0.2 -14.7
v 3.4 0.2 -13.5
v 3.5 0.2 -13.5
v 3.4 0.2 -13.4
v 3.5 0.2 -13.4
v 0.4 0.2 -12.9
v 0.6 0.2 -12.9
v -4.2 0.2 -12.3
v 3.4 0.2 -12.3
v 3.3 0.6 -20.3
v 3.5 0.6 -20.3
v 3.3 0.6 -15.2
v 3.5 0.6 -15.2
v -2.8 3.2 -15
v -0.6 3.2 -15
v -0.4 3.2 -15
v 3.4 3.2 -15
v -0.6 3.2 -14.7
v -0.4 3.2 -14.7
v -0.6 3.2 -13.5
v -0.4 3.2 -13.5
v -4.2 3.2 -13.3
v -2.8 3.2 -13.3
v -4.2 3.2 -12.3
v -0.6 3.2 -12.3
v -0.4 3.2 -12.3
v 3.4 3.2 -12.3
v 1.6 3.5 -15.2
v 3 3.5 -15.2
v 1.6 3.5 -15
v 3 3.5 -15
v 3.4 3.5 -14.8
v 3.6 3.5 -14.8
v 3.4 3.5 -13.4
v 3.6 3.5 -13.4
v -4.2 5.6 -15
v -1.6 5.6 -15
v -1.4 5.6 -15
v 3.4 5.6 -15
v -1.6 5.6 -14.7
v -1.4 5.6 -14.7
v -1.6 5.6 -13.3
v -1.4 5.6 -13.3
v -4.2 5.6 -12.3
v -1.6 5.6 -12.3
v -1.4 5.6 -12.3
v 3.4 5.6 -12.3
v 1.6 6.1 -15.2
v 3 6.1 -15.2
v 1.6 6.1 -15
v 3 6.1 -15
v 3.4 6.1 -14.8
v 3.6 6.1 -14.8
v 3.4 6.1 -13.4
v 3.6 6.1 -13.4
v -4.4 8.6 -15.6
v 4.4 8.6 -15.6
v -4.4 8.6 -15.4
v 3.4 8.6 -15.4
v 3.6 8.6 -12.5
v 3.7 8.6 -12.5
v 3.6 8.6 -12.4
v 3.7 8.6 -12.4
v 3.4 8.6 -12.3
v 4.4 8.6 -12.3
v -4.4 8.8 -15.4
v 3.4 8.8 -15.4
v -4.4 8.8 -15.3
v 2.2 8.8 -15.3
v 2.2 8.8 -12.3
v 3.4 8.8 -12.3
v 1 9 -15.3
v 2.2 9 -15.3
v 1 9 -12.3
v 2.2 9 -12.3
v -4.4 9.2 -15.3
v 1 9.2 -15.3
v -4.4 9.2 -12.3
v 1 9.2 -12.3

# faces
f 1/1/1 2/1/1 3/1/1
f 3/1/1 2/1/1 4/1/1
f 3/2/1 4/2/1 5/2/1
f 5/2/1 4/2/1 6/2/1
f 5/3/1 6/3/1 8/3/1
f 8/3/1 6/3/1 9/3/1
f 7/2/1 8/2/1 11/2/1
f 8/1/1 9/1/1 12/1/1
f 11/2/1 8/2/1 12/2/1
f 9/3/1 6/3/1 13/3/1
f 12/1/1 9/1/1 13/1/1
f 13/3/1 6/3/1 14/3/1
f 11/2/1 12/2/1 15/2/1
f 10/2/1 11/2/1 15/2/1
f 13/2/1 14/2/1 15/2/1
f 12/2/1 13/2/1 15/2/1
f 15/2/1 14/2/1 16/2/1
f 15/4/1 16/4/1 17/4/1
f 17/4/1 16/4/1 18/4/1
f 18/4/1 16/4/1 19/4/1
f 19/4/1 16/4/1 20/4/1
f 20/4/1 16/4/1 21/4/1
f 21/4/1 16/4/1 22/4/1
f 23/1/1 24/1/1 25/1/1
f 25/1/1 24/1/1 26/1/1
f 27/3/1 28/3/1 31/3/1
f 29/3/1 30/3/1 32/3/1
f 27/3/1 31/3/1 33/3/1
f 31/3/1 32/3/1 33/3/1
f 32/3/1 30/3/1 34/3/1
f 33/3/1 32/3/1 34/3/1
f 34/3/1 30/3/1 35/3/1
f 36/3/1 37/3/1 40/3/1
f 38/3/1 39/3/1 41/3/1
f 36/3/1 40/3/1 42/3/1
f 40/3/1 41/3/1 42/3/1
f 41/3/1 39/3/1 43/3/1
f 42/3/1 41/3/1 43/3/1
f 44/2/1 45/2/1 46/2/1
f 44/2/1 46/2/1 48/2/1
f 46/2/1 47/2/1 48/2/1
f 48/2/1 47/2/1 49/2/1
f 49/2/1 47/2/1 50/2/1
f 50/2/1 47/2/1 51/2/1
f 52/2/1 53/2/1 54/2/1
f 54/2/1 53/2/1 55/2/1
f 56/3/1 57/3/1 58/3/1
f 58/3/1 57/3/1 59/3/1
f 60/3/1 61/3/1 62/3/1
f 62/3/1 61/3/1 63/3/1
f 64/2/1 65/2/1 66/2/1
f 66/2/1 65/2/1 67/2/1
f 68/2/1 69/2/1 72/2/1
f 70/2/1 71/2/1 73/2/1
f 68/2/1 72/2/1 74/2/1
f 72/2/1 73/2/1 74/2/1
f 74/2/1 73/2/1 75/2/1
f 73/2/1 71/2/1 76/2/1
f 75/2/1 73/2/1 76/2/1
f 75/3/1 76/3/1 77/3/1
f 77/3/1 76/3/1 78/3/1
f 78/3/1 76/3/1 79/3/1
f 80/3/1 81/3/1 82/3/1
f 82/3/1 81/3/1 83/3/1
f 80/3/1 82/3/1 84/3/1
f 83/3/1 81/3/1 85/3/1
f 80/3/1 84/3/1 86/3/1
f 84/3/1 85/3/1 86/3/1
f 85/3/1 81/3/1 87/3/1
f 86/3/1 85/3/1 87/3/1
f 88/3/1 89/3/1 90/3/1
f 90/3/1 89/3/1 91/3/1
f 88/3/1 90/3/1 92/3/1
f 91/3/1 89/3/1 93/3/1
f 88/3/1 92/3/1 94/3/1
f 92/3/1 93/3/1 94/3/1
f 93/3/1 89/3/1 95/3/1
f 94/3/1 93/3/1 95/3/1
f 96/2/1 97/2/1 98/2/1
f 98/2/1 97/2/1 99/2/1
f 100/2/1 101/2/1 102/2/1
f 102/2/1 101/2/1 103/2/1
f 102/4/1 103/4/1 104/4/1
f 104/4/1 103/4/1 105/4/1
f 108/2/2 107/2/2 106/2/2
f 109/2/2 107/2/2 108/2/2
f 110/2/2 107/2/2 109/2/2
f 111/3/2 110/3/2 109/3/2
f 112/3/2 110/3/2 111/3/2
f 113/3/2 110/3/2 112/3/2
f 114/3/2 111/3/2 109/3/2
f 116/3/2 114/3/2 109/3/2
f 116/3/2 115/3/2 114/3/2
f 117/3/2 115/3/2 116/3/2
f 120/3/2 119/3/2 118/3/2
f 121/3/2 119/3/2 120/3/2
f 122/3/2 119/3/2 121/3/2
f 127/3/2 124/3/2 123/3/2
f 128/3/2 126/3/2 125/3/2
f 129/3/2 127/3/2 123/3/2
f 129/3/2 128/3/2 127/3/2
f 130/3/2 126/3/2 128/3/2
f 130/3/2 128/3/2 129/3/2
f 135/3/2 132/3/2 131/3/2
f 136/3/2 134/3/2 133/3/2
f 137/3/2 135/3/2 131/3/2
f 137/3/2 136/3/2 135/3/2
f 138/3/2 134/3/2 136/3/2
f 138/3/2 136/3/2 137/3/2
f 141/2/2 140/2/2 139/2/2
f 143/2/2 141/2/2 139/2/2
f 143/2/2 142/2/2 141/2/2
f 144/2/2 142/2/2 143/2/2
f 145/2/2 142/2/2 144/2/2
f 146/2/2 142/2/2 145/2/2
f 149/4/2 148/4/2 147/4/2
f 150/4/2 148/4/2 149/4/2
f 153/2/2 152/2/2 151/2/2
f 154/2/2 152/2/2 153/2/2
f 157/3/2 156/3/2 155/3/2
f 158/3/2 156/3/2 157/3/2
f 161/3/2 160/3/2 159/3/2
f 162/3/2 160/3/2 161/3/2
f 165/4/2 164/4/2 163/4/2
f 166/4/2 164/4/2 165/4/2
f 171/1/2 168/1/2 167/1/2
f 172/1/2 168/1/2 171/1/2
f 173/1/2 170/1/2 169/1/2
f 174/1/2 170/1/2 173/1/2
f 177/4/2 176/4/2 175/4/2
f 178/4/2 176/4/2 177/4/2
f 185/1/2 180/1/2 179/1/2
f 186/1/2 180/1/2 185/1/2
f 187/1/2 182/1/2 181/1/2
f 188/1/2 182/1/2 187/1/2
f 189/2/2 184/2/2 183/2/2
f 190/2/2 184/2/2 189/2/2
f 193/1/2 192/1/2 191/1/2
f 194/1/2 192/1/2 193/1/2
f 195/1/2 192/1/2 194/1/2
f 196/1/2 192/1/2 195/1/2
f 197/1/2 192/1/2 196/1/2
f 198/2/2 194/2/2 193/2/2
f 199/2/2 197/2/2 196/2/2
f 200/2/2 198/2/2 193/2/2
f 200/2/2 199/2/2 198/2/2
f 201/2/2 197/2/2 199/2/2
f 201/2/2 199/2/2 200/2/2
f 202/3/2 201/3/2 200/3/2
f 203/3/2 201/3/2 202/3/2
f 204/3/2 202/3/2 200/3/2
f 205/3/2 201/3/2 203/3/2
f 206/3/2 204/3/2 200/3/2
f 206/3/2 205/3/2 204/3/2
f 207/3/2 201/3/2 205/3/2
f 207/3/2 205/3/2 206/3/2
f 208/3/2 206/3/2 200/3/2
f 209/3/2 201/3/2 207/3/2
f 210/3/2 201/3/2 209/3/2
f 211/3/2 201/3/2 210/3/2
f 212/3/2 209/3/2 208/3/2
f 212/3/2 210/3/2 209/3/2
f 213/2/2 211/2/2 210/2/2
f 213/3/2 210/3/2 212/3/2
f 214/3/2 212/3/2 208/3/2
f 215/2/2 213/2/2 212/2/2
f 215/3/2 212/3/2 214/3/2
f 216/3/2 208/3/2 200/3/2
f 216/3/2 214/3/2 208/3/2
f 217/2/2 215/2/2 214/2/2
f 217/3/2 214/3/2 216/3/2
f 218/2/2 213/2/2 215/2/2
f 218/2/2 215/2/2 217/2/2
f 219/2/2 211/2/2 213/2/2
f 219/2/2 213/2/2 218/2/2
f 220/2/2 211/2/2 219/2/2
f 221/2/2 219/2/2 218/2/2
f 222/2/2 219/2/2 221/2/2
f 223/4/2 222/4/2 221/4/2
f 224/4/2 222/4/2 223/4/2
f 227/2/2 226/2/2 225/2/2
f 228/2/2 226/2/2 227/2/2
f 231/2/2 230/2/2 229/2/2
f 232/2/2 230/2/2 231/2/2
f 235/4/2 234/4/2 233/4/2
f 236/4/2 234/4/2 235/4/2
f 237/2/3 238/2/3 239/2/3
f 239/2/3 238/2/3 240/2/3
f 241/2/3 242/2/3 244/2/3
f 242/4/3 243/4/3 245/4/3
f 244/2/3 242/2/3 245/2/3
f 245/4/3 243/4/3 246/4/3
f 246/4/3 243/4/3 247/4/3
f 250/4/3 251/4/3 252/4/3
f 252/4/3 251/4/3 253/4/3
f 248/2/3 249/2/3 254/2/3
f 254/2/3 249/2/3 255/2/3
f 256/4/3 257/4/3 258/4/3
f 258/4/3 257/4/3 259/4/3
f 256/4/3 258/4/3 260/4/3
f 260/4/3 258/4/3 261/4/3
f 263/2/3 264/2/3 266/2/3
f 264/3/3 265/3/3 267/3/3
f 266/2/3 264/2/3 267/2/3
f 262/1/3 263/1/3 268/1/3
f 263/2/3 266/2/3 268/2/3
f 268/2/3 266/2/3 269/2/3
f 267/3/3 265/3/3 270/3/3
f 266/3/3 267/3/3 270/3/3
f 270/3/3 265/3/3 271/3/3
f 271/3/3 265/3/3 272/3/3
f 272/3/3 265/3/3 273/3/3
f 262/1/3 268/1/3 274/1/3
f 269/2/3 266/2/3 275/2/3
f 266/3/3 270/3/3 276/3/3
f 271/3/3 272/3/3 277/3/3
f 277/3/3 272/3/3 278/3/3
f 273/3/3 265/3/3 279/3/3
f 262/1/3 274/1/3 280/1/3
f 274/2/3 275/2/3 280/2/3
f 280/2/3 275/2/3 281/2/3
f 278/3/3 279/3/3 282/3/3
f 281/2/3 275/2/3 282/2/3
f 277/3/3 278/3/3 282/3/3
f 266/3/3 276/3/3 282/3/3
f 276/3/3 277/3/3 282/3/3
f 275/2/3 266/2/3 282/2/3
f 282/3/3 279/3/3 283/3/3
f 262/1/3 280/1/3 284/1/3
f 284/1/3 280/1/3 285/1/3
f 281/2/3 282/2/3 286/2/3
f 282/2/3 283/2/3 286/2/3
f 262/1/3 284/1/3 287/1/3
f 284/2/3 285/2/3 288/2/3
f 287/1/3 284/1/3 288/1/3
f 285/2/3 286/2/3 288/2/3
f 283/3/3 279/3/3 289/3/3
f 288/2/3 286/2/3 289/2/3
f 286/2/3 283/2/3 289/2/3
f 279/3/3 265/3/3 290/3/3
f 289/3/3 279/3/3 290/3/3
f 291/1/3 292/1/3 293/1/3
f 293/1/3 292/1/3 294/1/3
f 295/3/3 296/3/3 297/3/3
f 297/3/3 296/3/3 298/3/3
f 299/1/3 300/1/3 301/1/3
f 301/1/3 300/1/3 302/1/3
f 303/2/3 304/2/3 310/2/3
f 309/1/3 310/1/3 311/1/3
f 310/2/3 304/2/3 312/2/3
f 311/1/3 310/1/3 312/1/3
f 312/2/3 304/2/3 313/2/3
f 305/3/3 306/3/3 314/3/3
f 314/3/3 306/3/3 315/3/3
f 307/3/3 308/3/3 316/3/3
f 316/3/3 308/3/3 317/3/3
f 318/1/3 319/1/3 320/1/3
f 320/1/3 319/1/3 321/1/3
f 322/3/3 323/3/3 324/3/3
f 324/3/3 323/3/3 325/3/3
f 326/2/3 327/2/3 329/2/3
f 327/4/3 328/4/3 330/4/3
f 329/2/3 327/2/3 330/2/3
f 330/4/3 328/4/3 331/4/3
f 334/1/4 333/1/4 332/1/4
f 335/1/4 333/1/4 334/1/4
f 342/3/4 338/3/4 337/3/4
f 342/3/4 339/3/4 338/3/4
f 343/3/4 339/3/4 342/3/4
f 344/3/4 341/3/4 340/3/4
f 345/3/4 341/3/4 344/3/4
f 348/3/4 339/3/4 343/3/4
f 349/3/4 339/3/4 348/3/4
f 352/2/4 337/2/4 336/2/4
f 353/3/4 342/3/4 337/3/4
f 353/2/4 337/2/4 352/2/4
f 354/3/4 342/3/4 353/3/4
f 358/2/4 356/2/4 355/2/4
f 359/2/4 356/2/4 358/2/4
f 360/3/4 351/3/4 350/3/4
f 361/3/4 351/3/4 360/3/4
f 362/3/4 347/3/4 346/3/4
f 363/3/4 347/3/4 362/3/4
f 365/2/4 356/2/4 359/2/4
f 366/3/4 360/3/4 350/3/4
f 367/3/4 351/3/4 361/3/4
f 368/3/4 362/3/4 346/3/4
f 369/3/4 347/3/4 363/3/4
f 370/2/4 365/2/4 364/2/4
f 371/3/4 357/3/4 356/3/4
f 371/2/4 365/2/4 370/2/4
f 371/2/4 356/2/4 365/2/4
f 372/3/4 357/3/4 371/3/4
f 373/3/4 357/3/4 372/3/4
f 374/3/4 367/3/4 366/3/4
f 374/3/4 366/3/4 350/3/4
f 375/3/4 351/3/4 367/3/4
f 375/3/4 367/3/4 374/3/4
f 376/3/4 368/3/4 346/3/4
f 376/3/4 369/3/4 368/3/4
f 377/3/4 347/3/4 369/3/4
f 377/3/4 369/3/4 376/3/4
f 385/2/4 379/2/4 378/2/4
f 386/2/4 385/2/4 384/2/4
f 387/2/4 379/2/4 385/2/4
f 387/2/4 385/2/4 386/2/4
f 388/3/4 381/3/4 380/3/4
f 389/3/4 381/3/4 388/3/4
f 390/3/4 383/3/4 382/3/4
f 391/3/4 383/3/4 390/3/4
f 394/3/4 393/3/4 392/3/4
f 395/3/4 393/3/4 394/3/4
f 398/3/4 397/3/4 396/3/4
f 399/3/4 397/3/4 398/3/4
f 402/1/4 401/1/4 400/1/4
f 403/1/4 401/1/4 402/1/4
f 406/2/4 405/2/4 404/2/4
f 407/2/4 405/2/4 406/2/4
f 411/2/4 409/2/4 408/2/4
f 412/4/4 410/4/4 409/4/4
f 412/2/4 409/2/4 411/2/4
f 413/4/4 410/4/4 412/4/4
f 420/1/4 415/1/4 414/1/4
f 420/2/4 416/2/4 415/2/4
f 421/3/4 417/3/4 416/3/4
f 421/2/4 416/2/4 420/2/4
f 422/3/4 417/3/4 421/3/4
f 423/3/4 417/3/4 422/3/4
f 424/3/4 417/3/4 423/3/4
f 425/3/4 417/3/4 424/3/4
f 426/3/4 417/3/4 425/3/4
f 427/3/4 417/3/4 426/3/4
f 428/1/4 426/1/4 425/1/4
f 429/3/4 417/3/4 427/3/4
f 430/1/4 428/1/4 425/1/4
f 430/3/4 429/3/4 428/3/4
f 431/3/4 417/3/4 429/3/4
f 431/3/4 429/3/4 430/3/4
f 432/2/4 418/2/4 417/2/4
f 432/3/4 417/3/4 431/3/4
f 433/1/4 424/1/4 423/1/4
f 433/3/4 423/3/4 422/3/4
f 434/1/4 424/1/4 433/1/4
f 435/1/4 430/1/4 425/1/4
f 436/3/4 434/3/4 433/3/4
f 436/3/4 435/3/4 434/3/4
f 436/3/4 433/3/4 422/3/4
f 437/3/4 435/3/4 436/3/4
f 438/1/4 430/1/4 435/1/4
f 438/3/4 435/3/4 437/3/4
f 440/3/4 436/3/4 422/3/4
f 441/2/4 440/2/4 439/2/4
f 442/3/4 436/3/4 440/3/4
f 442/2/4 440/2/4 441/2/4
f 443/4/4 419/4/4 418/4/4
f 444/4/4 419/4/4 443/4/4
f 445/4/4 443/4/4 418/4/4
f 446/4/4 443/4/4 445/4/4
f 447/1/4 420/1/4 414/1/4
f 449/3/4 436/3/4 442/3/4
f 450/1/4 437/1/4 436/1/4
f 450/3/4 436/3/4 449/3/4
f 451/1/4 437/1/4 450/1/4
f 452/1/4 430/1/4 438/1/4
f 453/1/4 430/1/4 452/1/4
f 454/1/4 432/1/4 431/1/4
f 455/2/4 418/2/4 432/2/4
f 455/1/4 432/1/4 454/1/4
f 456/4/4 445/4/4 418/4/4
f 457/4/4 445/4/4 456/4/4
f 458/3/4 454/3/4 453/3/4
f 458/3/4 449/3/4 448/3/4
f 458/3/4 453/3/4 452/3/4
f 458/3/4 455/3/4 454/3/4
f 458/3/4 451/3/4 450/3/4
f 458/3/4 452/3/4 451/3/4
f 458/3/4 450/3/4 449/3/4
f 459/2/4 418/2/4 455/2/4
f 459/3/4 455/3/4 458/3/4
f 460/1/4 447/1/4 414/1/4
f 461/2/4 448/2/4 447/2/4
f 461/1/4 447/1/4 460/1/4
f 462/3/4 458/3/4 448/3/4
f 462/2/4 448/2/4 461/2/4
f 463/2/4 459/2/4 458/2/4
f 463/3/4 458/3/4 462/3/4
f 464/2/4 459/2/4 463/2/4
f 465/2/4 459/2/4 464/2/4
f 466/2/4 418/2/4 459/2/4
f 466/2/4 459/2/4 465/2/4
f 467/2/4 418/2/4 466/2/4
f 468/4/4 456/4/4 418/4/4
f 468/2/4 418/2/4 467/2/4
f 469/4/4 456/4/4 468/4/4
f 470/4/4 456/4/4 469/4/4
f 471/1/5 472/1/5 473/1/5
f 473/1/5 472/1/5 474/1/5
f 475/2/5 476/2/5 477/2/5
f 477/2/5 476/2/5 478/2/5
f 479/2/5 480/2/5 481/2/5
f 481/2/5 480/2/5 482/2/5
f 483/2/5 484/2/5 485/2/5
f 485/2/5 484/2/5 486/2/5
f 487/2/5 488/2/5 489/2/5
f 489/2/5 488/2/5 490/2/5
f 491/2/5 492/2/5 493/2/5
f 493/2/5 492/2/5 494/2/5
f 495/1/5 496/1/5 500/1/5
f 499/1/5 500/1/5 501/1/5
f 500/1/5 496/1/5 502/1/5
f 501/1/5 500/1/5 502/1/5
f 497/1/5 498/1/5 503/1/5
f 503/1/5 498/1/5 504/1/5
f 501/3/5 502/3/5 505/3/5
f 505/3/5 502/3/5 506/3/5
f 503/3/5 504/3/5 507/3/5
f 507/3/5 504/3/5 508/3/5
f 509/3/5 510/3/5 511/3/5
f 511/3/5 510/3/5 512/3/5
f 513/3/5 514/3/5 515/3/5
f 515/3/5 514/3/5 516/3/5
f 517/3/5 518/3/5 519/3/5
f 519/3/5 518/3/5 520/3/5
f 521/1/5 522/1/5 525/1/5
f 525/1/5 522/1/5 526/1/5
f 523/1/5 524/1/5 527/1/5
f 527/1/5 524/1/5 528/1/5
f 529/3/5 530/3/5 531/3/5
f 531/3/5 530/3/5 532/3/5
f 533/3/5 534/3/5 535/3/5
f 535/3/5 534/3/5 536/3/5
f 537/3/5 538/3/5 539/3/5
f 539/3/5 538/3/5 540/3/5
f 541/2/5 542/2/5 543/2/5
f 543/2/5 542/2/5 544/2/5
f 544/2/5 542/2/5 549/2/5
f 545/1/5 546/1/5 550/1/5
f 550/1/5 546/1/5 551/1/5
f 549/2/5 542/2/5 552/2/5
f 552/2/5 542/2/5 553/2/5
f 553/2/5 542/2/5 555/2/5
f 550/3/5 551/3/5 556/3/5
f 556/3/5 551/3/5 557/3/5
f 547/1/5 548/1/5 558/1/5
f 558/1/5 548/1/5 559/1/5
f 554/2/5 555/2/5 560/2/5
f 555/2/5 542/2/5 561/2/5
f 560/2/5 555/2/5 561/2/5
f 562/2/5 563/2/5 564/2/5
f 564/2/5 563/2/5 565/2/5
f 565/2/5 563/2/5 566/2/5
f 566/2/5 563/2/5 567/2/5
f 568/4/5 569/4/5 570/4/5
f 570/4/5 569/4/5 571/4/5
f 574/1/6 573/1/6 572/1/6
f 575/1/6 573/1/6 574/1/6
f 578/1/6 576/1/6 575/1/6
f 579/1/6 578/1/6 577/1/6
f 580/1/6 576/1/6 578/1/6
f 580/1/6 578/1/6 579/1/6
f 581/1/6 576/1/6 580/1/6
f 582/1/6 576/1/6 581/1/6
f 588/1/6 584/1/6 583/1/6
f 589/1/6 584/1/6 588/1/6
f 591/1/6 588/1/6 587/1/6
f 591/1/6 590/1/6 589/1/6
f 591/1/6 589/1/6 588/1/6
f 593/1/6 591/1/6 587/1/6
f 593/1/6 592/1/6 591/1/6
f 594/1/6 592/1/6 593/1/6
f 595/1/6 593/1/6 587/1/6
f 597/1/6 595/1/6 587/1/6
f 597/1/6 596/1/6 595/1/6
f 598/1/6 596/1/6 597/1/6
f 599/1/6 586/1/6 585/1/6
f 600/1/6 597/1/6 587/1/6
f 601/1/6 599/1/6 585/1/6
f 601/1/6 600/1/6 599/1/6
f 602/1/6 597/1/6 600/1/6
f 602/1/6 600/1/6 601/1/6
f 605/2/6 604/2/6 603/2/6
f 606/2/6 604/2/6 605/2/6
f 611/1/6 608/1/6 607/1/6
f 612/1/6 610/1/6 609/1/6
f 613/1/6 611/1/6 607/1/6
f 613/1/6 612/1/6 611/1/6
f 614/1/6 610/1/6 612/1/6
f 614/1/6 612/1/6 613/1/6
f 616/1/6 613/1/6 607/1/6
f 617/1/6 616/1/6 615/1/6
f 618/1/6 613/1/6 616/1/6
f 618/1/6 616/1/6 617/1/6
f 619/1/6 610/1/6 614/1/6
f 620/1/6 610/1/6 619/1/6
f 623/3/6 622/3/6 621/3/6
f 624/3/6 622/3/6 623/3/6
f 627/3/6 626/3/6 625/3/6
f 628/3/6 626/3/6 627/3/6
f 633/1/6 630/1/6 629/1/6
f 634/1/6 632/1/6 631/1/6
f 635/1/6 633/1/6 629/1/6
f 635/1/6 634/1/6 633/1/6
f 636/1/6 632/1/6 634/1/6
f 636/1/6 634/1/6 635/1/6
f 637/1/6 635/1/6 629/1/6
f 638/1/6 635/1/6 637/1/6
f 639/1/6 632/1/6 636/1/6
f 640/1/6 632/1/6 639/1/6
f 643/3/6 642/3/6 641/3/6
f 644/3/6 642/3/6 643/3/6
f 647/3/6 646/3/6 645/3/6
f 648/3/6 646/3/6 647/3/6
f 651/4/6 650/4/6 649/4/6
f 652/4/6 650/4/6 651/4/6
f 653/4/6 650/4/6 652/4/6
f 654/4/6 650/4/6 653/4/6
f 655/4/6 653/4/6 652/4/6
f 656/4/6 650/4/6 654/4/6
f 657/4/6 655/4/6 652/4/6
f 657/4/6 656/4/6 655/4/6
f 658/4/6 650/4/6 656/4/6
f 658/4/6 656/4/6 657/4/6
f 661/4/6 660/4/6 659/4/6
f 662/4/6 660/4/6 661/4/6
f 663/4/6 660/4/6 662/4/6
f 664/4/6 660/4/6 663/4/6
f 667/4/6 666/4/6 665/4/6
f 668/4/6 666/4/6 667/4/6
f 671/4/6 670/4/6 669/4/6
f 672/4/6 670/4/6 671/4/6
