# MagicaVoxel @ Ephtracy

# group
o 

# material
mtllib Banca di credito metallo-0.mtl
usemtl palette

# normals
vn -1 0 0
vn 1 0 0
vn 0 0 1
vn 0 0 -1
vn 0 -1 0
vn 0 1 0

# texcoords
vt 0.880859 0.5
vt 0.908203 0.5
vt 0.986328 0.5
vt 0.990234 0.5
vt 0.994141 0.5

# verts
v -4.4 0 -37.7
v -4.4 0 -47.1
v -4.4 0.1 -37.7
v -4.4 0.1 -47.1
v 0.8 6 -42.2
v 0.8 6 -42.6
v 0.8 6.2 -42.2
v 0.8 6.2 -42.6
v 0.9 5.9 -42.2
v 0.9 5.9 -42.6
v 0.9 6 -42.2
v 0.9 6 -42.6
v 2.9 4.8 -38.1
v 2.9 4.8 -38.3
v 2.9 4.8 -38.5
v 2.9 4.8 -38.7
v 2.9 4.8 -46.1
v 2.9 4.8 -46.3
v 2.9 4.8 -46.5
v 2.9 4.8 -46.7
v 2.9 5 -38.1
v 2.9 5 -38.3
v 2.9 5 -38.5
v 2.9 5 -38.7
v 2.9 5 -46.1
v 2.9 5 -46.3
v 2.9 5 -46.5
v 2.9 5 -46.7
v 3 4.7 -38.1
v 3 4.7 -38.3
v 3 4.7 -38.5
v 3 4.7 -38.7
v 3 4.7 -46.1
v 3 4.7 -46.3
v 3 4.7 -46.5
v 3 4.7 -46.7
v 3 4.8 -38.1
v 3 4.8 -38.3
v 3 4.8 -38.5
v 3 4.8 -38.7
v 3 4.8 -46.1
v 3 4.8 -46.3
v 3 4.8 -46.5
v 3 4.8 -46.7
v 3.5 0.7 -38.2
v 3.5 0.7 -38.3
v 3.5 0.7 -38.6
v 3.5 0.7 -39
v 3.5 0.7 -41.3
v 3.5 0.7 -41.4
v 3.5 0.7 -42
v 3.5 0.7 -42.1
v 3.5 0.7 -42.7
v 3.5 0.7 -43.5
v 3.5 0.7 -45.8
v 3.5 0.7 -45.9
v 3.5 0.7 -46.5
v 3.5 0.7 -46.6
v 3.5 1.8 -38.2
v 3.5 1.8 -38.3
v 3.5 1.8 -38.6
v 3.5 1.8 -39
v 3.5 1.8 -41.3
v 3.5 1.8 -41.4
v 3.5 1.8 -42
v 3.5 1.8 -42.1
v 3.5 1.8 -42.7
v 3.5 1.8 -43.5
v 3.5 1.8 -45.8
v 3.5 1.8 -45.9
v 3.5 1.8 -46.5
v 3.5 1.8 -46.6
v 3.5 2.6 -38.2
v 3.5 2.6 -38.3
v 3.5 2.6 -38.9
v 3.5 2.6 -39
v 3.5 2.6 -41.3
v 3.5 2.6 -41.4
v 3.5 2.6 -42
v 3.5 2.6 -42.1
v 3.5 2.6 -42.7
v 3.5 2.6 -42.8
v 3.5 2.6 -43.4
v 3.5 2.6 -43.5
v 3.5 2.6 -45.8
v 3.5 2.6 -45.9
v 3.5 2.6 -46.2
v 3.5 2.6 -46.6
v 3.5 3.7 -38.2
v 3.5 3.7 -38.3
v 3.5 3.7 -38.9
v 3.5 3.7 -39
v 3.5 3.7 -41.3
v 3.5 3.7 -41.4
v 3.5 3.7 -42
v 3.5 3.7 -42.1
v 3.5 3.7 -42.7
v 3.5 3.7 -42.8
v 3.5 3.7 -43.4
v 3.5 3.7 -43.5
v 3.5 3.7 -45.8
v 3.5 3.7 -45.9
v 3.5 3.7 -46.2
v 3.5 3.7 -46.6
v 3.6 0.2 -37.9
v 3.6 0.2 -38
v 3.6 0.2 -46.8
v 3.6 0.2 -46.9
v 3.6 1.1 -39.2
v 3.6 1.1 -39.3
v 3.6 1.1 -39.4
v 3.6 1.1 -39.5
v 3.6 1.3 -39.2
v 3.6 1.3 -39.3
v 3.6 1.4 -39.4
v 3.6 1.4 -39.5
v 3.6 3.8 -37.9
v 3.6 3.8 -38
v 3.6 3.8 -46.8
v 3.6 3.8 -46.9
v 3.6 4 -37.7
v 3.6 4 -47.1
v 3.6 4.1 -37.7
v 3.6 4.1 -47.1
v 3.7 3.8 -37.9
v 3.7 3.8 -38
v 3.7 3.8 -46.8
v 3.7 3.8 -46.9
v 3.7 4 -37.9
v 3.7 4 -38
v 3.7 4 -46.8
v 3.7 4 -46.9
v 1 5.9 -42.2
v 1 5.9 -42.6
v 1 6.2 -42.2
v 1 6.2 -42.6
v 3.1 4.7 -38.1
v 3.1 4.7 -38.3
v 3.1 4.7 -38.5
v 3.1 4.7 -38.7
v 3.1 4.7 -46.1
v 3.1 4.7 -46.3
v 3.1 4.7 -46.5
v 3.1 4.7 -46.7
v 3.1 5 -38.1
v 3.1 5 -38.3
v 3.1 5 -38.5
v 3.1 5 -38.7
v 3.1 5 -46.1
v 3.1 5 -46.3
v 3.1 5 -46.5
v 3.1 5 -46.7
v 3.6 0 -37.7
v 3.6 0 -47.1
v 3.6 0.1 -37.7
v 3.6 0.1 -47.1
v 3.6 0.7 -38.6
v 3.6 0.7 -39
v 3.6 0.7 -42.7
v 3.6 0.7 -43.5
v 3.6 1.8 -38.6
v 3.6 1.8 -39
v 3.6 1.8 -42.7
v 3.6 1.8 -43.5
v 3.6 2.6 -46.2
v 3.6 2.6 -46.6
v 3.6 3.7 -46.2
v 3.6 3.7 -46.6
v 3.7 0.3 -37.9
v 3.7 0.3 -38
v 3.7 0.3 -46.8
v 3.7 0.3 -46.9
v 3.7 1.1 -39.2
v 3.7 1.1 -39.3
v 3.7 1.1 -39.4
v 3.7 1.1 -39.5
v 3.7 1.3 -39.2
v 3.7 1.3 -39.3
v 3.7 1.4 -39.4
v 3.7 1.4 -39.5
v 3.7 3.7 -37.9
v 3.7 3.7 -38
v 3.7 3.7 -46.8
v 3.7 3.7 -46.9
v 3.7 4 -37.7
v 3.7 4 -37.9
v 3.7 4 -38
v 3.7 4 -46.8
v 3.7 4 -46.9
v 3.7 4 -47.1
v 3.7 4.1 -37.7
v 3.7 4.1 -37.9
v 3.7 4.1 -38
v 3.7 4.1 -46.8
v 3.7 4.1 -46.9
v 3.7 4.1 -47.1
v 3.8 0.2 -37.9
v 3.8 0.2 -38
v 3.8 0.2 -46.8
v 3.8 0.2 -46.9
v 3.8 0.3 -37.9
v 3.8 0.3 -38
v 3.8 0.3 -46.8
v 3.8 0.3 -46.9
v 3.8 0.7 -38.2
v 3.8 0.7 -38.3
v 3.8 0.7 -41.3
v 3.8 0.7 -41.4
v 3.8 0.7 -42
v 3.8 0.7 -42.1
v 3.8 0.7 -45.8
v 3.8 0.7 -45.9
v 3.8 0.7 -46.5
v 3.8 0.7 -46.6
v 3.8 1.8 -38.2
v 3.8 1.8 -38.3
v 3.8 1.8 -41.3
v 3.8 1.8 -41.4
v 3.8 1.8 -42
v 3.8 1.8 -42.1
v 3.8 1.8 -45.8
v 3.8 1.8 -45.9
v 3.8 1.8 -46.5
v 3.8 1.8 -46.6
v 3.8 2.6 -38.2
v 3.8 2.6 -38.3
v 3.8 2.6 -38.9
v 3.8 2.6 -39
v 3.8 2.6 -41.3
v 3.8 2.6 -41.4
v 3.8 2.6 -42
v 3.8 2.6 -42.1
v 3.8 2.6 -42.7
v 3.8 2.6 -42.8
v 3.8 2.6 -43.4
v 3.8 2.6 -43.5
v 3.8 2.6 -45.8
v 3.8 2.6 -45.9
v 3.8 3.7 -37.9
v 3.8 3.7 -38
v 3.8 3.7 -38.2
v 3.8 3.7 -38.3
v 3.8 3.7 -38.9
v 3.8 3.7 -39
v 3.8 3.7 -41.3
v 3.8 3.7 -41.4
v 3.8 3.7 -42
v 3.8 3.7 -42.1
v 3.8 3.7 -42.7
v 3.8 3.7 -42.8
v 3.8 3.7 -43.4
v 3.8 3.7 -43.5
v 3.8 3.7 -45.8
v 3.8 3.7 -45.9
v 3.8 3.7 -46.8
v 3.8 3.7 -46.9
v 3.8 4.1 -37.9
v 3.8 4.1 -38
v 3.8 4.1 -46.8
v 3.8 4.1 -46.9
v -4.4 0 -37.7
v -4.4 0.1 -37.7
v 3.6 0 -37.7
v 3.6 0.1 -37.7
v 3.6 4 -37.7
v 3.6 4.1 -37.7
v 3.7 4 -37.7
v 3.7 4.1 -37.7
v 3.6 0.2 -37.9
v 3.6 3.8 -37.9
v 3.7 0.3 -37.9
v 3.7 3.7 -37.9
v 3.7 3.8 -37.9
v 3.7 4 -37.9
v 3.7 4.1 -37.9
v 3.8 0.2 -37.9
v 3.8 0.3 -37.9
v 3.8 3.7 -37.9
v 3.8 4.1 -37.9
v 2.9 4.8 -38.1
v 2.9 5 -38.1
v 3 4.7 -38.1
v 3 4.8 -38.1
v 3.1 4.7 -38.1
v 3.1 5 -38.1
v 3.5 0.7 -38.2
v 3.5 1.8 -38.2
v 3.5 2.6 -38.2
v 3.5 3.7 -38.2
v 3.8 0.7 -38.2
v 3.8 1.8 -38.2
v 3.8 2.6 -38.2
v 3.8 3.7 -38.2
v 2.9 4.8 -38.5
v 2.9 5 -38.5
v 3 4.7 -38.5
v 3 4.8 -38.5
v 3.1 4.7 -38.5
v 3.1 5 -38.5
v 3.5 0.7 -38.6
v 3.5 1.8 -38.6
v 3.6 0.7 -38.6
v 3.6 1.8 -38.6
v 3.5 2.6 -38.9
v 3.5 3.7 -38.9
v 3.8 2.6 -38.9
v 3.8 3.7 -38.9
v 3.6 1.1 -39.2
v 3.6 1.3 -39.2
v 3.7 1.1 -39.2
v 3.7 1.3 -39.2
v 3.6 1.1 -39.4
v 3.6 1.4 -39.4
v 3.7 1.1 -39.4
v 3.7 1.4 -39.4
v 3.5 0.7 -41.3
v 3.5 1.8 -41.3
v 3.5 2.6 -41.3
v 3.5 3.7 -41.3
v 3.8 0.7 -41.3
v 3.8 1.8 -41.3
v 3.8 2.6 -41.3
v 3.8 3.7 -41.3
v 3.5 0.7 -42
v 3.5 1.8 -42
v 3.5 2.6 -42
v 3.5 3.7 -42
v 3.8 0.7 -42
v 3.8 1.8 -42
v 3.8 2.6 -42
v 3.8 3.7 -42
v 0.8 6 -42.2
v 0.8 6.2 -42.2
v 0.9 5.9 -42.2
v 0.9 6 -42.2
v 1 5.9 -42.2
v 1 6.2 -42.2
v 3.5 0.7 -42.7
v 3.5 1.8 -42.7
v 3.5 2.6 -42.7
v 3.5 3.7 -42.7
v 3.6 0.7 -42.7
v 3.6 1.8 -42.7
v 3.8 2.6 -42.7
v 3.8 3.7 -42.7
v 3.5 2.6 -43.4
v 3.5 3.7 -43.4
v 3.8 2.6 -43.4
v 3.8 3.7 -43.4
v 3.5 0.7 -45.8
v 3.5 1.8 -45.8
v 3.5 2.6 -45.8
v 3.5 3.7 -45.8
v 3.8 0.7 -45.8
v 3.8 1.8 -45.8
v 3.8 2.6 -45.8
v 3.8 3.7 -45.8
v 2.9 4.8 -46.1
v 2.9 5 -46.1
v 3 4.7 -46.1
v 3 4.8 -46.1
v 3.1 4.7 -46.1
v 3.1 5 -46.1
v 3.5 2.6 -46.2
v 3.5 3.7 -46.2
v 3.6 2.6 -46.2
v 3.6 3.7 -46.2
v 2.9 4.8 -46.5
v 2.9 5 -46.5
v 3 4.7 -46.5
v 3 4.8 -46.5
v 3.1 4.7 -46.5
v 3.1 5 -46.5
v 3.5 0.7 -46.5
v 3.5 1.8 -46.5
v 3.8 0.7 -46.5
v 3.8 1.8 -46.5
v 3.6 0.2 -46.8
v 3.6 3.8 -46.8
v 3.7 0.3 -46.8
v 3.7 3.7 -46.8
v 3.7 3.8 -46.8
v 3.7 4 -46.8
v 3.7 4.1 -46.8
v 3.8 0.2 -46.8
v 3.8 0.3 -46.8
v 3.8 3.7 -46.8
v 3.8 4.1 -46.8
v 3.6 0.2 -38
v 3.6 3.8 -38
v 3.7 0.3 -38
v 3.7 3.7 -38
v 3.7 3.8 -38
v 3.7 4 -38
v 3.7 4.1 -38
v 3.8 0.2 -38
v 3.8 0.3 -38
v 3.8 3.7 -38
v 3.8 4.1 -38
v 2.9 4.8 -38.3
v 2.9 5 -38.3
v 3 4.7 -38.3
v 3 4.8 -38.3
v 3.1 4.7 -38.3
v 3.1 5 -38.3
v 3.5 0.7 -38.3
v 3.5 1.8 -38.3
v 3.5 2.6 -38.3
v 3.5 3.7 -38.3
v 3.8 0.7 -38.3
v 3.8 1.8 -38.3
v 3.8 2.6 -38.3
v 3.8 3.7 -38.3
v 2.9 4.8 -38.7
v 2.9 5 -38.7
v 3 4.7 -38.7
v 3 4.8 -38.7
v 3.1 4.7 -38.7
v 3.1 5 -38.7
v 3.5 0.7 -39
v 3.5 1.8 -39
v 3.5 2.6 -39
v 3.5 3.7 -39
v 3.6 0.7 -39
v 3.6 1.8 -39
v 3.8 2.6 -39
v 3.8 3.7 -39
v 3.6 1.1 -39.3
v 3.6 1.3 -39.3
v 3.7 1.1 -39.3
v 3.7 1.3 -39.3
v 3.6 1.1 -39.5
v 3.6 1.4 -39.5
v 3.7 1.1 -39.5
v 3.7 1.4 -39.5
v 3.5 0.7 -41.4
v 3.5 1.8 -41.4
v 3.5 2.6 -41.4
v 3.5 3.7 -41.4
v 3.8 0.7 -41.4
v 3.8 1.8 -41.4
v 3.8 2.6 -41.4
v 3.8 3.7 -41.4
v 3.5 0.7 -42.1
v 3.5 1.8 -42.1
v 3.5 2.6 -42.1
v 3.5 3.7 -42.1
v 3.8 0.7 -42.1
v 3.8 1.8 -42.1
v 3.8 2.6 -42.1
v 3.8 3.7 -42.1
v 0.8 6 -42.6
v 0.8 6.2 -42.6
v 0.9 5.9 -42.6
v 0.9 6 -42.6
v 1 5.9 -42.6
v 1 6.2 -42.6
v 3.5 2.6 -42.8
v 3.5 3.7 -42.8
v 3.8 2.6 -42.8
v 3.8 3.7 -42.8
v 3.5 0.7 -43.5
v 3.5 1.8 -43.5
v 3.5 2.6 -43.5
v 3.5 3.7 -43.5
v 3.6 0.7 -43.5
v 3.6 1.8 -43.5
v 3.8 2.6 -43.5
v 3.8 3.7 -43.5
v 3.5 0.7 -45.9
v 3.5 1.8 -45.9
v 3.5 2.6 -45.9
v 3.5 3.7 -45.9
v 3.8 0.7 -45.9
v 3.8 1.8 -45.9
v 3.8 2.6 -45.9
v 3.8 3.7 -45.9
v 2.9 4.8 -46.3
v 2.9 5 -46.3
v 3 4.7 -46.3
v 3 4.8 -46.3
v 3.1 4.7 -46.3
v 3.1 5 -46.3
v 3.5 0.7 -46.6
v 3.5 1.8 -46.6
v 3.5 2.6 -46.6
v 3.5 3.7 -46.6
v 3.6 2.6 -46.6
v 3.6 3.7 -46.6
v 3.8 0.7 -46.6
v 3.8 1.8 -46.6
v 2.9 4.8 -46.7
v 2.9 5 -46.7
v 3 4.7 -46.7
v 3 4.8 -46.7
v 3.1 4.7 -46.7
v 3.1 5 -46.7
v 3.6 0.2 -46.9
v 3.6 3.8 -46.9
v 3.7 0.3 -46.9
v 3.7 3.7 -46.9
v 3.7 3.8 -46.9
v 3.7 4 -46.9
v 3.7 4.1 -46.9
v 3.8 0.2 -46.9
v 3.8 0.3 -46.9
v 3.8 3.7 -46.9
v 3.8 4.1 -46.9
v -4.4 0 -47.1
v -4.4 0.1 -47.1
v 3.6 0 -47.1
v 3.6 0.1 -47.1
v 3.6 4 -47.1
v 3.6 4.1 -47.1
v 3.7 4 -47.1
v 3.7 4.1 -47.1
v -4.4 0 -37.7
v 3.6 0 -37.7
v -4.4 0 -47.1
v 3.6 0 -47.1
v 3.6 0.2 -37.9
v 3.8 0.2 -37.9
v 3.6 0.2 -38
v 3.8 0.2 -38
v 3.6 0.2 -46.8
v 3.8 0.2 -46.8
v 3.6 0.2 -46.9
v 3.8 0.2 -46.9
v 3.5 0.7 -38.2
v 3.8 0.7 -38.2
v 3.5 0.7 -38.3
v 3.8 0.7 -38.3
v 3.5 0.7 -38.6
v 3.6 0.7 -38.6
v 3.5 0.7 -39
v 3.6 0.7 -39
v 3.5 0.7 -41.3
v 3.8 0.7 -41.3
v 3.5 0.7 -41.4
v 3.8 0.7 -41.4
v 3.5 0.7 -42
v 3.8 0.7 -42
v 3.5 0.7 -42.1
v 3.8 0.7 -42.1
v 3.5 0.7 -42.7
v 3.6 0.7 -42.7
v 3.5 0.7 -43.5
v 3.6 0.7 -43.5
v 3.5 0.7 -45.8
v 3.8 0.7 -45.8
v 3.5 0.7 -45.9
v 3.8 0.7 -45.9
v 3.5 0.7 -46.5
v 3.8 0.7 -46.5
v 3.5 0.7 -46.6
v 3.8 0.7 -46.6
v 3.6 1.1 -39.2
v 3.7 1.1 -39.2
v 3.6 1.1 -39.3
v 3.7 1.1 -39.3
v 3.6 1.1 -39.4
v 3.7 1.1 -39.4
v 3.6 1.1 -39.5
v 3.7 1.1 -39.5
v 3.5 2.6 -38.2
v 3.8 2.6 -38.2
v 3.5 2.6 -38.3
v 3.8 2.6 -38.3
v 3.5 2.6 -38.9
v 3.8 2.6 -38.9
v 3.5 2.6 -39
v 3.8 2.6 -39
v 3.5 2.6 -41.3
v 3.8 2.6 -41.3
v 3.5 2.6 -41.4
v 3.8 2.6 -41.4
v 3.5 2.6 -42
v 3.8 2.6 -42
v 3.5 2.6 -42.1
v 3.8 2.6 -42.1
v 3.5 2.6 -42.7
v 3.8 2.6 -42.7
v 3.5 2.6 -42.8
v 3.8 2.6 -42.8
v 3.5 2.6 -43.4
v 3.8 2.6 -43.4
v 3.5 2.6 -43.5
v 3.8 2.6 -43.5
v 3.5 2.6 -45.8
v 3.8 2.6 -45.8
v 3.5 2.6 -45.9
v 3.8 2.6 -45.9
v 3.5 2.6 -46.2
v 3.6 2.6 -46.2
v 3.5 2.6 -46.6
v 3.6 2.6 -46.6
v 3.7 3.7 -37.9
v 3.8 3.7 -37.9
v 3.7 3.7 -38
v 3.8 3.7 -38
v 3.7 3.7 -46.8
v 3.8 3.7 -46.8
v 3.7 3.7 -46.9
v 3.8 3.7 -46.9
v 3.6 4 -37.7
v 3.7 4 -37.7
v 3.7 4 -37.9
v 3.7 4 -38
v 3.7 4 -46.8
v 3.7 4 -46.9
v 3.6 4 -47.1
v 3.7 4 -47.1
v 3 4.7 -38.1
v 3.1 4.7 -38.1
v 3 4.7 -38.3
v 3.1 4.7 -38.3
v 3 4.7 -38.5
v 3.1 4.7 -38.5
v 3 4.7 -38.7
v 3.1 4.7 -38.7
v 3 4.7 -46.1
v 3.1 4.7 -46.1
v 3 4.7 -46.3
v 3.1 4.7 -46.3
v 3 4.7 -46.5
v 3.1 4.7 -46.5
v 3 4.7 -46.7
v 3.1 4.7 -46.7
v 2.9 4.8 -38.1
v 3 4.8 -38.1
v 2.9 4.8 -38.3
v 3 4.8 -38.3
v 2.9 4.8 -38.5
v 3 4.8 -38.5
v 2.9 4.8 -38.7
v 3 4.8 -38.7
v 2.9 4.8 -46.1
v 3 4.8 -46.1
v 2.9 4.8 -46.3
v 3 4.8 -46.3
v 2.9 4.8 -46.5
v 3 4.8 -46.5
v 2.9 4.8 -46.7
v 3 4.8 -46.7
v 0.9 5.9 -42.2
v 1 5.9 -42.2
v 0.9 5.9 -42.6
v 1 5.9 -42.6
v 0.8 6 -42.2
v 0.9 6 -42.2
v 0.8 6 -42.6
v 0.9 6 -42.6
v -4.4 0.1 -37.7
v 3.6 0.1 -37.7
v -4.4 0.1 -47.1
v 3.6 0.1 -47.1
v 3.7 0.3 -37.9
v 3.8 0.3 -37.9
v 3.7 0.3 -38
v 3.8 0.3 -38
v 3.7 0.3 -46.8
v 3.8 0.3 -46.8
v 3.7 0.3 -46.9
v 3.8 0.3 -46.9
v 3.6 1.3 -39.2
v 3.7 1.3 -39.2
v 3.6 1.3 -39.3
v 3.7 1.3 -39.3
v 3.6 1.4 -39.4
v 3.7 1.4 -39.4
v 3.6 1.4 -39.5
v 3.7 1.4 -39.5
v 3.5 1.8 -38.2
v 3.8 1.8 -38.2
v 3.5 1.8 -38.3
v 3.8 1.8 -38.3
v 3.5 1.8 -38.6
v 3.6 1.8 -38.6
v 3.5 1.8 -39
v 3.6 1.8 -39
v 3.5 1.8 -41.3
v 3.8 1.8 -41.3
v 3.5 1.8 -41.4
v 3.8 1.8 -41.4
v 3.5 1.8 -42
v 3.8 1.8 -42
v 3.5 1.8 -42.1
v 3.8 1.8 -42.1
v 3.5 1.8 -42.7
v 3.6 1.8 -42.7
v 3.5 1.8 -43.5
v 3.6 1.8 -43.5
v 3.5 1.8 -45.8
v 3.8 1.8 -45.8
v 3.5 1.8 -45.9
v 3.8 1.8 -45.9
v 3.5 1.8 -46.5
v 3.8 1.8 -46.5
v 3.5 1.8 -46.6
v 3.8 1.8 -46.6
v 3.5 3.7 -38.2
v 3.8 3.7 -38.2
v 3.5 3.7 -38.3
v 3.8 3.7 -38.3
v 3.5 3.7 -38.9
v 3.8 3.7 -38.9
v 3.5 3.7 -39
v 3.8 3.7 -39
v 3.5 3.7 -41.3
v 3.8 3.7 -41.3
v 3.5 3.7 -41.4
v 3.8 3.7 -41.4
v 3.5 3.7 -42
v 3.8 3.7 -42
v 3.5 3.7 -42.1
v 3.8 3.7 -42.1
v 3.5 3.7 -42.7
v 3.8 3.7 -42.7
v 3.5 3.7 -42.8
v 3.8 3.7 -42.8
v 3.5 3.7 -43.4
v 3.8 3.7 -43.4
v 3.5 3.7 -43.5
v 3.8 3.7 -43.5
v 3.5 3.7 -45.8
v 3.8 3.7 -45.8
v 3.5 3.7 -45.9
v 3.8 3.7 -45.9
v 3.5 3.7 -46.2
v 3.6 3.7 -46.2
v 3.5 3.7 -46.6
v 3.6 3.7 -46.6
v 3.6 3.8 -37.9
v 3.7 3.8 -37.9
v 3.6 3.8 -38
v 3.7 3.8 -38
v 3.6 3.8 -46.8
v 3.7 3.8 -46.8
v 3.6 3.8 -46.9
v 3.7 3.8 -46.9
v 3.6 4.1 -37.7
v 3.7 4.1 -37.7
v 3.7 4.1 -37.9
v 3.8 4.1 -37.9
v 3.7 4.1 -38
v 3.8 4.1 -38
v 3.7 4.1 -46.8
v 3.8 4.1 -46.8
v 3.7 4.1 -46.9
v 3.8 4.1 -46.9
v 3.6 4.1 -47.1
v 3.7 4.1 -47.1
v 2.9 5 -38.1
v 3.1 5 -38.1
v 2.9 5 -38.3
v 3.1 5 -38.3
v 2.9 5 -38.5
v 3.1 5 -38.5
v 2.9 5 -38.7
v 3.1 5 -38.7
v 2.9 5 -46.1
v 3.1 5 -46.1
v 2.9 5 -46.3
v 3.1 5 -46.3
v 2.9 5 -46.5
v 3.1 5 -46.5
v 2.9 5 -46.7
v 3.1 5 -46.7
v 0.8 6.2 -42.2
v 1 6.2 -42.2
v 0.8 6.2 -42.6
v 1 6.2 -42.6

# faces
f 3/5/1 2/5/1 1/5/1
f 4/5/1 2/5/1 3/5/1
f 7/4/1 6/4/1 5/4/1
f 8/4/1 6/4/1 7/4/1
f 11/4/1 10/4/1 9/4/1
f 12/4/1 10/4/1 11/4/1
f 21/4/1 14/4/1 13/4/1
f 22/4/1 14/4/1 21/4/1
f 23/4/1 16/4/1 15/4/1
f 24/4/1 16/4/1 23/4/1
f 25/4/1 18/4/1 17/4/1
f 26/4/1 18/4/1 25/4/1
f 27/4/1 20/4/1 19/4/1
f 28/4/1 20/4/1 27/4/1
f 37/4/1 30/4/1 29/4/1
f 38/4/1 30/4/1 37/4/1
f 39/4/1 32/4/1 31/4/1
f 40/4/1 32/4/1 39/4/1
f 41/4/1 34/4/1 33/4/1
f 42/4/1 34/4/1 41/4/1
f 43/4/1 36/4/1 35/4/1
f 44/4/1 36/4/1 43/4/1
f 59/1/1 46/1/1 45/1/1
f 60/1/1 46/1/1 59/1/1
f 61/1/1 48/1/1 47/1/1
f 62/1/1 48/1/1 61/1/1
f 63/1/1 50/1/1 49/1/1
f 64/1/1 50/1/1 63/1/1
f 65/1/1 52/1/1 51/1/1
f 66/1/1 52/1/1 65/1/1
f 67/1/1 54/1/1 53/1/1
f 68/1/1 54/1/1 67/1/1
f 69/1/1 56/1/1 55/1/1
f 70/1/1 56/1/1 69/1/1
f 71/1/1 58/1/1 57/1/1
f 72/1/1 58/1/1 71/1/1
f 89/1/1 74/1/1 73/1/1
f 90/1/1 74/1/1 89/1/1
f 91/1/1 76/1/1 75/1/1
f 92/1/1 76/1/1 91/1/1
f 93/1/1 78/1/1 77/1/1
f 94/1/1 78/1/1 93/1/1
f 95/1/1 80/1/1 79/1/1
f 96/1/1 80/1/1 95/1/1
f 97/1/1 82/1/1 81/1/1
f 98/1/1 82/1/1 97/1/1
f 99/1/1 84/1/1 83/1/1
f 100/1/1 84/1/1 99/1/1
f 101/1/1 86/1/1 85/1/1
f 102/1/1 86/1/1 101/1/1
f 103/1/1 88/1/1 87/1/1
f 104/1/1 88/1/1 103/1/1
f 113/4/1 110/4/1 109/4/1
f 114/4/1 110/4/1 113/4/1
f 115/3/1 112/3/1 111/3/1
f 116/3/1 112/3/1 115/3/1
f 117/2/1 106/2/1 105/2/1
f 118/2/1 106/2/1 117/2/1
f 119/2/1 108/2/1 107/2/1
f 120/2/1 108/2/1 119/2/1
f 123/2/1 122/2/1 121/2/1
f 124/2/1 122/2/1 123/2/1
f 129/2/1 126/2/1 125/2/1
f 130/2/1 126/2/1 129/2/1
f 131/2/1 128/2/1 127/2/1
f 132/2/1 128/2/1 131/2/1
f 133/4/2 134/4/2 135/4/2
f 135/4/2 134/4/2 136/4/2
f 137/4/2 138/4/2 145/4/2
f 145/4/2 138/4/2 146/4/2
f 139/4/2 140/4/2 147/4/2
f 147/4/2 140/4/2 148/4/2
f 141/4/2 142/4/2 149/4/2
f 149/4/2 142/4/2 150/4/2
f 143/4/2 144/4/2 151/4/2
f 151/4/2 144/4/2 152/4/2
f 153/5/2 154/5/2 155/5/2
f 155/5/2 154/5/2 156/5/2
f 157/1/2 158/1/2 161/1/2
f 161/1/2 158/1/2 162/1/2
f 159/1/2 160/1/2 163/1/2
f 163/1/2 160/1/2 164/1/2
f 165/1/2 166/1/2 167/1/2
f 167/1/2 166/1/2 168/1/2
f 173/4/2 174/4/2 177/4/2
f 177/4/2 174/4/2 178/4/2
f 175/3/2 176/3/2 179/3/2
f 179/3/2 176/3/2 180/3/2
f 169/2/2 170/2/2 181/2/2
f 181/2/2 170/2/2 182/2/2
f 171/2/2 172/2/2 183/2/2
f 183/2/2 172/2/2 184/2/2
f 185/2/2 186/2/2 191/2/2
f 191/2/2 186/2/2 192/2/2
f 187/2/2 188/2/2 193/2/2
f 193/2/2 188/2/2 194/2/2
f 189/2/2 190/2/2 195/2/2
f 195/2/2 190/2/2 196/2/2
f 197/2/2 198/2/2 201/2/2
f 201/2/2 198/2/2 202/2/2
f 199/2/2 200/2/2 203/2/2
f 203/2/2 200/2/2 204/2/2
f 205/1/2 206/1/2 215/1/2
f 215/1/2 206/1/2 216/1/2
f 207/1/2 208/1/2 217/1/2
f 217/1/2 208/1/2 218/1/2
f 209/1/2 210/1/2 219/1/2
f 219/1/2 210/1/2 220/1/2
f 211/1/2 212/1/2 221/1/2
f 221/1/2 212/1/2 222/1/2
f 213/1/2 214/1/2 223/1/2
f 223/1/2 214/1/2 224/1/2
f 225/1/2 226/1/2 241/1/2
f 241/1/2 226/1/2 242/1/2
f 227/1/2 228/1/2 243/1/2
f 243/1/2 228/1/2 244/1/2
f 229/1/2 230/1/2 245/1/2
f 245/1/2 230/1/2 246/1/2
f 231/1/2 232/1/2 247/1/2
f 247/1/2 232/1/2 248/1/2
f 233/1/2 234/1/2 249/1/2
f 249/1/2 234/1/2 250/1/2
f 235/1/2 236/1/2 251/1/2
f 251/1/2 236/1/2 252/1/2
f 237/1/2 238/1/2 253/1/2
f 253/1/2 238/1/2 254/1/2
f 239/2/2 240/2/2 257/2/2
f 257/2/2 240/2/2 258/2/2
f 255/2/2 256/2/2 259/2/2
f 259/2/2 256/2/2 260/2/2
f 263/5/3 262/5/3 261/5/3
f 264/5/3 262/5/3 263/5/3
f 267/2/3 266/2/3 265/2/3
f 268/2/3 266/2/3 267/2/3
f 271/2/3 270/2/3 269/2/3
f 272/2/3 270/2/3 271/2/3
f 273/2/3 270/2/3 272/2/3
f 276/2/3 271/2/3 269/2/3
f 277/2/3 271/2/3 276/2/3
f 278/2/3 275/2/3 274/2/3
f 278/2/3 274/2/3 273/2/3
f 278/2/3 273/2/3 272/2/3
f 279/2/3 275/2/3 278/2/3
f 283/4/3 281/4/3 280/4/3
f 284/4/3 283/4/3 282/4/3
f 285/4/3 281/4/3 283/4/3
f 285/4/3 283/4/3 284/4/3
f 290/1/3 287/1/3 286/1/3
f 291/1/3 287/1/3 290/1/3
f 292/1/3 289/1/3 288/1/3
f 293/1/3 289/1/3 292/1/3
f 297/4/3 295/4/3 294/4/3
f 298/4/3 297/4/3 296/4/3
f 299/4/3 295/4/3 297/4/3
f 299/4/3 297/4/3 298/4/3
f 302/1/3 301/1/3 300/1/3
f 303/1/3 301/1/3 302/1/3
f 306/1/3 305/1/3 304/1/3
f 307/1/3 305/1/3 306/1/3
f 310/4/3 309/4/3 308/4/3
f 311/4/3 309/4/3 310/4/3
f 314/3/3 313/3/3 312/3/3
f 315/3/3 313/3/3 314/3/3
f 320/1/3 317/1/3 316/1/3
f 321/1/3 317/1/3 320/1/3
f 322/1/3 319/1/3 318/1/3
f 323/1/3 319/1/3 322/1/3
f 328/1/3 325/1/3 324/1/3
f 329/1/3 325/1/3 328/1/3
f 330/1/3 327/1/3 326/1/3
f 331/1/3 327/1/3 330/1/3
f 335/4/3 333/4/3 332/4/3
f 336/4/3 335/4/3 334/4/3
f 337/4/3 333/4/3 335/4/3
f 337/4/3 335/4/3 336/4/3
f 342/1/3 339/1/3 338/1/3
f 343/1/3 339/1/3 342/1/3
f 344/1/3 341/1/3 340/1/3
f 345/1/3 341/1/3 344/1/3
f 348/1/3 347/1/3 346/1/3
f 349/1/3 347/1/3 348/1/3
f 354/1/3 351/1/3 350/1/3
f 355/1/3 351/1/3 354/1/3
f 356/1/3 353/1/3 352/1/3
f 357/1/3 353/1/3 356/1/3
f 361/4/3 359/4/3 358/4/3
f 362/4/3 361/4/3 360/4/3
f 363/4/3 359/4/3 361/4/3
f 363/4/3 361/4/3 362/4/3
f 366/1/3 365/1/3 364/1/3
f 367/1/3 365/1/3 366/1/3
f 371/4/3 369/4/3 368/4/3
f 372/4/3 371/4/3 370/4/3
f 373/4/3 369/4/3 371/4/3
f 373/4/3 371/4/3 372/4/3
f 376/1/3 375/1/3 374/1/3
f 377/1/3 375/1/3 376/1/3
f 380/2/3 379/2/3 378/2/3
f 381/2/3 379/2/3 380/2/3
f 382/2/3 379/2/3 381/2/3
f 385/2/3 380/2/3 378/2/3
f 386/2/3 380/2/3 385/2/3
f 387/2/3 384/2/3 383/2/3
f 387/2/3 383/2/3 382/2/3
f 387/2/3 382/2/3 381/2/3
f 388/2/3 384/2/3 387/2/3
f 389/2/4 390/2/4 391/2/4
f 391/2/4 390/2/4 392/2/4
f 392/2/4 390/2/4 393/2/4
f 389/2/4 391/2/4 396/2/4
f 396/2/4 391/2/4 397/2/4
f 394/2/4 395/2/4 398/2/4
f 393/2/4 394/2/4 398/2/4
f 392/2/4 393/2/4 398/2/4
f 398/2/4 395/2/4 399/2/4
f 400/4/4 401/4/4 403/4/4
f 402/4/4 403/4/4 404/4/4
f 403/4/4 401/4/4 405/4/4
f 404/4/4 403/4/4 405/4/4
f 406/1/4 407/1/4 410/1/4
f 410/1/4 407/1/4 411/1/4
f 408/1/4 409/1/4 412/1/4
f 412/1/4 409/1/4 413/1/4
f 414/4/4 415/4/4 417/4/4
f 416/4/4 417/4/4 418/4/4
f 417/4/4 415/4/4 419/4/4
f 418/4/4 417/4/4 419/4/4
f 420/1/4 421/1/4 424/1/4
f 424/1/4 421/1/4 425/1/4
f 422/1/4 423/1/4 426/1/4
f 426/1/4 423/1/4 427/1/4
f 428/4/4 429/4/4 430/4/4
f 430/4/4 429/4/4 431/4/4
f 432/3/4 433/3/4 434/3/4
f 434/3/4 433/3/4 435/3/4
f 436/1/4 437/1/4 440/1/4
f 440/1/4 437/1/4 441/1/4
f 438/1/4 439/1/4 442/1/4
f 442/1/4 439/1/4 443/1/4
f 444/1/4 445/1/4 448/1/4
f 448/1/4 445/1/4 449/1/4
f 446/1/4 447/1/4 450/1/4
f 450/1/4 447/1/4 451/1/4
f 452/4/4 453/4/4 455/4/4
f 454/4/4 455/4/4 456/4/4
f 455/4/4 453/4/4 457/4/4
f 456/4/4 455/4/4 457/4/4
f 458/1/4 459/1/4 460/1/4
f 460/1/4 459/1/4 461/1/4
f 462/1/4 463/1/4 466/1/4
f 466/1/4 463/1/4 467/1/4
f 464/1/4 465/1/4 468/1/4
f 468/1/4 465/1/4 469/1/4
f 470/1/4 471/1/4 474/1/4
f 474/1/4 471/1/4 475/1/4
f 472/1/4 473/1/4 476/1/4
f 476/1/4 473/1/4 477/1/4
f 478/4/4 479/4/4 481/4/4
f 480/4/4 481/4/4 482/4/4
f 481/4/4 479/4/4 483/4/4
f 482/4/4 481/4/4 483/4/4
f 486/1/4 487/1/4 488/1/4
f 488/1/4 487/1/4 489/1/4
f 484/1/4 485/1/4 490/1/4
f 490/1/4 485/1/4 491/1/4
f 492/4/4 493/4/4 495/4/4
f 494/4/4 495/4/4 496/4/4
f 495/4/4 493/4/4 497/4/4
f 496/4/4 495/4/4 497/4/4
f 498/2/4 499/2/4 500/2/4
f 500/2/4 499/2/4 501/2/4
f 501/2/4 499/2/4 502/2/4
f 498/2/4 500/2/4 505/2/4
f 505/2/4 500/2/4 506/2/4
f 503/2/4 504/2/4 507/2/4
f 502/2/4 503/2/4 507/2/4
f 501/2/4 502/2/4 507/2/4
f 507/2/4 504/2/4 508/2/4
f 509/5/4 510/5/4 511/5/4
f 511/5/4 510/5/4 512/5/4
f 513/2/4 514/2/4 515/2/4
f 515/2/4 514/2/4 516/2/4
f 519/5/5 518/5/5 517/5/5
f 520/5/5 518/5/5 519/5/5
f 523/2/5 522/2/5 521/2/5
f 524/2/5 522/2/5 523/2/5
f 527/2/5 526/2/5 525/2/5
f 528/2/5 526/2/5 527/2/5
f 531/1/5 530/1/5 529/1/5
f 532/1/5 530/1/5 531/1/5
f 535/1/5 534/1/5 533/1/5
f 536/1/5 534/1/5 535/1/5
f 539/1/5 538/1/5 537/1/5
f 540/1/5 538/1/5 539/1/5
f 543/1/5 542/1/5 541/1/5
f 544/1/5 542/1/5 543/1/5
f 547/1/5 546/1/5 545/1/5
f 548/1/5 546/1/5 547/1/5
f 551/1/5 550/1/5 549/1/5
f 552/1/5 550/1/5 551/1/5
f 555/1/5 554/1/5 553/1/5
f 556/1/5 554/1/5 555/1/5
f 559/4/5 558/4/5 557/4/5
f 560/4/5 558/4/5 559/4/5
f 563/3/5 562/3/5 561/3/5
f 564/3/5 562/3/5 563/3/5
f 567/1/5 566/1/5 565/1/5
f 568/1/5 566/1/5 567/1/5
f 571/1/5 570/1/5 569/1/5
f 572/1/5 570/1/5 571/1/5
f 575/1/5 574/1/5 573/1/5
f 576/1/5 574/1/5 575/1/5
f 579/1/5 578/1/5 577/1/5
f 580/1/5 578/1/5 579/1/5
f 583/1/5 582/1/5 581/1/5
f 584/1/5 582/1/5 583/1/5
f 587/1/5 586/1/5 585/1/5
f 588/1/5 586/1/5 587/1/5
f 591/1/5 590/1/5 589/1/5
f 592/1/5 590/1/5 591/1/5
f 595/1/5 594/1/5 593/1/5
f 596/1/5 594/1/5 595/1/5
f 599/2/5 598/2/5 597/2/5
f 600/2/5 598/2/5 599/2/5
f 603/2/5 602/2/5 601/2/5
f 604/2/5 602/2/5 603/2/5
f 607/2/5 606/2/5 605/2/5
f 608/2/5 607/2/5 605/2/5
f 609/2/5 608/2/5 605/2/5
f 610/2/5 609/2/5 605/2/5
f 611/2/5 610/2/5 605/2/5
f 612/2/5 610/2/5 611/2/5
f 615/4/5 614/4/5 613/4/5
f 616/4/5 614/4/5 615/4/5
f 619/4/5 618/4/5 617/4/5
f 620/4/5 618/4/5 619/4/5
f 623/4/5 622/4/5 621/4/5
f 624/4/5 622/4/5 623/4/5
f 627/4/5 626/4/5 625/4/5
f 628/4/5 626/4/5 627/4/5
f 631/4/5 630/4/5 629/4/5
f 632/4/5 630/4/5 631/4/5
f 635/4/5 634/4/5 633/4/5
f 636/4/5 634/4/5 635/4/5
f 639/4/5 638/4/5 637/4/5
f 640/4/5 638/4/5 639/4/5
f 643/4/5 642/4/5 641/4/5
f 644/4/5 642/4/5 643/4/5
f 647/4/5 646/4/5 645/4/5
f 648/4/5 646/4/5 647/4/5
f 651/4/5 650/4/5 649/4/5
f 652/4/5 650/4/5 651/4/5
f 653/5/6 654/5/6 655/5/6
f 655/5/6 654/5/6 656/5/6
f 657/2/6 658/2/6 659/2/6
f 659/2/6 658/2/6 660/2/6
f 661/2/6 662/2/6 663/2/6
f 663/2/6 662/2/6 664/2/6
f 665/4/6 666/4/6 667/4/6
f 667/4/6 666/4/6 668/4/6
f 669/3/6 670/3/6 671/3/6
f 671/3/6 670/3/6 672/3/6
f 673/1/6 674/1/6 675/1/6
f 675/1/6 674/1/6 676/1/6
f 677/1/6 678/1/6 679/1/6
f 679/1/6 678/1/6 680/1/6
f 681/1/6 682/1/6 683/1/6
f 683/1/6 682/1/6 684/1/6
f 685/1/6 686/1/6 687/1/6
f 687/1/6 686/1/6 688/1/6
f 689/1/6 690/1/6 691/1/6
f 691/1/6 690/1/6 692/1/6
f 693/1/6 694/1/6 695/1/6
f 695/1/6 694/1/6 696/1/6
f 697/1/6 698/1/6 699/1/6
f 699/1/6 698/1/6 700/1/6
f 701/1/6 702/1/6 703/1/6
f 703/1/6 702/1/6 704/1/6
f 705/1/6 706/1/6 707/1/6
f 707/1/6 706/1/6 708/1/6
f 709/1/6 710/1/6 711/1/6
f 711/1/6 710/1/6 712/1/6
f 713/1/6 714/1/6 715/1/6
f 715/1/6 714/1/6 716/1/6
f 717/1/6 718/1/6 719/1/6
f 719/1/6 718/1/6 720/1/6
f 721/1/6 722/1/6 723/1/6
f 723/1/6 722/1/6 724/1/6
f 725/1/6 726/1/6 727/1/6
f 727/1/6 726/1/6 728/1/6
f 729/1/6 730/1/6 731/1/6
f 731/1/6 730/1/6 732/1/6
f 733/2/6 734/2/6 735/2/6
f 735/2/6 734/2/6 736/2/6
f 737/2/6 738/2/6 739/2/6
f 739/2/6 738/2/6 740/2/6
f 741/2/6 742/2/6 743/2/6
f 741/2/6 743/2/6 745/2/6
f 743/2/6 744/2/6 745/2/6
f 745/2/6 744/2/6 746/2/6
f 741/2/6 745/2/6 747/2/6
f 741/2/6 747/2/6 749/2/6
f 747/2/6 748/2/6 749/2/6
f 749/2/6 748/2/6 750/2/6
f 741/2/6 749/2/6 751/2/6
f 751/2/6 749/2/6 752/2/6
f 753/4/6 754/4/6 755/4/6
f 755/4/6 754/4/6 756/4/6
f 757/4/6 758/4/6 759/4/6
f 759/4/6 758/4/6 760/4/6
f 761/4/6 762/4/6 763/4/6
f 763/4/6 762/4/6 764/4/6
f 765/4/6 766/4/6 767/4/6
f 767/4/6 766/4/6 768/4/6
f 769/4/6 770/4/6 771/4/6
f 771/4/6 770/4/6 772/4/6
