# MagicaVoxel @ Ephtracy

# group
o 

# material
mtllib Banca di credito stone-1.mtl
usemtl palette

# normals
vn -1 0 0
vn 1 0 0
vn 0 0 -1
vn 0 0 1
vn 0 -1 0
vn 0 1 0

# texcoords
vt 0.939453 0.5
vt 0.994141 0.5

# verts
v -4.4 0 -37.7
v -4.4 0 -29.7
v -4.4 0.1 -37.7
v -4.4 0.1 -32.6
v -4.4 0.1 -32.2
v -4.4 0.1 -30.7
v -4.4 0.1 -30.3
v -4.4 0.1 -29.7
v -4.4 0.2 -37.7
v -4.4 0.2 -32.6
v -4.4 0.2 -32.2
v -4.4 0.2 -30.7
v -4.4 0.2 -30.3
v -4.4 0.2 -29.7
v -3.3 0 -36.4
v -3.3 0 -36.3
v -3.3 0.1 -36.4
v -3.3 0.1 -36.3
v -2.8 0 -36.3
v -2.8 0 -36.2
v -2.8 0.1 -36.3
v -2.8 0.1 -36.2
v -2.3 0.1 -32.2
v -2.3 0.1 -30.7
v -2.3 0.2 -32.2
v -2.3 0.2 -30.7
v -1.8 0 -36.2
v -1.8 0 -33.4
v -1.8 0.1 -36.2
v -1.8 0.1 -33.4
v -1.7 0.1 -36.2
v -1.7 0.1 -33.4
v -1.7 0.2 -36.2
v -1.7 0.2 -33.4
v -1.4 0.1 -37.7
v -1.4 0.1 -36.2
v -1.4 0.2 -37.7
v -1.4 0.2 -36.2
v 0.8 0.1 -32.2
v 0.8 0.1 -30.7
v 0.8 0.2 -32.2
v 0.8 0.2 -30.7
v 3.3 0.1 -32.2
v 3.3 0.1 -30.7
v 3.3 0.2 -32.2
v 3.3 0.2 -30.7
v -4.2 0 -36.4
v -4.2 0 -33.4
v -4.2 0.1 -37.7
v -4.2 0.1 -36.4
v -4.2 0.1 -33.4
v -4.2 0.2 -37.7
v -4.2 0.2 -33.4
v -2.6 0.1 -32.2
v -2.6 0.1 -30.7
v -2.6 0.2 -32.2
v -2.6 0.2 -30.7
v 0.6 0.1 -32.2
v 0.6 0.1 -30.7
v 0.6 0.2 -32.2
v 0.6 0.2 -30.7
v 3.1 0.1 -32.2
v 3.1 0.1 -30.7
v 3.1 0.2 -32.2
v 3.1 0.2 -30.7
v 3.6 0 -37.7
v 3.6 0 -29.7
v 3.6 0.1 -37.7
v 3.6 0.1 -32.6
v 3.6 0.1 -32.2
v 3.6 0.1 -30.7
v 3.6 0.1 -30.3
v 3.6 0.1 -29.7
v 3.6 0.2 -37.7
v 3.6 0.2 -32.6
v 3.6 0.2 -32.2
v 3.6 0.2 -30.7
v 3.6 0.2 -30.3
v 3.6 0.2 -29.7
v -4.4 0 -37.7
v -4.4 0.1 -37.7
v -4.4 0.2 -37.7
v -4.2 0.1 -37.7
v -4.2 0.2 -37.7
v -1.4 0.1 -37.7
v -1.4 0.2 -37.7
v 3.6 0 -37.7
v 3.6 0.1 -37.7
v 3.6 0.2 -37.7
v -1.7 0.1 -36.2
v -1.7 0.2 -36.2
v -1.4 0.1 -36.2
v -1.4 0.2 -36.2
v -4.2 0 -33.4
v -4.2 0.1 -33.4
v -4.2 0.2 -33.4
v -1.8 0 -33.4
v -1.8 0.1 -33.4
v -1.7 0.1 -33.4
v -1.7 0.2 -33.4
v -4.4 0.1 -32.2
v -4.4 0.2 -32.2
v -2.6 0.1 -32.2
v -2.6 0.2 -32.2
v -2.3 0.1 -32.2
v -2.3 0.2 -32.2
v 0.6 0.1 -32.2
v 0.6 0.2 -32.2
v 0.8 0.1 -32.2
v 0.8 0.2 -32.2
v 3.1 0.1 -32.2
v 3.1 0.2 -32.2
v 3.3 0.1 -32.2
v 3.3 0.2 -32.2
v 3.6 0.1 -32.2
v 3.6 0.2 -32.2
v -4.4 0.1 -30.3
v -4.4 0.2 -30.3
v 3.6 0.1 -30.3
v 3.6 0.2 -30.3
v -4.2 0 -36.4
v -4.2 0.1 -36.4
v -3.3 0 -36.4
v -3.3 0.1 -36.4
v -3.3 0 -36.3
v -3.3 0.1 -36.3
v -2.8 0 -36.3
v -2.8 0.1 -36.3
v -2.8 0 -36.2
v -2.8 0.1 -36.2
v -1.8 0 -36.2
v -1.8 0.1 -36.2
v -4.4 0.1 -32.6
v -4.4 0.2 -32.6
v 3.6 0.1 -32.6
v 3.6 0.2 -32.6
v -4.4 0.1 -30.7
v -4.4 0.2 -30.7
v -2.6 0.1 -30.7
v -2.6 0.2 -30.7
v -2.3 0.1 -30.7
v -2.3 0.2 -30.7
v 0.6 0.1 -30.7
v 0.6 0.2 -30.7
v 0.8 0.1 -30.7
v 0.8 0.2 -30.7
v 3.1 0.1 -30.7
v 3.1 0.2 -30.7
v 3.3 0.1 -30.7
v 3.3 0.2 -30.7
v 3.6 0.1 -30.7
v 3.6 0.2 -30.7
v -4.4 0 -29.7
v -4.4 0.1 -29.7
v -4.4 0.2 -29.7
v 3.6 0 -29.7
v 3.6 0.1 -29.7
v 3.6 0.2 -29.7
v -4.4 0 -37.7
v 3.6 0 -37.7
v -4.2 0 -36.4
v -3.3 0 -36.4
v -3.3 0 -36.3
v -2.8 0 -36.3
v -2.8 0 -36.2
v -1.8 0 -36.2
v -4.2 0 -33.4
v -1.8 0 -33.4
v -4.4 0 -29.7
v 3.6 0 -29.7
v -4.2 0.1 -37.7
v -1.4 0.1 -37.7
v -4.2 0.1 -36.4
v -3.3 0.1 -36.4
v -3.3 0.1 -36.3
v -2.8 0.1 -36.3
v -2.8 0.1 -36.2
v -1.8 0.1 -36.2
v -1.7 0.1 -36.2
v -1.4 0.1 -36.2
v -1.8 0.1 -33.4
v -1.7 0.1 -33.4
v -4.4 0.1 -32.6
v 3.6 0.1 -32.6
v -4.4 0.1 -32.2
v -2.6 0.1 -32.2
v -2.3 0.1 -32.2
v 0.6 0.1 -32.2
v 0.8 0.1 -32.2
v 3.1 0.1 -32.2
v 3.3 0.1 -32.2
v 3.6 0.1 -32.2
v -4.4 0.1 -30.7
v -2.6 0.1 -30.7
v -2.3 0.1 -30.7
v 0.6 0.1 -30.7
v 0.8 0.1 -30.7
v 3.1 0.1 -30.7
v 3.3 0.1 -30.7
v 3.6 0.1 -30.7
v -4.4 0.1 -30.3
v 3.6 0.1 -30.3
v -4.4 0.2 -37.7
v -4.2 0.2 -37.7
v -1.4 0.2 -37.7
v 3.6 0.2 -37.7
v -1.7 0.2 -36.2
v -1.4 0.2 -36.2
v -4.2 0.2 -33.4
v -1.7 0.2 -33.4
v -4.4 0.2 -32.6
v 3.6 0.2 -32.6
v -4.4 0.2 -32.2
v -2.6 0.2 -32.2
v -2.3 0.2 -32.2
v 0.6 0.2 -32.2
v 0.8 0.2 -32.2
v 3.1 0.2 -32.2
v 3.3 0.2 -32.2
v 3.6 0.2 -32.2
v -4.4 0.2 -30.7
v -2.6 0.2 -30.7
v -2.3 0.2 -30.7
v 0.6 0.2 -30.7
v 0.8 0.2 -30.7
v 3.1 0.2 -30.7
v 3.3 0.2 -30.7
v 3.6 0.2 -30.7
v -4.4 0.2 -30.3
v 3.6 0.2 -30.3
v -4.4 0.2 -29.7
v 3.6 0.2 -29.7

# faces
f 1/2/1 2/2/1 3/2/1
f 3/2/1 2/2/1 4/2/1
f 4/2/1 2/2/1 5/2/1
f 5/2/1 2/2/1 6/2/1
f 6/2/1 2/2/1 7/2/1
f 7/2/1 2/2/1 8/2/1
f 3/1/1 4/1/1 9/1/1
f 9/1/1 4/1/1 10/1/1
f 5/1/1 6/1/1 11/1/1
f 11/1/1 6/1/1 12/1/1
f 7/1/1 8/1/1 13/1/1
f 13/1/1 8/1/1 14/1/1
f 15/2/1 16/2/1 17/2/1
f 17/2/1 16/2/1 18/2/1
f 19/2/1 20/2/1 21/2/1
f 21/2/1 20/2/1 22/2/1
f 23/1/1 24/1/1 25/1/1
f 25/1/1 24/1/1 26/1/1
f 27/2/1 28/2/1 29/2/1
f 29/2/1 28/2/1 30/2/1
f 31/1/1 32/1/1 33/1/1
f 33/1/1 32/1/1 34/1/1
f 35/1/1 36/1/1 37/1/1
f 37/1/1 36/1/1 38/1/1
f 39/1/1 40/1/1 41/1/1
f 41/1/1 40/1/1 42/1/1
f 43/1/1 44/1/1 45/1/1
f 45/1/1 44/1/1 46/1/1
f 50/2/2 48/2/2 47/2/2
f 51/2/2 48/2/2 50/2/2
f 52/1/2 50/1/2 49/1/2
f 52/1/2 51/1/2 50/1/2
f 53/1/2 51/1/2 52/1/2
f 56/1/2 55/1/2 54/1/2
f 57/1/2 55/1/2 56/1/2
f 60/1/2 59/1/2 58/1/2
f 61/1/2 59/1/2 60/1/2
f 64/1/2 63/1/2 62/1/2
f 65/1/2 63/1/2 64/1/2
f 68/2/2 67/2/2 66/2/2
f 69/2/2 67/2/2 68/2/2
f 70/2/2 67/2/2 69/2/2
f 71/2/2 67/2/2 70/2/2
f 72/2/2 67/2/2 71/2/2
f 73/2/2 67/2/2 72/2/2
f 74/1/2 69/1/2 68/1/2
f 75/1/2 69/1/2 74/1/2
f 76/1/2 71/1/2 70/1/2
f 77/1/2 71/1/2 76/1/2
f 78/1/2 73/1/2 72/1/2
f 79/1/2 73/1/2 78/1/2
f 80/2/3 81/2/3 83/2/3
f 81/1/3 82/1/3 83/1/3
f 83/1/3 82/1/3 84/1/3
f 80/2/3 83/2/3 85/2/3
f 80/2/3 85/2/3 87/2/3
f 85/1/3 86/1/3 88/1/3
f 87/2/3 85/2/3 88/2/3
f 88/1/3 86/1/3 89/1/3
f 90/1/3 91/1/3 92/1/3
f 92/1/3 91/1/3 93/1/3
f 94/2/3 95/2/3 97/2/3
f 95/1/3 96/1/3 98/1/3
f 97/2/3 95/2/3 98/2/3
f 98/1/3 96/1/3 99/1/3
f 99/1/3 96/1/3 100/1/3
f 101/1/3 102/1/3 103/1/3
f 103/1/3 102/1/3 104/1/3
f 105/1/3 106/1/3 107/1/3
f 107/1/3 106/1/3 108/1/3
f 109/1/3 110/1/3 111/1/3
f 111/1/3 110/1/3 112/1/3
f 113/1/3 114/1/3 115/1/3
f 115/1/3 114/1/3 116/1/3
f 117/1/3 118/1/3 119/1/3
f 119/1/3 118/1/3 120/1/3
f 123/2/4 122/2/4 121/2/4
f 124/2/4 122/2/4 123/2/4
f 127/2/4 126/2/4 125/2/4
f 128/2/4 126/2/4 127/2/4
f 131/2/4 130/2/4 129/2/4
f 132/2/4 130/2/4 131/2/4
f 135/1/4 134/1/4 133/1/4
f 136/1/4 134/1/4 135/1/4
f 139/1/4 138/1/4 137/1/4
f 140/1/4 138/1/4 139/1/4
f 143/1/4 142/1/4 141/1/4
f 144/1/4 142/1/4 143/1/4
f 147/1/4 146/1/4 145/1/4
f 148/1/4 146/1/4 147/1/4
f 151/1/4 150/1/4 149/1/4
f 152/1/4 150/1/4 151/1/4
f 156/2/4 154/2/4 153/2/4
f 157/1/4 155/1/4 154/1/4
f 157/2/4 154/2/4 156/2/4
f 158/1/4 155/1/4 157/1/4
f 159/2/5 160/2/5 161/2/5
f 161/2/5 160/2/5 162/2/5
f 162/2/5 160/2/5 163/2/5
f 163/2/5 160/2/5 164/2/5
f 164/2/5 160/2/5 165/2/5
f 165/2/5 160/2/5 166/2/5
f 159/2/5 161/2/5 167/2/5
f 166/2/5 160/2/5 168/2/5
f 159/2/5 167/2/5 169/2/5
f 167/2/5 168/2/5 169/2/5
f 168/2/5 160/2/5 170/2/5
f 169/2/5 168/2/5 170/2/5
f 173/2/6 172/2/6 171/2/6
f 174/2/6 172/2/6 173/2/6
f 175/2/6 172/2/6 174/2/6
f 176/2/6 172/2/6 175/2/6
f 177/2/6 172/2/6 176/2/6
f 178/2/6 172/2/6 177/2/6
f 179/2/6 172/2/6 178/2/6
f 180/2/6 172/2/6 179/2/6
f 181/2/6 179/2/6 178/2/6
f 182/2/6 179/2/6 181/2/6
f 185/2/6 184/2/6 183/2/6
f 186/2/6 184/2/6 185/2/6
f 187/2/6 184/2/6 186/2/6
f 188/2/6 184/2/6 187/2/6
f 189/2/6 184/2/6 188/2/6
f 190/2/6 184/2/6 189/2/6
f 191/2/6 184/2/6 190/2/6
f 192/2/6 184/2/6 191/2/6
f 194/2/6 187/2/6 186/2/6
f 195/2/6 187/2/6 194/2/6
f 196/2/6 189/2/6 188/2/6
f 197/2/6 189/2/6 196/2/6
f 198/2/6 191/2/6 190/2/6
f 199/2/6 191/2/6 198/2/6
f 201/2/6 195/2/6 194/2/6
f 201/2/6 200/2/6 199/2/6
f 201/2/6 199/2/6 198/2/6
f 201/2/6 198/2/6 197/2/6
f 201/2/6 197/2/6 196/2/6
f 201/2/6 196/2/6 195/2/6
f 201/2/6 194/2/6 193/2/6
f 202/2/6 200/2/6 201/2/6
f 208/1/6 206/1/6 205/1/6
f 209/1/6 204/1/6 203/1/6
f 210/1/6 208/1/6 207/1/6
f 211/1/6 209/1/6 203/1/6
f 211/1/6 210/1/6 209/1/6
f 212/1/6 208/1/6 210/1/6
f 212/1/6 210/1/6 211/1/6
f 212/1/6 206/1/6 208/1/6
f 221/1/6 214/1/6 213/1/6
f 222/1/6 214/1/6 221/1/6
f 223/1/6 216/1/6 215/1/6
f 224/1/6 216/1/6 223/1/6
f 225/1/6 218/1/6 217/1/6
f 226/1/6 218/1/6 225/1/6
f 227/1/6 220/1/6 219/1/6
f 228/1/6 220/1/6 227/1/6
f 231/1/6 230/1/6 229/1/6
f 232/1/6 230/1/6 231/1/6
