# MagicaVoxel @ Ephtracy

# group
o 

# material
mtllib Ospedale Morelli bugna metallo-0.mtl
usemtl palette

# normals
vn 1 0 0
vn -1 0 0
vn 0 0 1
vn 0 0 -1
vn 0 -1 0
vn 0 1 0

# texcoords
vt 0.353516 0.5
vt 0.951172 0.5
vt 0.966797 0.5

# verts
v 24 11.9 7.7
v 24 11.9 7.6
v 24 12 7.7
v 24 12 7.6
v 24 16.4 8.2
v 24 16.4 8
v 24 16.4 -8.4
v 24 16.4 -8.6
v 24 16.6 8.2
v 24 16.6 8
v 24 16.6 -8.4
v 24 16.6 -8.6
v 15.4 5.9 7.9
v 15.4 5.9 7.8
v 15.4 7.1 8
v 15.4 7.1 7.9
v 15.4 7.2 8.1
v 15.4 7.2 8
v 15.4 7.2 7.8
v 15.4 7.4 8.1
v 15.4 7.4 8
v 15.4 7.4 7.7
v 15.4 7.4 7.6
v 15.4 7.5 7.8
v 15.4 7.5 7.7
v 15.4 7.6 7.8
v 15.4 7.6 7.7
v 15.4 11.3 7.8
v 15.4 11.3 7.7
v 15.4 11.4 7.9
v 15.4 11.4 7.8
v 15.4 11.4 7.6
v 15.4 11.5 8
v 15.4 11.5 7.9
v 15.4 11.6 8.1
v 15.4 11.6 8
v 15.4 11.6 7.8
v 15.4 11.8 8
v 15.4 11.8 7.7
v 15.4 11.9 7.7
v 15.4 12 8.1
v 15.4 12 7.7
v 15.2 5.8 7.9
v 15.2 5.8 7.8
v 15.2 5.9 7.9
v 15.2 5.9 7.8
v 15.2 6 7.9
v 15.2 6 7.8
v 15.2 6.1 7.9
v 15.2 6.1 7.8
v 10.4 1.4 6.8
v 10.4 1.4 6.6
v 10.4 1.8 6.8
v 10.4 1.8 6.6
v 10.4 4.6 6.8
v 10.4 4.6 6.6
v 10.4 5 6.8
v 10.4 5 6.6
v 8.1 11.9 7.6
v 8.1 11.9 7.4
v 8.1 12 7.6
v 8.1 12 7.4
v 15.3 6 7.9
v 15.3 6 7.8
v 15.3 7.1 8
v 15.3 7.1 7.9
v 15.3 7.2 8.1
v 15.3 7.2 8
v 15.3 7.2 7.8
v 15.3 7.4 8.1
v 15.3 7.4 8
v 15.3 7.4 7.7
v 15.3 7.4 7.6
v 15.3 7.5 7.8
v 15.3 7.5 7.7
v 15.3 7.6 7.8
v 15.3 7.6 7.7
v 15.3 11.3 7.8
v 15.3 11.3 7.7
v 15.3 11.4 7.9
v 15.3 11.4 7.8
v 15.3 11.4 7.6
v 15.3 11.5 8
v 15.3 11.5 7.9
v 15.3 11.6 8.1
v 15.3 11.6 8
v 15.3 11.6 7.8
v 15.3 11.8 8
v 15.3 11.8 7.7
v 15.3 11.9 7.7
v 15.3 12 8.1
v 15.3 12 7.7
v 14.9 5.8 7.9
v 14.9 5.8 7.8
v 14.9 6.1 7.9
v 14.9 6.1 7.8
v 10.2 1.4 6.8
v 10.2 1.4 6.6
v 10.2 1.8 6.8
v 10.2 1.8 6.6
v 10.2 4.6 6.8
v 10.2 4.6 6.6
v 10.2 5 6.8
v 10.2 5 6.6
v 8 11.9 7.7
v 8 11.9 7.4
v 8 12 7.7
v 8 12 7.4
v 8 16.4 8.2
v 8 16.4 8
v 8 16.4 -8.4
v 8 16.4 -8.6
v 8 16.6 8.2
v 8 16.6 8
v 8 16.6 -8.4
v 8 16.6 -8.6
v 24 16.4 8.2
v 24 16.6 8.2
v 8 16.4 8.2
v 8 16.6 8.2
v 15.4 7.2 8.1
v 15.4 7.4 8.1
v 15.4 11.6 8.1
v 15.4 12 8.1
v 15.3 7.2 8.1
v 15.3 7.4 8.1
v 15.3 11.6 8.1
v 15.3 12 8.1
v 15.4 7.1 8
v 15.4 7.2 8
v 15.4 11.5 8
v 15.4 11.6 8
v 15.3 7.1 8
v 15.3 7.2 8
v 15.3 11.5 8
v 15.3 11.6 8
v 15.4 5.9 7.9
v 15.4 7.1 7.9
v 15.4 11.4 7.9
v 15.4 11.5 7.9
v 15.3 6 7.9
v 15.3 7.1 7.9
v 15.3 11.4 7.9
v 15.3 11.5 7.9
v 15.2 5.8 7.9
v 15.2 5.9 7.9
v 15.2 6 7.9
v 15.2 6.1 7.9
v 14.9 5.8 7.9
v 14.9 6.1 7.9
v 15.4 7.5 7.8
v 15.4 7.6 7.8
v 15.4 11.3 7.8
v 15.4 11.4 7.8
v 15.3 7.5 7.8
v 15.3 7.6 7.8
v 15.3 11.3 7.8
v 15.3 11.4 7.8
v 24 11.9 7.7
v 24 12 7.7
v 15.4 7.4 7.7
v 15.4 7.5 7.7
v 15.4 7.6 7.7
v 15.4 11.3 7.7
v 15.4 11.9 7.7
v 15.4 12 7.7
v 15.3 7.4 7.7
v 15.3 7.5 7.7
v 15.3 7.6 7.7
v 15.3 11.3 7.7
v 15.3 11.9 7.7
v 15.3 12 7.7
v 8 11.9 7.7
v 8 12 7.7
v 10.4 1.4 6.8
v 10.4 1.8 6.8
v 10.4 4.6 6.8
v 10.4 5 6.8
v 10.2 1.4 6.8
v 10.2 1.8 6.8
v 10.2 4.6 6.8
v 10.2 5 6.8
v 24 16.4 -8.4
v 24 16.6 -8.4
v 8 16.4 -8.4
v 8 16.6 -8.4
v 24 16.4 8
v 24 16.6 8
v 15.4 7.2 8
v 15.4 7.4 8
v 15.4 11.6 8
v 15.4 11.8 8
v 15.3 7.2 8
v 15.3 7.4 8
v 15.3 11.6 8
v 15.3 11.8 8
v 8 16.4 8
v 8 16.6 8
v 15.4 5.9 7.8
v 15.4 7.2 7.8
v 15.4 11.4 7.8
v 15.4 11.6 7.8
v 15.3 6 7.8
v 15.3 7.2 7.8
v 15.3 11.4 7.8
v 15.3 11.6 7.8
v 15.2 5.8 7.8
v 15.2 5.9 7.8
v 15.2 6 7.8
v 15.2 6.1 7.8
v 14.9 5.8 7.8
v 14.9 6.1 7.8
v 15.4 11.8 7.7
v 15.4 11.9 7.7
v 15.3 11.8 7.7
v 15.3 11.9 7.7
v 24 11.9 7.6
v 24 12 7.6
v 15.4 7.4 7.6
v 15.4 11.4 7.6
v 15.3 7.4 7.6
v 15.3 11.4 7.6
v 8.1 11.9 7.6
v 8.1 12 7.6
v 8.1 11.9 7.4
v 8.1 12 7.4
v 8 11.9 7.4
v 8 12 7.4
v 10.4 1.4 6.6
v 10.4 1.8 6.6
v 10.4 4.6 6.6
v 10.4 5 6.6
v 10.2 1.4 6.6
v 10.2 1.8 6.6
v 10.2 4.6 6.6
v 10.2 5 6.6
v 24 16.4 -8.6
v 24 16.6 -8.6
v 8 16.4 -8.6
v 8 16.6 -8.6
v 10.4 1.4 6.8
v 10.2 1.4 6.8
v 10.4 1.4 6.6
v 10.2 1.4 6.6
v 10.4 4.6 6.8
v 10.2 4.6 6.8
v 10.4 4.6 6.6
v 10.2 4.6 6.6
v 15.2 5.8 7.9
v 14.9 5.8 7.9
v 15.2 5.8 7.8
v 14.9 5.8 7.8
v 15.4 5.9 7.9
v 15.2 5.9 7.9
v 15.4 5.9 7.8
v 15.2 5.9 7.8
v 15.4 7.1 8
v 15.3 7.1 8
v 15.4 7.1 7.9
v 15.3 7.1 7.9
v 15.4 7.2 8.1
v 15.3 7.2 8.1
v 15.4 7.2 8
v 15.3 7.2 8
v 15.4 7.4 7.7
v 15.3 7.4 7.7
v 15.4 7.4 7.6
v 15.3 7.4 7.6
v 15.4 7.5 7.8
v 15.3 7.5 7.8
v 15.4 7.5 7.7
v 15.3 7.5 7.7
v 15.4 11.3 7.8
v 15.3 11.3 7.8
v 15.4 11.3 7.7
v 15.3 11.3 7.7
v 15.4 11.4 7.9
v 15.3 11.4 7.9
v 15.4 11.4 7.8
v 15.3 11.4 7.8
v 15.4 11.5 8
v 15.3 11.5 8
v 15.4 11.5 7.9
v 15.3 11.5 7.9
v 15.4 11.6 8.1
v 15.3 11.6 8.1
v 15.4 11.6 8
v 15.3 11.6 8
v 15.4 11.8 8
v 15.3 11.8 8
v 15.4 11.8 7.7
v 15.3 11.8 7.7
v 24 11.9 7.7
v 15.4 11.9 7.7
v 15.3 11.9 7.7
v 8 11.9 7.7
v 24 11.9 7.6
v 8.1 11.9 7.6
v 8.1 11.9 7.4
v 8 11.9 7.4
v 24 16.4 8.2
v 8 16.4 8.2
v 24 16.4 8
v 8 16.4 8
v 24 16.4 -8.4
v 8 16.4 -8.4
v 24 16.4 -8.6
v 8 16.4 -8.6
v 10.4 1.8 6.8
v 10.2 1.8 6.8
v 10.4 1.8 6.6
v 10.2 1.8 6.6
v 10.4 5 6.8
v 10.2 5 6.8
v 10.4 5 6.6
v 10.2 5 6.6
v 15.3 6 7.9
v 15.2 6 7.9
v 15.3 6 7.8
v 15.2 6 7.8
v 15.2 6.1 7.9
v 14.9 6.1 7.9
v 15.2 6.1 7.8
v 14.9 6.1 7.8
v 15.4 7.2 8
v 15.3 7.2 8
v 15.4 7.2 7.8
v 15.3 7.2 7.8
v 15.4 7.4 8.1
v 15.3 7.4 8.1
v 15.4 7.4 8
v 15.3 7.4 8
v 15.4 7.6 7.8
v 15.3 7.6 7.8
v 15.4 7.6 7.7
v 15.3 7.6 7.7
v 15.4 11.4 7.8
v 15.3 11.4 7.8
v 15.4 11.4 7.6
v 15.3 11.4 7.6
v 15.4 11.6 8
v 15.3 11.6 8
v 15.4 11.6 7.8
v 15.3 11.6 7.8
v 15.4 12 8.1
v 15.3 12 8.1
v 24 12 7.7
v 15.4 12 7.7
v 15.3 12 7.7
v 8 12 7.7
v 24 12 7.6
v 8.1 12 7.6
v 8.1 12 7.4
v 8 12 7.4
v 24 16.6 8.2
v 8 16.6 8.2
v 24 16.6 8
v 8 16.6 8
v 24 16.6 -8.4
v 8 16.6 -8.4
v 24 16.6 -8.6
v 8 16.6 -8.6

# faces
f 1/3/1 2/3/1 3/3/1
f 3/3/1 2/3/1 4/3/1
f 5/1/1 6/1/1 9/1/1
f 9/1/1 6/1/1 10/1/1
f 7/1/1 8/1/1 11/1/1
f 11/1/1 8/1/1 12/1/1
f 13/3/1 14/3/1 16/3/1
f 15/3/1 16/3/1 18/3/1
f 16/3/1 14/3/1 19/3/1
f 18/3/1 16/3/1 19/3/1
f 17/3/1 18/3/1 20/3/1
f 20/3/1 18/3/1 21/3/1
f 22/3/1 23/3/1 25/3/1
f 24/3/1 25/3/1 26/3/1
f 25/3/1 23/3/1 27/3/1
f 26/3/1 25/3/1 27/3/1
f 27/3/1 23/3/1 29/3/1
f 28/3/1 29/3/1 31/3/1
f 29/3/1 23/3/1 32/3/1
f 31/3/1 29/3/1 32/3/1
f 30/3/1 31/3/1 34/3/1
f 33/3/1 34/3/1 36/3/1
f 34/3/1 31/3/1 37/3/1
f 36/3/1 34/3/1 37/3/1
f 35/3/1 36/3/1 38/3/1
f 38/3/1 39/3/1 40/3/1
f 35/3/1 38/3/1 41/3/1
f 38/3/1 40/3/1 41/3/1
f 41/3/1 40/3/1 42/3/1
f 43/2/1 44/2/1 45/2/1
f 45/2/1 44/2/1 46/2/1
f 47/2/1 48/2/1 49/2/1
f 49/2/1 48/2/1 50/2/1
f 51/1/1 52/1/1 53/1/1
f 53/1/1 52/1/1 54/1/1
f 55/1/1 56/1/1 57/1/1
f 57/1/1 56/1/1 58/1/1
f 59/3/1 60/3/1 61/3/1
f 61/3/1 60/3/1 62/3/1
f 66/3/2 64/3/2 63/3/2
f 68/3/2 66/3/2 65/3/2
f 69/3/2 64/3/2 66/3/2
f 69/3/2 66/3/2 68/3/2
f 70/3/2 68/3/2 67/3/2
f 71/3/2 68/3/2 70/3/2
f 75/3/2 73/3/2 72/3/2
f 76/3/2 75/3/2 74/3/2
f 77/3/2 73/3/2 75/3/2
f 77/3/2 75/3/2 76/3/2
f 79/3/2 73/3/2 77/3/2
f 81/3/2 79/3/2 78/3/2
f 82/3/2 73/3/2 79/3/2
f 82/3/2 79/3/2 81/3/2
f 84/3/2 81/3/2 80/3/2
f 86/3/2 84/3/2 83/3/2
f 87/3/2 81/3/2 84/3/2
f 87/3/2 84/3/2 86/3/2
f 88/3/2 86/3/2 85/3/2
f 90/3/2 89/3/2 88/3/2
f 91/3/2 88/3/2 85/3/2
f 91/3/2 90/3/2 88/3/2
f 92/3/2 90/3/2 91/3/2
f 95/2/2 94/2/2 93/2/2
f 96/2/2 94/2/2 95/2/2
f 99/1/2 98/1/2 97/1/2
f 100/1/2 98/1/2 99/1/2
f 103/1/2 102/1/2 101/1/2
f 104/1/2 102/1/2 103/1/2
f 107/3/2 106/3/2 105/3/2
f 108/3/2 106/3/2 107/3/2
f 113/1/2 110/1/2 109/1/2
f 114/1/2 110/1/2 113/1/2
f 115/1/2 112/1/2 111/1/2
f 116/1/2 112/1/2 115/1/2
f 117/1/3 118/1/3 119/1/3
f 119/1/3 118/1/3 120/1/3
f 121/3/3 122/3/3 125/3/3
f 125/3/3 122/3/3 126/3/3
f 123/3/3 124/3/3 127/3/3
f 127/3/3 124/3/3 128/3/3
f 129/3/3 130/3/3 133/3/3
f 133/3/3 130/3/3 134/3/3
f 131/3/3 132/3/3 135/3/3
f 135/3/3 132/3/3 136/3/3
f 137/3/3 138/3/3 141/3/3
f 141/3/3 138/3/3 142/3/3
f 139/3/3 140/3/3 143/3/3
f 143/3/3 140/3/3 144/3/3
f 137/3/3 141/3/3 146/3/3
f 146/3/3 141/3/3 147/3/3
f 145/2/3 146/2/3 149/2/3
f 147/2/3 148/2/3 149/2/3
f 146/2/3 147/2/3 149/2/3
f 149/2/3 148/2/3 150/2/3
f 151/3/3 152/3/3 155/3/3
f 155/3/3 152/3/3 156/3/3
f 153/3/3 154/3/3 157/3/3
f 157/3/3 154/3/3 158/3/3
f 159/3/3 160/3/3 165/3/3
f 165/3/3 160/3/3 166/3/3
f 161/3/3 162/3/3 167/3/3
f 167/3/3 162/3/3 168/3/3
f 163/3/3 164/3/3 169/3/3
f 169/3/3 164/3/3 170/3/3
f 171/3/3 172/3/3 173/3/3
f 173/3/3 172/3/3 174/3/3
f 175/1/3 176/1/3 179/1/3
f 179/1/3 176/1/3 180/1/3
f 177/1/3 178/1/3 181/1/3
f 181/1/3 178/1/3 182/1/3
f 183/1/3 184/1/3 185/1/3
f 185/1/3 184/1/3 186/1/3
f 193/3/4 190/3/4 189/3/4
f 194/3/4 190/3/4 193/3/4
f 195/3/4 192/3/4 191/3/4
f 196/3/4 192/3/4 195/3/4
f 197/1/4 188/1/4 187/1/4
f 198/1/4 188/1/4 197/1/4
f 203/3/4 200/3/4 199/3/4
f 204/3/4 200/3/4 203/3/4
f 205/3/4 202/3/4 201/3/4
f 206/3/4 202/3/4 205/3/4
f 208/3/4 203/3/4 199/3/4
f 209/3/4 203/3/4 208/3/4
f 211/2/4 208/2/4 207/2/4
f 211/2/4 210/2/4 209/2/4
f 211/2/4 209/2/4 208/2/4
f 212/2/4 210/2/4 211/2/4
f 215/3/4 214/3/4 213/3/4
f 216/3/4 214/3/4 215/3/4
f 221/3/4 220/3/4 219/3/4
f 222/3/4 220/3/4 221/3/4
f 223/3/4 218/3/4 217/3/4
f 224/3/4 218/3/4 223/3/4
f 227/3/4 226/3/4 225/3/4
f 228/3/4 226/3/4 227/3/4
f 233/1/4 230/1/4 229/1/4
f 234/1/4 230/1/4 233/1/4
f 235/1/4 232/1/4 231/1/4
f 236/1/4 232/1/4 235/1/4
f 239/1/4 238/1/4 237/1/4
f 240/1/4 238/1/4 239/1/4
f 241/1/5 242/1/5 243/1/5
f 243/1/5 242/1/5 244/1/5
f 245/1/5 246/1/5 247/1/5
f 247/1/5 246/1/5 248/1/5
f 249/2/5 250/2/5 251/2/5
f 251/2/5 250/2/5 252/2/5
f 253/3/5 254/3/5 255/3/5
f 255/3/5 254/3/5 256/3/5
f 257/3/5 258/3/5 259/3/5
f 259/3/5 258/3/5 260/3/5
f 261/3/5 262/3/5 263/3/5
f 263/3/5 262/3/5 264/3/5
f 265/3/5 266/3/5 267/3/5
f 267/3/5 266/3/5 268/3/5
f 269/3/5 270/3/5 271/3/5
f 271/3/5 270/3/5 272/3/5
f 273/3/5 274/3/5 275/3/5
f 275/3/5 274/3/5 276/3/5
f 277/3/5 278/3/5 279/3/5
f 279/3/5 278/3/5 280/3/5
f 281/3/5 282/3/5 283/3/5
f 283/3/5 282/3/5 284/3/5
f 285/3/5 286/3/5 287/3/5
f 287/3/5 286/3/5 288/3/5
f 289/3/5 290/3/5 291/3/5
f 291/3/5 290/3/5 292/3/5
f 293/3/5 294/3/5 297/3/5
f 295/3/5 296/3/5 297/3/5
f 294/3/5 295/3/5 297/3/5
f 297/3/5 296/3/5 298/3/5
f 298/3/5 296/3/5 299/3/5
f 299/3/5 296/3/5 300/3/5
f 301/1/5 302/1/5 303/1/5
f 303/1/5 302/1/5 304/1/5
f 305/1/5 306/1/5 307/1/5
f 307/1/5 306/1/5 308/1/5
f 311/1/6 310/1/6 309/1/6
f 312/1/6 310/1/6 311/1/6
f 315/1/6 314/1/6 313/1/6
f 316/1/6 314/1/6 315/1/6
f 319/3/6 318/3/6 317/3/6
f 320/3/6 318/3/6 319/3/6
f 323/2/6 322/2/6 321/2/6
f 324/2/6 322/2/6 323/2/6
f 327/3/6 326/3/6 325/3/6
f 328/3/6 326/3/6 327/3/6
f 331/3/6 330/3/6 329/3/6
f 332/3/6 330/3/6 331/3/6
f 335/3/6 334/3/6 333/3/6
f 336/3/6 334/3/6 335/3/6
f 339/3/6 338/3/6 337/3/6
f 340/3/6 338/3/6 339/3/6
f 343/3/6 342/3/6 341/3/6
f 344/3/6 342/3/6 343/3/6
f 348/3/6 346/3/6 345/3/6
f 349/3/6 346/3/6 348/3/6
f 351/3/6 348/3/6 347/3/6
f 351/3/6 350/3/6 349/3/6
f 351/3/6 349/3/6 348/3/6
f 352/3/6 350/3/6 351/3/6
f 353/3/6 350/3/6 352/3/6
f 354/3/6 350/3/6 353/3/6
f 357/1/6 356/1/6 355/1/6
f 358/1/6 356/1/6 357/1/6
f 361/1/6 360/1/6 359/1/6
f 362/1/6 360/1/6 361/1/6
