# MagicaVoxel @ Ephtracy

# group
o 

# material
mtllib Ospedale Morelli bugna metallo-1.mtl
usemtl palette

# normals
vn -1 0 0
vn 1 0 0
vn 0 0 1
vn 0 0 -1
vn 0 -1 0
vn 0 1 0

# texcoords
vt 0.353516 0.5
vt 0.951172 0.5
vt 0.966797 0.5

# verts
v -8 11.8 7.7
v -8 11.8 7.6
v -8 11.9 7.7
v -8 11.9 7.6
v -8 16.4 8.2
v -8 16.4 8
v -8 16.4 -8.4
v -8 16.4 -8.6
v -8 16.6 8.2
v -8 16.6 8
v -8 16.6 -8.4
v -8 16.6 -8.6
v -7.5 1 8.1
v -7.5 1 7.8
v -7.5 2.2 8.1
v -7.5 2.2 7.8
v -7.5 11.9 7.7
v -7.5 11.9 7.6
v -7.5 12 7.7
v -7.5 12 7.6
v -7.4 1.1 8.2
v -7.4 1.1 8.1
v -7.4 2.1 8.2
v -7.4 2.1 8.1
v -7.2 0.6 7.9
v -7.2 0.6 7.8
v -7.2 1 7.9
v -7.2 1 7.8
v -7 0.6 7.9
v -7 0.6 7.8
v -7 1 7.9
v -7 1 7.8
v 0.9 1.1 8
v 0.9 1.1 7.8
v 0.9 3.3 8.1
v 0.9 3.3 8
v 0.9 3.5 8.1
v 0.9 3.5 7.8
v 1.8 0.6 7.9
v 1.8 0.6 7.8
v 1.8 1.1 7.9
v 1.8 1.1 7.8
v 2.9 17.4 6
v 2.9 17.4 5.4
v 2.9 18.2 6
v 2.9 18.2 5.4
v 3 1.2 8
v 3 1.2 7.9
v 3 3.1 8
v 3 3.1 7.9
v 5.6 1.4 6.8
v 5.6 1.4 6.6
v 5.6 1.8 6.8
v 5.6 1.8 6.6
v 5.6 4.6 6.8
v 5.6 4.6 6.6
v 5.6 5 6.8
v 5.6 5 6.6
v -7.5 11.8 7.7
v -7.5 11.8 7.6
v -7.5 11.9 7.7
v -7.5 11.9 7.6
v -7.1 0.6 7.9
v -7.1 0.6 7.8
v -7.1 1 7.9
v -7.1 1 7.8
v -6.8 0.6 7.9
v -6.8 0.6 7.8
v -6.8 1 7.9
v -6.8 1 7.8
v -6.6 1.1 8.2
v -6.6 1.1 8.1
v -6.6 2.1 8.2
v -6.6 2.1 8.1
v -6.5 1 8.1
v -6.5 1 7.8
v -6.5 2.2 8.1
v -6.5 2.2 7.8
v 1 1.2 8
v 1 1.2 7.9
v 1 3.1 8
v 1 3.1 7.9
v 2.1 0.6 7.9
v 2.1 0.6 7.8
v 2.1 1.1 7.9
v 2.1 1.1 7.8
v 3.1 1.1 8
v 3.1 1.1 7.8
v 3.1 3.3 8.1
v 3.1 3.3 8
v 3.1 3.5 8.1
v 3.1 3.5 7.8
v 3.5 17.4 6
v 3.5 17.4 5.4
v 3.5 18.2 6
v 3.5 18.2 5.4
v 5.8 1.4 6.8
v 5.8 1.4 6.6
v 5.8 1.8 6.8
v 5.8 1.8 6.6
v 5.8 4.6 6.8
v 5.8 4.6 6.6
v 5.8 5 6.8
v 5.8 5 6.6
v 8 11.9 7.7
v 8 11.9 7.6
v 8 12 7.7
v 8 12 7.6
v 8 16.4 8.2
v 8 16.4 8
v 8 16.4 -8.4
v 8 16.4 -8.6
v 8 16.6 8.2
v 8 16.6 8
v 8 16.6 -8.4
v 8 16.6 -8.6
v -8 16.4 8.2
v -8 16.6 8.2
v -7.4 1.1 8.2
v -7.4 2.1 8.2
v -6.6 1.1 8.2
v -6.6 2.1 8.2
v 8 16.4 8.2
v 8 16.6 8.2
v -7.5 1 8.1
v -7.5 2.2 8.1
v -7.4 1.1 8.1
v -7.4 2.1 8.1
v -6.6 1.1 8.1
v -6.6 2.1 8.1
v -6.5 1 8.1
v -6.5 2.2 8.1
v 0.9 3.3 8.1
v 0.9 3.5 8.1
v 3.1 3.3 8.1
v 3.1 3.5 8.1
v 0.9 1.1 8
v 0.9 3.3 8
v 1 1.2 8
v 1 3.1 8
v 3 1.2 8
v 3 3.1 8
v 3.1 1.1 8
v 3.1 3.3 8
v -7.2 0.6 7.9
v -7.2 1 7.9
v -7.1 0.6 7.9
v -7.1 1 7.9
v -7 0.6 7.9
v -7 1 7.9
v -6.8 0.6 7.9
v -6.8 1 7.9
v 1 1.2 7.9
v 1 3.1 7.9
v 1.8 0.6 7.9
v 1.8 1.1 7.9
v 2.1 0.6 7.9
v 2.1 1.1 7.9
v 3 1.2 7.9
v 3 3.1 7.9
v -8 11.8 7.7
v -8 11.9 7.7
v -7.5 11.8 7.7
v -7.5 11.9 7.7
v -7.5 12 7.7
v 8 11.9 7.7
v 8 12 7.7
v 5.6 1.4 6.8
v 5.6 1.8 6.8
v 5.6 4.6 6.8
v 5.6 5 6.8
v 5.8 1.4 6.8
v 5.8 1.8 6.8
v 5.8 4.6 6.8
v 5.8 5 6.8
v 2.9 17.4 6
v 2.9 18.2 6
v 3.5 17.4 6
v 3.5 18.2 6
v -8 16.4 -8.4
v -8 16.6 -8.4
v 8 16.4 -8.4
v 8 16.6 -8.4
v -8 16.4 8
v -8 16.6 8
v 8 16.4 8
v 8 16.6 8
v -7.5 1 7.8
v -7.5 2.2 7.8
v -7.2 0.6 7.8
v -7.2 1 7.8
v -7.1 0.6 7.8
v -7.1 1 7.8
v -7 0.6 7.8
v -7 1 7.8
v -6.8 0.6 7.8
v -6.8 1 7.8
v -6.5 1 7.8
v -6.5 2.2 7.8
v 0.9 1.1 7.8
v 0.9 3.5 7.8
v 1 1.2 7.8
v 1 3.1 7.8
v 1.8 0.6 7.8
v 1.8 1.1 7.8
v 2.1 0.6 7.8
v 2.1 1.1 7.8
v 3 1.2 7.8
v 3 3.1 7.8
v 3.1 1.1 7.8
v 3.1 3.5 7.8
v -8 11.8 7.6
v -8 11.9 7.6
v -7.5 11.8 7.6
v -7.5 11.9 7.6
v -7.5 12 7.6
v 8 11.9 7.6
v 8 12 7.6
v 5.6 1.4 6.6
v 5.6 1.8 6.6
v 5.6 4.6 6.6
v 5.6 5 6.6
v 5.8 1.4 6.6
v 5.8 1.8 6.6
v 5.8 4.6 6.6
v 5.8 5 6.6
v 2.9 17.4 5.4
v 2.9 18.2 5.4
v 3.5 17.4 5.4
v 3.5 18.2 5.4
v -8 16.4 -8.6
v -8 16.6 -8.6
v 8 16.4 -8.6
v 8 16.6 -8.6
v -7.2 0.6 7.9
v -7.1 0.6 7.9
v -7 0.6 7.9
v -6.8 0.6 7.9
v 1.8 0.6 7.9
v 2.1 0.6 7.9
v -7.2 0.6 7.8
v -7.1 0.6 7.8
v -7 0.6 7.8
v -6.8 0.6 7.8
v 1.8 0.6 7.8
v 2.1 0.6 7.8
v -7.5 1 8.1
v -6.5 1 8.1
v -7.2 1 7.9
v -7.1 1 7.9
v -7 1 7.9
v -6.8 1 7.9
v -7.5 1 7.8
v -7.2 1 7.8
v -7.1 1 7.8
v -7 1 7.8
v -6.8 1 7.8
v -6.5 1 7.8
v -7.4 1.1 8.2
v -6.6 1.1 8.2
v -7.4 1.1 8.1
v -6.6 1.1 8.1
v 0.9 1.1 8
v 3.1 1.1 8
v 1.8 1.1 7.9
v 2.1 1.1 7.9
v 0.9 1.1 7.8
v 1.8 1.1 7.8
v 2.1 1.1 7.8
v 3.1 1.1 7.8
v 5.6 1.4 6.8
v 5.8 1.4 6.8
v 5.6 1.4 6.6
v 5.8 1.4 6.6
v 1 3.1 8
v 3 3.1 8
v 1 3.1 7.9
v 3 3.1 7.9
v 0.9 3.3 8.1
v 3.1 3.3 8.1
v 0.9 3.3 8
v 3.1 3.3 8
v 5.6 4.6 6.8
v 5.8 4.6 6.8
v 5.6 4.6 6.6
v 5.8 4.6 6.6
v -8 11.8 7.7
v -7.5 11.8 7.7
v -8 11.8 7.6
v -7.5 11.8 7.6
v -7.5 11.9 7.7
v 8 11.9 7.7
v -7.5 11.9 7.6
v 8 11.9 7.6
v -8 16.4 8.2
v 8 16.4 8.2
v -8 16.4 8
v 8 16.4 8
v -8 16.4 -8.4
v 8 16.4 -8.4
v -8 16.4 -8.6
v 8 16.4 -8.6
v 2.9 17.4 6
v 3.5 17.4 6
v 2.9 17.4 5.4
v 3.5 17.4 5.4
v 1 1.2 8
v 3 1.2 8
v 1 1.2 7.9
v 3 1.2 7.9
v 5.6 1.8 6.8
v 5.8 1.8 6.8
v 5.6 1.8 6.6
v 5.8 1.8 6.6
v -7.4 2.1 8.2
v -6.6 2.1 8.2
v -7.4 2.1 8.1
v -6.6 2.1 8.1
v -7.5 2.2 8.1
v -6.5 2.2 8.1
v -7.5 2.2 7.8
v -6.5 2.2 7.8
v 0.9 3.5 8.1
v 3.1 3.5 8.1
v 0.9 3.5 7.8
v 3.1 3.5 7.8
v 5.6 5 6.8
v 5.8 5 6.8
v 5.6 5 6.6
v 5.8 5 6.6
v -8 11.9 7.7
v -7.5 11.9 7.7
v -8 11.9 7.6
v -7.5 11.9 7.6
v -7.5 12 7.7
v 8 12 7.7
v -7.5 12 7.6
v 8 12 7.6
v -8 16.6 8.2
v 8 16.6 8.2
v -8 16.6 8
v 8 16.6 8
v -8 16.6 -8.4
v 8 16.6 -8.4
v -8 16.6 -8.6
v 8 16.6 -8.6
v 2.9 18.2 6
v 3.5 18.2 6
v 2.9 18.2 5.4
v 3.5 18.2 5.4

# faces
f 3/3/1 2/3/1 1/3/1
f 4/3/1 2/3/1 3/3/1
f 9/1/1 6/1/1 5/1/1
f 10/1/1 6/1/1 9/1/1
f 11/1/1 8/1/1 7/1/1
f 12/1/1 8/1/1 11/1/1
f 15/3/1 14/3/1 13/3/1
f 16/3/1 14/3/1 15/3/1
f 19/3/1 18/3/1 17/3/1
f 20/3/1 18/3/1 19/3/1
f 23/2/1 22/2/1 21/2/1
f 24/2/1 22/2/1 23/2/1
f 27/2/1 26/2/1 25/2/1
f 28/2/1 26/2/1 27/2/1
f 31/2/1 30/2/1 29/2/1
f 32/2/1 30/2/1 31/2/1
f 36/2/1 34/2/1 33/2/1
f 37/2/1 36/2/1 35/2/1
f 38/2/1 34/2/1 36/2/1
f 38/2/1 36/2/1 37/2/1
f 41/2/1 40/2/1 39/2/1
f 42/2/1 40/2/1 41/2/1
f 45/3/1 44/3/1 43/3/1
f 46/3/1 44/3/1 45/3/1
f 49/2/1 48/2/1 47/2/1
f 50/2/1 48/2/1 49/2/1
f 53/1/1 52/1/1 51/1/1
f 54/1/1 52/1/1 53/1/1
f 57/1/1 56/1/1 55/1/1
f 58/1/1 56/1/1 57/1/1
f 59/3/2 60/3/2 61/3/2
f 61/3/2 60/3/2 62/3/2
f 63/2/2 64/2/2 65/2/2
f 65/2/2 64/2/2 66/2/2
f 67/2/2 68/2/2 69/2/2
f 69/2/2 68/2/2 70/2/2
f 71/2/2 72/2/2 73/2/2
f 73/2/2 72/2/2 74/2/2
f 75/3/2 76/3/2 77/3/2
f 77/3/2 76/3/2 78/3/2
f 79/2/2 80/2/2 81/2/2
f 81/2/2 80/2/2 82/2/2
f 83/2/2 84/2/2 85/2/2
f 85/2/2 84/2/2 86/2/2
f 87/2/2 88/2/2 90/2/2
f 89/2/2 90/2/2 91/2/2
f 90/2/2 88/2/2 92/2/2
f 91/2/2 90/2/2 92/2/2
f 93/3/2 94/3/2 95/3/2
f 95/3/2 94/3/2 96/3/2
f 97/1/2 98/1/2 99/1/2
f 99/1/2 98/1/2 100/1/2
f 101/1/2 102/1/2 103/1/2
f 103/1/2 102/1/2 104/1/2
f 105/3/2 106/3/2 107/3/2
f 107/3/2 106/3/2 108/3/2
f 109/1/2 110/1/2 113/1/2
f 113/1/2 110/1/2 114/1/2
f 111/1/2 112/1/2 115/1/2
f 115/1/2 112/1/2 116/1/2
f 121/2/3 120/2/3 119/2/3
f 122/2/3 120/2/3 121/2/3
f 123/1/3 118/1/3 117/1/3
f 124/1/3 118/1/3 123/1/3
f 127/3/3 126/3/3 125/3/3
f 128/3/3 126/3/3 127/3/3
f 129/3/3 127/3/3 125/3/3
f 130/3/3 126/3/3 128/3/3
f 131/3/3 129/3/3 125/3/3
f 131/3/3 130/3/3 129/3/3
f 132/3/3 126/3/3 130/3/3
f 132/3/3 130/3/3 131/3/3
f 135/2/3 134/2/3 133/2/3
f 136/2/3 134/2/3 135/2/3
f 139/2/3 138/2/3 137/2/3
f 140/2/3 138/2/3 139/2/3
f 141/2/3 139/2/3 137/2/3
f 142/2/3 138/2/3 140/2/3
f 143/2/3 141/2/3 137/2/3
f 143/2/3 142/2/3 141/2/3
f 144/2/3 138/2/3 142/2/3
f 144/2/3 142/2/3 143/2/3
f 147/2/3 146/2/3 145/2/3
f 148/2/3 146/2/3 147/2/3
f 151/2/3 150/2/3 149/2/3
f 152/2/3 150/2/3 151/2/3
f 157/2/3 156/2/3 155/2/3
f 158/2/3 156/2/3 157/2/3
f 159/3/3 154/3/3 153/3/3
f 160/3/3 154/3/3 159/3/3
f 163/3/3 162/3/3 161/3/3
f 164/3/3 162/3/3 163/3/3
f 166/3/3 165/3/3 164/3/3
f 167/3/3 165/3/3 166/3/3
f 172/1/3 169/1/3 168/1/3
f 173/1/3 169/1/3 172/1/3
f 174/1/3 171/1/3 170/1/3
f 175/1/3 171/1/3 174/1/3
f 178/3/3 177/3/3 176/3/3
f 179/3/3 177/3/3 178/3/3
f 182/1/3 181/1/3 180/1/3
f 183/1/3 181/1/3 182/1/3
f 184/1/4 185/1/4 186/1/4
f 186/1/4 185/1/4 187/1/4
f 188/3/4 189/3/4 191/3/4
f 190/2/4 191/2/4 192/2/4
f 191/3/4 189/3/4 193/3/4
f 192/2/4 191/2/4 193/2/4
f 193/3/4 189/3/4 195/3/4
f 194/2/4 195/2/4 196/2/4
f 195/3/4 189/3/4 197/3/4
f 196/2/4 195/2/4 197/2/4
f 197/3/4 189/3/4 198/3/4
f 198/3/4 189/3/4 199/3/4
f 200/2/4 201/2/4 202/2/4
f 202/2/4 201/2/4 203/2/4
f 200/2/4 202/2/4 205/2/4
f 204/2/4 205/2/4 206/2/4
f 205/2/4 202/2/4 207/2/4
f 206/2/4 205/2/4 207/2/4
f 202/3/4 203/3/4 208/3/4
f 207/2/4 202/2/4 208/2/4
f 203/2/4 201/2/4 209/2/4
f 208/3/4 203/3/4 209/3/4
f 207/2/4 208/2/4 210/2/4
f 208/2/4 209/2/4 210/2/4
f 209/2/4 201/2/4 211/2/4
f 210/2/4 209/2/4 211/2/4
f 212/3/4 213/3/4 214/3/4
f 214/3/4 213/3/4 215/3/4
f 215/3/4 216/3/4 217/3/4
f 217/3/4 216/3/4 218/3/4
f 219/1/4 220/1/4 223/1/4
f 223/1/4 220/1/4 224/1/4
f 221/1/4 222/1/4 225/1/4
f 225/1/4 222/1/4 226/1/4
f 227/3/4 228/3/4 229/3/4
f 229/3/4 228/3/4 230/3/4
f 231/1/4 232/1/4 233/1/4
f 233/1/4 232/1/4 234/1/4
f 241/2/5 236/2/5 235/2/5
f 242/2/5 236/2/5 241/2/5
f 243/2/5 238/2/5 237/2/5
f 244/2/5 238/2/5 243/2/5
f 245/2/5 240/2/5 239/2/5
f 246/2/5 240/2/5 245/2/5
f 249/3/5 248/3/5 247/3/5
f 250/3/5 248/3/5 249/3/5
f 251/3/5 248/3/5 250/3/5
f 252/3/5 248/3/5 251/3/5
f 253/3/5 249/3/5 247/3/5
f 254/3/5 249/3/5 253/3/5
f 255/3/5 251/3/5 250/3/5
f 256/3/5 251/3/5 255/3/5
f 257/3/5 248/3/5 252/3/5
f 258/3/5 248/3/5 257/3/5
f 261/2/5 260/2/5 259/2/5
f 262/2/5 260/2/5 261/2/5
f 265/2/5 264/2/5 263/2/5
f 266/2/5 264/2/5 265/2/5
f 267/2/5 265/2/5 263/2/5
f 268/2/5 265/2/5 267/2/5
f 269/2/5 264/2/5 266/2/5
f 270/2/5 264/2/5 269/2/5
f 273/1/5 272/1/5 271/1/5
f 274/1/5 272/1/5 273/1/5
f 277/2/5 276/2/5 275/2/5
f 278/2/5 276/2/5 277/2/5
f 281/2/5 280/2/5 279/2/5
f 282/2/5 280/2/5 281/2/5
f 285/1/5 284/1/5 283/1/5
f 286/1/5 284/1/5 285/1/5
f 289/3/5 288/3/5 287/3/5
f 290/3/5 288/3/5 289/3/5
f 293/3/5 292/3/5 291/3/5
f 294/3/5 292/3/5 293/3/5
f 297/1/5 296/1/5 295/1/5
f 298/1/5 296/1/5 297/1/5
f 301/1/5 300/1/5 299/1/5
f 302/1/5 300/1/5 301/1/5
f 305/3/5 304/3/5 303/3/5
f 306/3/5 304/3/5 305/3/5
f 307/2/6 308/2/6 309/2/6
f 309/2/6 308/2/6 310/2/6
f 311/1/6 312/1/6 313/1/6
f 313/1/6 312/1/6 314/1/6
f 315/2/6 316/2/6 317/2/6
f 317/2/6 316/2/6 318/2/6
f 319/3/6 320/3/6 321/3/6
f 321/3/6 320/3/6 322/3/6
f 323/2/6 324/2/6 325/2/6
f 325/2/6 324/2/6 326/2/6
f 327/1/6 328/1/6 329/1/6
f 329/1/6 328/1/6 330/1/6
f 331/3/6 332/3/6 333/3/6
f 333/3/6 332/3/6 334/3/6
f 335/3/6 336/3/6 337/3/6
f 337/3/6 336/3/6 338/3/6
f 339/1/6 340/1/6 341/1/6
f 341/1/6 340/1/6 342/1/6
f 343/1/6 344/1/6 345/1/6
f 345/1/6 344/1/6 346/1/6
f 347/3/6 348/3/6 349/3/6
f 349/3/6 348/3/6 350/3/6
